solid BatteryHolder
facet normal 0.0 0.0 -1.0
  outer loop
    vertex 20.0 27.0 0.0
    vertex 0.0 0.0 0.0
    vertex 0.0 27.0 0.0
  endloop
endfacet
facet normal 0.0 0.0 -1.0
  outer loop
    vertex 0.0 0.0 0.0
    vertex 20.0 27.0 0.0
    vertex 47.0 0.0 0.0
  endloop
endfacet
facet normal 0.0 0.0 -1.0
  outer loop
    vertex 47.0 0.0 0.0
    vertex 20.0 27.0 0.0
    vertex 23.488335174061906 27.0 0.0
  endloop
endfacet
facet normal 0.0 0.0 -1.0
  outer loop
    vertex 47.0 0.0 0.0
    vertex 23.488335174061906 27.0 0.0
    vertex 26.976670348123815 27.0 0.0
  endloop
endfacet
facet normal 0.0 0.0 -1.0
  outer loop
    vertex 47.0 0.0 0.0
    vertex 26.976670348123815 27.0 0.0
    vertex 47.0 27.0 0.0
  endloop
endfacet
facet normal -0.0 1.0 -0.0
  outer loop
    vertex 0.0 27.0 112.0
    vertex 20.0 27.0 0.0
    vertex 0.0 27.0 0.0
  endloop
endfacet
facet normal -0.0 1.0 -0.0
  outer loop
    vertex 20.0 27.0 0.0
    vertex 0.0 27.0 112.0
    vertex 20.0 27.0 111.99999999999997
  endloop
endfacet
facet normal 1.0 0.0 0.0
  outer loop
    vertex 47.0 27.0 0.0
    vertex 47.0 0.0 112.0
    vertex 47.0 0.0 0.0
  endloop
endfacet
facet normal 1.0 0.0 0.0
  outer loop
    vertex 47.0 0.0 112.0
    vertex 47.0 27.0 0.0
    vertex 47.0 27.0 112.0
  endloop
endfacet
facet normal -0.0 -1.0 -0.0
  outer loop
    vertex 47.0 0.0 112.0
    vertex 0.0 0.0 0.0
    vertex 47.0 0.0 0.0
  endloop
endfacet
facet normal -0.0 -1.0 -0.0
  outer loop
    vertex 0.0 0.0 0.0
    vertex 47.0 0.0 112.0
    vertex 25.62132034355964 0.0 94.87867965644037
  endloop
endfacet
facet normal -0.0 -1.0 -0.0
  outer loop
    vertex 0.0 0.0 0.0
    vertex 25.62132034355964 0.0 94.87867965644037
    vertex 25.0 0.0 94.40192378864668
  endloop
endfacet
facet normal -0.0 -1.0 -0.0
  outer loop
    vertex 0.0 0.0 0.0
    vertex 25.0 0.0 94.40192378864668
    vertex 24.276457135307563 0.0 94.1022225211328
  endloop
endfacet
facet normal -0.0 -1.0 -0.0
  outer loop
    vertex 0.0 0.0 0.0
    vertex 24.276457135307563 0.0 94.1022225211328
    vertex 23.5 0.0 94.00000000000001
  endloop
endfacet
facet normal -0.0 -1.0 -0.0
  outer loop
    vertex 25.62132034355964 0.0 94.87867965644037
    vertex 47.0 0.0 112.0
    vertex 26.098076211353312 0.0 95.5
  endloop
endfacet
facet normal -0.0 -1.0 -0.0
  outer loop
    vertex 26.098076211353312 0.0 95.5
    vertex 47.0 0.0 112.0
    vertex 26.3977774788672 0.0 96.22354286469245
  endloop
endfacet
facet normal -0.0 -1.0 -0.0
  outer loop
    vertex 26.3977774788672 0.0 96.22354286469245
    vertex 47.0 0.0 112.0
    vertex 26.499999999999996 0.0 97.0
  endloop
endfacet
facet normal -0.0 -1.0 -0.0
  outer loop
    vertex 26.499999999999996 0.0 97.0
    vertex 47.0 0.0 112.0
    vertex 26.3977774788672 0.0 97.77645713530757
  endloop
endfacet
facet normal -0.0 -1.0 -0.0
  outer loop
    vertex 26.3977774788672 0.0 97.77645713530757
    vertex 47.0 0.0 112.0
    vertex 26.098076211353312 0.0 98.5
  endloop
endfacet
facet normal -0.0 -1.0 -0.0
  outer loop
    vertex 26.098076211353312 0.0 98.5
    vertex 47.0 0.0 112.0
    vertex 25.62132034355964 0.0 99.12132034355965
  endloop
endfacet
facet normal -0.0 -1.0 -0.0
  outer loop
    vertex 25.62132034355964 0.0 99.12132034355965
    vertex 47.0 0.0 112.0
    vertex 24.999999999999996 0.0 99.59807621135332
  endloop
endfacet
facet normal -0.0 -1.0 -0.0
  outer loop
    vertex 24.999999999999996 0.0 99.59807621135332
    vertex 47.0 0.0 112.0
    vertex 24.27645713530756 0.0 99.89777747886721
  endloop
endfacet
facet normal -0.0 -1.0 -0.0
  outer loop
    vertex 24.27645713530756 0.0 99.89777747886721
    vertex 47.0 0.0 112.0
    vertex 23.5 0.0 100.0
  endloop
endfacet
facet normal -0.0 -1.0 -0.0
  outer loop
    vertex 0.0 0.0 0.0
    vertex 21.37867965644036 0.0 94.87867965644037
    vertex 0.0 0.0 112.0
  endloop
endfacet
facet normal -0.0 -1.0 -0.0
  outer loop
    vertex 21.37867965644036 0.0 94.87867965644037
    vertex 0.0 0.0 0.0
    vertex 22.000000000000004 0.0 94.40192378864668
  endloop
endfacet
facet normal -0.0 -1.0 -0.0
  outer loop
    vertex 22.000000000000004 0.0 94.40192378864668
    vertex 0.0 0.0 0.0
    vertex 22.72354286469244 0.0 94.1022225211328
  endloop
endfacet
facet normal -0.0 -1.0 -0.0
  outer loop
    vertex 22.72354286469244 0.0 94.1022225211328
    vertex 0.0 0.0 0.0
    vertex 23.5 0.0 94.00000000000001
  endloop
endfacet
facet normal -0.0 -1.0 -0.0
  outer loop
    vertex 0.0 0.0 112.0
    vertex 21.37867965644036 0.0 94.87867965644037
    vertex 20.901923788646684 0.0 95.5
  endloop
endfacet
facet normal -0.0 -1.0 -0.0
  outer loop
    vertex 0.0 0.0 112.0
    vertex 20.901923788646684 0.0 95.5
    vertex 20.6022225211328 0.0 96.22354286469245
  endloop
endfacet
facet normal -0.0 -1.0 -0.0
  outer loop
    vertex 0.0 0.0 112.0
    vertex 20.6022225211328 0.0 96.22354286469245
    vertex 20.500000000000004 0.0 97.0
  endloop
endfacet
facet normal -0.0 -1.0 -0.0
  outer loop
    vertex 0.0 0.0 112.0
    vertex 20.500000000000004 0.0 97.0
    vertex 20.6022225211328 0.0 97.77645713530757
  endloop
endfacet
facet normal -0.0 -1.0 -0.0
  outer loop
    vertex 0.0 0.0 112.0
    vertex 20.6022225211328 0.0 97.77645713530757
    vertex 20.901923788646684 0.0 98.5
  endloop
endfacet
facet normal -0.0 -1.0 -0.0
  outer loop
    vertex 0.0 0.0 112.0
    vertex 20.901923788646684 0.0 98.5
    vertex 21.378679656440358 0.0 99.12132034355965
  endloop
endfacet
facet normal -0.0 -1.0 -0.0
  outer loop
    vertex 0.0 0.0 112.0
    vertex 21.378679656440358 0.0 99.12132034355965
    vertex 22.0 0.0 99.59807621135332
  endloop
endfacet
facet normal -0.0 -1.0 -0.0
  outer loop
    vertex 0.0 0.0 112.0
    vertex 22.0 0.0 99.59807621135332
    vertex 22.723542864692437 0.0 99.89777747886721
  endloop
endfacet
facet normal -0.0 -1.0 -0.0
  outer loop
    vertex 0.0 0.0 112.0
    vertex 22.723542864692437 0.0 99.89777747886721
    vertex 23.5 0.0 100.0
  endloop
endfacet
facet normal -0.0 -1.0 -0.0
  outer loop
    vertex 0.0 0.0 112.0
    vertex 23.5 0.0 100.0
    vertex 47.0 0.0 112.0
  endloop
endfacet
facet normal -1.0 0.0 0.0
  outer loop
    vertex 0.0 27.0 112.0
    vertex 0.0 0.0 0.0
    vertex 0.0 0.0 112.0
  endloop
endfacet
facet normal -1.0 0.0 0.0
  outer loop
    vertex 0.0 0.0 0.0
    vertex 0.0 27.0 112.0
    vertex 0.0 27.0 0.0
  endloop
endfacet
facet normal -0.0 -0.0 1.0
  outer loop
    vertex 45.0 1.9999999999999998 1.9999999999999998
    vertex 2.000000000000001 25.0 1.9999999999999998
    vertex 2.000000000000001 1.9999999999999998 1.9999999999999998
  endloop
endfacet
facet normal -0.0 -0.0 1.0
  outer loop
    vertex 2.000000000000001 25.0 1.9999999999999998
    vertex 45.0 1.9999999999999998 1.9999999999999998
    vertex 45.0 25.0 1.9999999999999998
  endloop
endfacet
facet normal -1.1783055289139235e-19 4.1777278677611646e-16 1.0
  outer loop
    vertex 0.0 0.0 112.0
    vertex 2.000000000000001 1.9999999999999998 112.0
    vertex 0.0 27.0 112.0
  endloop
endfacet
facet normal -1.1783055289139235e-19 4.1777278677611646e-16 1.0
  outer loop
    vertex 2.000000000000001 1.9999999999999998 112.0
    vertex 0.0 0.0 112.0
    vertex 47.0 0.0 112.0
  endloop
endfacet
facet normal -1.1783055289139235e-19 4.1777278677611646e-16 1.0
  outer loop
    vertex 2.000000000000001 1.9999999999999998 112.0
    vertex 47.0 0.0 112.0
    vertex 45.0 1.9999999999999998 112.0
  endloop
endfacet
facet normal -1.1783055289139235e-19 4.1777278677611646e-16 1.0
  outer loop
    vertex 45.0 1.9999999999999998 112.0
    vertex 47.0 0.0 112.0
    vertex 45.0 25.0 112.0
  endloop
endfacet
facet normal -1.1783055289139235e-19 4.1777278677611646e-16 1.0
  outer loop
    vertex 0.0 27.0 112.0
    vertex 2.000000000000001 25.0 112.0
    vertex 20.0 27.0 111.99999999999997
  endloop
endfacet
facet normal -1.1783055289139235e-19 4.1777278677611646e-16 1.0
  outer loop
    vertex 2.000000000000001 25.0 112.0
    vertex 0.0 27.0 112.0
    vertex 2.000000000000001 1.9999999999999998 112.0
  endloop
endfacet
facet normal -1.1783055289139235e-19 4.1777278677611646e-16 1.0
  outer loop
    vertex 20.0 27.0 111.99999999999997
    vertex 2.000000000000001 25.0 112.0
    vertex 45.0 25.0 112.0
  endloop
endfacet
facet normal -1.1783055289139235e-19 4.1777278677611646e-16 1.0
  outer loop
    vertex 20.0 27.0 111.99999999999997
    vertex 45.0 25.0 112.0
    vertex 26.976670348123815 27.0 111.99999999999997
  endloop
endfacet
facet normal -1.1783055289139235e-19 4.1777278677611646e-16 1.0
  outer loop
    vertex 26.976670348123815 27.0 111.99999999999997
    vertex 45.0 25.0 112.0
    vertex 47.0 27.0 112.0
  endloop
endfacet
facet normal -1.1783055289139235e-19 4.1777278677611646e-16 1.0
  outer loop
    vertex 47.0 27.0 112.0
    vertex 45.0 25.0 112.0
    vertex 47.0 0.0 112.0
  endloop
endfacet
facet normal -1.0 -0.0 -0.0
  outer loop
    vertex 45.0 25.0 112.0
    vertex 45.0 1.9999999999999998 1.9999999999999998
    vertex 45.0 1.9999999999999998 112.0
  endloop
endfacet
facet normal -1.0 -0.0 -0.0
  outer loop
    vertex 45.0 1.9999999999999998 1.9999999999999998
    vertex 45.0 25.0 112.0
    vertex 45.0 25.0 1.9999999999999998
  endloop
endfacet
facet normal 0.0 1.0 0.0
  outer loop
    vertex 2.000000000000001 1.9999999999999998 112.0
    vertex 45.0 1.9999999999999998 1.9999999999999998
    vertex 2.000000000000001 1.9999999999999998 1.9999999999999998
  endloop
endfacet
facet normal 0.0 1.0 0.0
  outer loop
    vertex 45.0 1.9999999999999998 1.9999999999999998
    vertex 2.000000000000001 1.9999999999999998 112.0
    vertex 45.0 1.9999999999999998 112.0
  endloop
endfacet
facet normal 1.0 -0.0 0.0
  outer loop
    vertex 2.000000000000001 25.0 1.9999999999999998
    vertex 2.000000000000001 1.9999999999999998 112.0
    vertex 2.000000000000001 1.9999999999999998 1.9999999999999998
  endloop
endfacet
facet normal 1.0 -0.0 0.0
  outer loop
    vertex 2.000000000000001 1.9999999999999998 112.0
    vertex 2.000000000000001 25.0 1.9999999999999998
    vertex 2.000000000000001 25.0 112.0
  endloop
endfacet
facet normal 0.0 -1.0 0.0
  outer loop
    vertex 45.0 25.0 112.0
    vertex 2.000000000000001 25.0 1.9999999999999998
    vertex 45.0 25.0 1.9999999999999998
  endloop
endfacet
facet normal 0.0 -1.0 0.0
  outer loop
    vertex 2.000000000000001 25.0 1.9999999999999998
    vertex 45.0 25.0 112.0
    vertex 2.000000000000001 25.0 112.0
  endloop
endfacet
facet normal -0.0021110041645938807 0.004686113437277811 -0.9999867919139084
  outer loop
    vertex 27.23250276109286 31.999999999999996 0.024664999999998664
    vertex 23.488335174061906 27.0 0.0
    vertex 23.488335174061906 32.0 0.024664999999998664
  endloop
endfacet
facet normal -0.0021110041645938807 0.004686113437277811 -0.9999867919139084
  outer loop
    vertex 23.488335174061906 27.0 0.0
    vertex 27.23250276109286 31.999999999999996 0.024664999999998664
    vertex 26.976670348123815 29.500000000000004 0.0
  endloop
endfacet
facet normal -0.0021110041645938807 0.004686113437277811 -0.9999867919139084
  outer loop
    vertex 26.976670348123815 29.500000000000004 0.0
    vertex 27.23250276109286 31.999999999999996 0.024664999999998664
    vertex 30.97667034812381 29.500000000000004 0.0
  endloop
endfacet
facet normal -0.0021110041645938807 0.004686113437277811 -0.9999867919139084
  outer loop
    vertex 30.97667034812381 29.500000000000004 0.0
    vertex 27.23250276109286 31.999999999999996 0.024664999999998664
    vertex 30.97667034812381 31.0 0.0
  endloop
endfacet
facet normal -0.0021110041645938807 0.004686113437277811 -0.9999867919139084
  outer loop
    vertex 26.976670348123815 27.0 0.0
    vertex 23.488335174061906 27.0 0.0
    vertex 26.976670348123815 29.500000000000004 0.0
  endloop
endfacet
facet normal 0.25803731505075517 0.9661349512575339 -2.476896948980645e-18
  outer loop
    vertex 27.23250276109286 31.999999999999996 0.024664999999998664
    vertex 30.97667034812381 31.0 117.99999999999996
    vertex 30.97667034812381 31.0 0.0
  endloop
endfacet
facet normal 0.25803731505075517 0.9661349512575339 -2.476896948980645e-18
  outer loop
    vertex 30.97667034812381 31.0 117.99999999999996
    vertex 27.23250276109286 31.999999999999996 0.024664999999998664
    vertex 27.23250276109286 31.999999999999996 117.99999999999996
  endloop
endfacet
facet normal -2.560974049494406e-15 1.0 2.472724160086583e-16
  outer loop
    vertex 23.488335174061906 31.999999999999964 113.59999999999997
    vertex 27.23250276109286 31.999999999999996 0.024664999999998664
    vertex 23.488335174061906 32.0 0.024664999999998664
  endloop
endfacet
facet normal -2.560974049494406e-15 1.0 2.472724160086583e-16
  outer loop
    vertex 27.23250276109286 31.999999999999996 0.024664999999998664
    vertex 23.488335174061906 31.999999999999964 113.59999999999997
    vertex 23.850681837205435 31.999999999999964 113.64770384319527
  endloop
endfacet
facet normal -2.560974049494406e-15 1.0 2.472724160086583e-16
  outer loop
    vertex 27.23250276109286 31.999999999999996 0.024664999999998664
    vertex 23.850681837205435 31.999999999999964 113.64770384319527
    vertex 24.18833517406191 31.999999999999964 113.78756443470175
  endloop
endfacet
facet normal -2.560974049494406e-15 1.0 2.472724160086583e-16
  outer loop
    vertex 27.23250276109286 31.999999999999996 0.024664999999998664
    vertex 24.18833517406191 31.999999999999964 113.78756443470175
    vertex 24.478284667723074 31.999999999999964 114.01005050633881
  endloop
endfacet
facet normal -2.560974049494406e-15 1.0 2.472724160086583e-16
  outer loop
    vertex 27.23250276109286 31.999999999999996 0.024664999999998664
    vertex 24.478284667723074 31.999999999999964 114.01005050633881
    vertex 24.70077073936012 31.999999999999964 114.29999999999997
  endloop
endfacet
facet normal -2.560974049494406e-15 1.0 2.472724160086583e-16
  outer loop
    vertex 27.23250276109286 31.999999999999996 0.024664999999998664
    vertex 24.70077073936012 31.999999999999964 114.29999999999997
    vertex 27.23250276109286 31.999999999999996 117.99999999999996
  endloop
endfacet
facet normal -2.560974049494406e-15 1.0 2.472724160086583e-16
  outer loop
    vertex 27.23250276109286 31.999999999999996 117.99999999999996
    vertex 24.70077073936012 31.999999999999964 114.29999999999997
    vertex 24.840631330866604 31.999999999999964 114.63765333685645
  endloop
endfacet
facet normal -2.560974049494406e-15 1.0 2.472724160086583e-16
  outer loop
    vertex 27.23250276109286 31.999999999999996 117.99999999999996
    vertex 24.840631330866604 31.999999999999964 114.63765333685645
    vertex 24.888335174061908 31.999999999999964 114.99999999999997
  endloop
endfacet
facet normal -2.560974049494406e-15 1.0 2.472724160086583e-16
  outer loop
    vertex 27.23250276109286 31.999999999999996 117.99999999999996
    vertex 24.888335174061908 31.999999999999964 114.99999999999997
    vertex 24.8406313308666 31.999999999999964 115.3623466631435
  endloop
endfacet
facet normal -2.560974049494406e-15 1.0 2.472724160086583e-16
  outer loop
    vertex 27.23250276109286 31.999999999999996 117.99999999999996
    vertex 24.8406313308666 31.999999999999964 115.3623466631435
    vertex 24.70077073936012 31.999999999999964 115.69999999999997
  endloop
endfacet
facet normal -2.560974049494406e-15 1.0 2.472724160086583e-16
  outer loop
    vertex 27.23250276109286 31.999999999999996 117.99999999999996
    vertex 24.70077073936012 31.999999999999964 115.69999999999997
    vertex 24.478284667723074 31.999999999999964 115.98994949366114
  endloop
endfacet
facet normal -2.560974049494406e-15 1.0 2.472724160086583e-16
  outer loop
    vertex 27.23250276109286 31.999999999999996 117.99999999999996
    vertex 24.478284667723074 31.999999999999964 115.98994949366114
    vertex 24.188335174061905 31.999999999999964 116.21243556529818
  endloop
endfacet
facet normal -2.560974049494406e-15 1.0 2.472724160086583e-16
  outer loop
    vertex 27.23250276109286 31.999999999999996 117.99999999999996
    vertex 24.188335174061905 31.999999999999964 116.21243556529818
    vertex 23.850681837205435 31.999999999999964 116.35229615680467
  endloop
endfacet
facet normal -2.560974049494406e-15 1.0 2.472724160086583e-16
  outer loop
    vertex 27.23250276109286 31.999999999999996 117.99999999999996
    vertex 23.850681837205435 31.999999999999964 116.35229615680467
    vertex 23.488335174061906 31.999999999999964 116.39999999999996
  endloop
endfacet
facet normal -2.560974049494406e-15 1.0 2.472724160086583e-16
  outer loop
    vertex 27.23250276109286 31.999999999999996 117.99999999999996
    vertex 23.488335174061906 31.999999999999964 116.39999999999996
    vertex 23.488335174061906 32.0 117.99999999999996
  endloop
endfacet
facet normal -0.0 1.0 -0.0
  outer loop
    vertex 20.0 27.0 111.99999999999997
    vertex 23.488335174061906 27.0 0.0
    vertex 20.0 27.0 0.0
  endloop
endfacet
facet normal -0.0 1.0 -0.0
  outer loop
    vertex 23.488335174061906 27.0 0.0
    vertex 20.0 27.0 111.99999999999997
    vertex 26.976670348123815 27.0 0.0
  endloop
endfacet
facet normal -0.0 1.0 -0.0
  outer loop
    vertex 26.976670348123815 27.0 0.0
    vertex 20.0 27.0 111.99999999999997
    vertex 26.976670348123815 27.0 111.99999999999997
  endloop
endfacet
facet normal -1.0 0.0 0.0
  outer loop
    vertex 20.0 29.500000000000004 117.99999999999996
    vertex 20.0 27.0 111.99999999999997
    vertex 20.0 27.0 117.99999999999996
  endloop
endfacet
facet normal -1.0 0.0 0.0
  outer loop
    vertex 20.0 27.0 111.99999999999997
    vertex 20.0 29.500000000000004 117.99999999999996
    vertex 20.0 27.0 0.0
  endloop
endfacet
facet normal -1.0 0.0 0.0
  outer loop
    vertex 20.0 27.0 0.0
    vertex 20.0 29.500000000000004 117.99999999999996
    vertex 20.0 29.500000000000004 0.0
  endloop
endfacet
facet normal 1.0 -0.0 -0.0
  outer loop
    vertex 26.976670348123815 29.500000000000004 0.0
    vertex 26.976670348123815 27.0 111.99999999999997
    vertex 26.976670348123815 27.0 0.0
  endloop
endfacet
facet normal 1.0 -0.0 -0.0
  outer loop
    vertex 26.976670348123815 27.0 111.99999999999997
    vertex 26.976670348123815 29.500000000000004 0.0
    vertex 26.976670348123815 27.0 117.99999999999996
  endloop
endfacet
facet normal 1.0 -0.0 -0.0
  outer loop
    vertex 26.976670348123815 27.0 117.99999999999996
    vertex 26.976670348123815 29.500000000000004 0.0
    vertex 26.976670348123815 29.500000000000004 117.99999999999996
  endloop
endfacet
facet normal 1.0 0.0 0.0
  outer loop
    vertex 30.97667034812381 31.0 0.0
    vertex 30.97667034812381 29.500000000000004 117.99999999999996
    vertex 30.97667034812381 29.500000000000004 0.0
  endloop
endfacet
facet normal 1.0 0.0 0.0
  outer loop
    vertex 30.97667034812381 29.500000000000004 117.99999999999996
    vertex 30.97667034812381 31.0 0.0
    vertex 30.97667034812381 31.0 117.99999999999996
  endloop
endfacet
facet normal -0.0 -1.0 -0.0
  outer loop
    vertex 30.97667034812381 29.500000000000004 117.99999999999996
    vertex 26.976670348123815 29.500000000000004 0.0
    vertex 30.97667034812381 29.500000000000004 0.0
  endloop
endfacet
facet normal -0.0 -1.0 -0.0
  outer loop
    vertex 26.976670348123815 29.500000000000004 0.0
    vertex 30.97667034812381 29.500000000000004 117.99999999999996
    vertex 26.976670348123815 29.500000000000004 117.99999999999996
  endloop
endfacet
facet normal -0.0 -1.0 -0.0
  outer loop
    vertex 20.0 29.500000000000004 117.99999999999996
    vertex 15.999999999999998 29.500000000000004 0.0
    vertex 20.0 29.500000000000004 0.0
  endloop
endfacet
facet normal -0.0 -1.0 -0.0
  outer loop
    vertex 15.999999999999998 29.500000000000004 0.0
    vertex 20.0 29.500000000000004 117.99999999999996
    vertex 15.999999999999998 29.500000000000004 117.99999999999996
  endloop
endfacet
facet normal -1.0 0.0 0.0
  outer loop
    vertex 15.999999999999998 31.0 117.99999999999996
    vertex 15.999999999999998 29.500000000000004 0.0
    vertex 15.999999999999998 29.500000000000004 117.99999999999996
  endloop
endfacet
facet normal -1.0 0.0 0.0
  outer loop
    vertex 15.999999999999998 29.500000000000004 0.0
    vertex 15.999999999999998 31.0 117.99999999999996
    vertex 15.999999999999998 31.0 0.0
  endloop
endfacet
facet normal -0.25803731505075517 0.9661349512575339 -2.476896948980645e-18
  outer loop
    vertex 15.999999999999998 31.0 117.99999999999996
    vertex 19.74416758703095 31.999999999999996 0.024664999999998664
    vertex 15.999999999999998 31.0 0.0
  endloop
endfacet
facet normal -0.25803731505075517 0.9661349512575339 -2.476896948980645e-18
  outer loop
    vertex 19.74416758703095 31.999999999999996 0.024664999999998664
    vertex 15.999999999999998 31.0 117.99999999999996
    vertex 19.74416758703095 31.999999999999996 117.99999999999996
  endloop
endfacet
facet normal 2.5609740494944068e-15 1.0 2.4727241600865834e-16
  outer loop
    vertex 19.74416758703095 31.999999999999996 117.99999999999996
    vertex 23.488335174061906 32.0 0.024664999999998664
    vertex 19.74416758703095 31.999999999999996 0.024664999999998664
  endloop
endfacet
facet normal 2.5609740494944068e-15 1.0 2.4727241600865834e-16
  outer loop
    vertex 23.488335174061906 32.0 0.024664999999998664
    vertex 19.74416758703095 31.999999999999996 117.99999999999996
    vertex 22.275899608763694 31.999999999999964 114.29999999999997
  endloop
endfacet
facet normal 2.5609740494944068e-15 1.0 2.4727241600865834e-16
  outer loop
    vertex 23.488335174061906 32.0 0.024664999999998664
    vertex 22.275899608763694 31.999999999999964 114.29999999999997
    vertex 22.498385680400737 31.999999999999964 114.01005050633879
  endloop
endfacet
facet normal 2.5609740494944068e-15 1.0 2.4727241600865834e-16
  outer loop
    vertex 23.488335174061906 32.0 0.024664999999998664
    vertex 22.498385680400737 31.999999999999964 114.01005050633879
    vertex 22.788335174061906 31.999999999999964 113.78756443470175
  endloop
endfacet
facet normal 2.5609740494944068e-15 1.0 2.4727241600865834e-16
  outer loop
    vertex 23.488335174061906 32.0 0.024664999999998664
    vertex 22.788335174061906 31.999999999999964 113.78756443470175
    vertex 23.12598851091838 31.999999999999964 113.64770384319527
  endloop
endfacet
facet normal 2.5609740494944068e-15 1.0 2.4727241600865834e-16
  outer loop
    vertex 23.488335174061906 32.0 0.024664999999998664
    vertex 23.12598851091838 31.999999999999964 113.64770384319527
    vertex 23.488335174061906 31.999999999999964 113.59999999999997
  endloop
endfacet
facet normal 2.5609740494944068e-15 1.0 2.4727241600865834e-16
  outer loop
    vertex 22.275899608763694 31.999999999999964 114.29999999999997
    vertex 19.74416758703095 31.999999999999996 117.99999999999996
    vertex 22.13603901725721 31.999999999999964 114.63765333685645
  endloop
endfacet
facet normal 2.5609740494944068e-15 1.0 2.4727241600865834e-16
  outer loop
    vertex 22.13603901725721 31.999999999999964 114.63765333685645
    vertex 19.74416758703095 31.999999999999996 117.99999999999996
    vertex 22.088335174061907 31.999999999999964 114.99999999999997
  endloop
endfacet
facet normal 2.5609740494944068e-15 1.0 2.4727241600865834e-16
  outer loop
    vertex 22.088335174061907 31.999999999999964 114.99999999999997
    vertex 19.74416758703095 31.999999999999996 117.99999999999996
    vertex 22.13603901725721 31.999999999999964 115.3623466631435
  endloop
endfacet
facet normal 2.5609740494944068e-15 1.0 2.4727241600865834e-16
  outer loop
    vertex 22.13603901725721 31.999999999999964 115.3623466631435
    vertex 19.74416758703095 31.999999999999996 117.99999999999996
    vertex 22.275899608763694 31.999999999999964 115.69999999999997
  endloop
endfacet
facet normal 2.5609740494944068e-15 1.0 2.4727241600865834e-16
  outer loop
    vertex 22.275899608763694 31.999999999999964 115.69999999999997
    vertex 19.74416758703095 31.999999999999996 117.99999999999996
    vertex 22.498385680400737 31.999999999999964 115.98994949366113
  endloop
endfacet
facet normal 2.5609740494944068e-15 1.0 2.4727241600865834e-16
  outer loop
    vertex 22.498385680400737 31.999999999999964 115.98994949366113
    vertex 19.74416758703095 31.999999999999996 117.99999999999996
    vertex 22.788335174061903 31.999999999999964 116.21243556529818
  endloop
endfacet
facet normal 2.5609740494944068e-15 1.0 2.4727241600865834e-16
  outer loop
    vertex 22.788335174061903 31.999999999999964 116.21243556529818
    vertex 19.74416758703095 31.999999999999996 117.99999999999996
    vertex 23.125988510918376 31.999999999999964 116.35229615680467
  endloop
endfacet
facet normal 2.5609740494944068e-15 1.0 2.4727241600865834e-16
  outer loop
    vertex 23.125988510918376 31.999999999999964 116.35229615680467
    vertex 19.74416758703095 31.999999999999996 117.99999999999996
    vertex 23.488335174061906 31.999999999999964 116.39999999999996
  endloop
endfacet
facet normal 2.5609740494944068e-15 1.0 2.4727241600865834e-16
  outer loop
    vertex 23.488335174061906 31.999999999999964 116.39999999999996
    vertex 19.74416758703095 31.999999999999996 117.99999999999996
    vertex 23.488335174061906 32.0 117.99999999999996
  endloop
endfacet
facet normal 0.0021110041645938803 0.0046861134372778125 -0.9999867919139084
  outer loop
    vertex 19.74416758703095 31.999999999999996 0.024664999999998664
    vertex 15.999999999999998 29.500000000000004 0.0
    vertex 15.999999999999998 31.0 0.0
  endloop
endfacet
facet normal 0.0021110041645938803 0.0046861134372778125 -0.9999867919139084
  outer loop
    vertex 15.999999999999998 29.500000000000004 0.0
    vertex 19.74416758703095 31.999999999999996 0.024664999999998664
    vertex 20.0 29.500000000000004 0.0
  endloop
endfacet
facet normal 0.0021110041645938803 0.0046861134372778125 -0.9999867919139084
  outer loop
    vertex 20.0 29.500000000000004 0.0
    vertex 19.74416758703095 31.999999999999996 0.024664999999998664
    vertex 23.488335174061906 32.0 0.024664999999998664
  endloop
endfacet
facet normal 0.0021110041645938803 0.0046861134372778125 -0.9999867919139084
  outer loop
    vertex 20.0 29.500000000000004 0.0
    vertex 23.488335174061906 32.0 0.024664999999998664
    vertex 20.0 27.0 0.0
  endloop
endfacet
facet normal 0.0021110041645938803 0.0046861134372778125 -0.9999867919139084
  outer loop
    vertex 20.0 27.0 0.0
    vertex 23.488335174061906 32.0 0.024664999999998664
    vertex 23.488335174061906 27.0 0.0
  endloop
endfacet
facet normal -0.0 1.0 -0.0
  outer loop
    vertex 26.976670348123815 27.0 111.99999999999997
    vertex 47.0 27.0 0.0
    vertex 26.976670348123815 27.0 0.0
  endloop
endfacet
facet normal -0.0 1.0 -0.0
  outer loop
    vertex 47.0 27.0 0.0
    vertex 26.976670348123815 27.0 111.99999999999997
    vertex 47.0 27.0 112.0
  endloop
endfacet
facet normal 0.0 0.0 1.0
  outer loop
    vertex 26.976670348123815 27.0 117.99999999999996
    vertex 20.0 29.500000000000004 117.99999999999996
    vertex 20.0 27.0 117.99999999999996
  endloop
endfacet
facet normal 0.0 0.0 1.0
  outer loop
    vertex 20.0 29.500000000000004 117.99999999999996
    vertex 26.976670348123815 27.0 117.99999999999996
    vertex 23.488335174061906 32.0 117.99999999999996
  endloop
endfacet
facet normal 0.0 0.0 1.0
  outer loop
    vertex 23.488335174061906 32.0 117.99999999999996
    vertex 26.976670348123815 27.0 117.99999999999996
    vertex 26.976670348123815 29.500000000000004 117.99999999999996
  endloop
endfacet
facet normal 0.0 0.0 1.0
  outer loop
    vertex 23.488335174061906 32.0 117.99999999999996
    vertex 26.976670348123815 29.500000000000004 117.99999999999996
    vertex 27.23250276109286 31.999999999999996 117.99999999999996
  endloop
endfacet
facet normal 0.0 0.0 1.0
  outer loop
    vertex 27.23250276109286 31.999999999999996 117.99999999999996
    vertex 26.976670348123815 29.500000000000004 117.99999999999996
    vertex 30.97667034812381 29.500000000000004 117.99999999999996
  endloop
endfacet
facet normal 0.0 0.0 1.0
  outer loop
    vertex 27.23250276109286 31.999999999999996 117.99999999999996
    vertex 30.97667034812381 29.500000000000004 117.99999999999996
    vertex 30.97667034812381 31.0 117.99999999999996
  endloop
endfacet
facet normal 0.0 0.0 1.0
  outer loop
    vertex 20.0 29.500000000000004 117.99999999999996
    vertex 15.999999999999998 31.0 117.99999999999996
    vertex 15.999999999999998 29.500000000000004 117.99999999999996
  endloop
endfacet
facet normal 0.0 0.0 1.0
  outer loop
    vertex 15.999999999999998 31.0 117.99999999999996
    vertex 20.0 29.500000000000004 117.99999999999996
    vertex 19.74416758703095 31.999999999999996 117.99999999999996
  endloop
endfacet
facet normal 0.0 0.0 1.0
  outer loop
    vertex 19.74416758703095 31.999999999999996 117.99999999999996
    vertex 20.0 29.500000000000004 117.99999999999996
    vertex 23.488335174061906 32.0 117.99999999999996
  endloop
endfacet
facet normal 0.0 -1.0 0.0
  outer loop
    vertex 26.976670348123815 27.0 111.99999999999997
    vertex 24.18833517406191 27.0 113.78756443470175
    vertex 20.0 27.0 111.99999999999997
  endloop
endfacet
facet normal 0.0 -1.0 0.0
  outer loop
    vertex 24.18833517406191 27.0 113.78756443470175
    vertex 26.976670348123815 27.0 111.99999999999997
    vertex 24.478284667723074 27.0 114.01005050633881
  endloop
endfacet
facet normal 0.0 -1.0 0.0
  outer loop
    vertex 24.478284667723074 27.0 114.01005050633881
    vertex 26.976670348123815 27.0 111.99999999999997
    vertex 24.70077073936012 27.0 114.29999999999997
  endloop
endfacet
facet normal 0.0 -1.0 0.0
  outer loop
    vertex 24.70077073936012 27.0 114.29999999999997
    vertex 26.976670348123815 27.0 111.99999999999997
    vertex 26.976670348123815 27.0 117.99999999999996
  endloop
endfacet
facet normal 0.0 -1.0 0.0
  outer loop
    vertex 20.0 27.0 111.99999999999997
    vertex 24.18833517406191 27.0 113.78756443470175
    vertex 23.850681837205435 27.0 113.64770384319527
  endloop
endfacet
facet normal 0.0 -1.0 0.0
  outer loop
    vertex 20.0 27.0 111.99999999999997
    vertex 23.850681837205435 27.0 113.64770384319527
    vertex 23.488335174061906 27.0 113.59999999999997
  endloop
endfacet
facet normal 0.0 -1.0 0.0
  outer loop
    vertex 24.70077073936012 27.0 114.29999999999997
    vertex 26.976670348123815 27.0 117.99999999999996
    vertex 24.840631330866604 27.0 114.63765333685645
  endloop
endfacet
facet normal 0.0 -1.0 0.0
  outer loop
    vertex 24.840631330866604 27.0 114.63765333685645
    vertex 26.976670348123815 27.0 117.99999999999996
    vertex 24.888335174061908 27.0 114.99999999999997
  endloop
endfacet
facet normal 0.0 -1.0 0.0
  outer loop
    vertex 24.888335174061908 27.0 114.99999999999997
    vertex 26.976670348123815 27.0 117.99999999999996
    vertex 24.8406313308666 27.0 115.3623466631435
  endloop
endfacet
facet normal 0.0 -1.0 0.0
  outer loop
    vertex 24.8406313308666 27.0 115.3623466631435
    vertex 26.976670348123815 27.0 117.99999999999996
    vertex 24.70077073936012 27.0 115.69999999999997
  endloop
endfacet
facet normal 0.0 -1.0 0.0
  outer loop
    vertex 24.70077073936012 27.0 115.69999999999997
    vertex 26.976670348123815 27.0 117.99999999999996
    vertex 24.478284667723074 27.0 115.98994949366114
  endloop
endfacet
facet normal 0.0 -1.0 0.0
  outer loop
    vertex 24.478284667723074 27.0 115.98994949366114
    vertex 26.976670348123815 27.0 117.99999999999996
    vertex 24.188335174061905 27.0 116.21243556529818
  endloop
endfacet
facet normal 0.0 -1.0 0.0
  outer loop
    vertex 24.188335174061905 27.0 116.21243556529818
    vertex 26.976670348123815 27.0 117.99999999999996
    vertex 23.850681837205435 27.0 116.35229615680467
  endloop
endfacet
facet normal 0.0 -1.0 0.0
  outer loop
    vertex 23.850681837205435 27.0 116.35229615680467
    vertex 26.976670348123815 27.0 117.99999999999996
    vertex 23.488335174061906 27.0 116.39999999999996
  endloop
endfacet
facet normal 0.0 -1.0 0.0
  outer loop
    vertex 20.0 27.0 111.99999999999997
    vertex 22.275899608763694 27.0 114.29999999999997
    vertex 20.0 27.0 117.99999999999996
  endloop
endfacet
facet normal 0.0 -1.0 0.0
  outer loop
    vertex 22.275899608763694 27.0 114.29999999999997
    vertex 20.0 27.0 111.99999999999997
    vertex 22.498385680400737 27.0 114.01005050633879
  endloop
endfacet
facet normal 0.0 -1.0 0.0
  outer loop
    vertex 22.498385680400737 27.0 114.01005050633879
    vertex 20.0 27.0 111.99999999999997
    vertex 22.788335174061906 27.0 113.78756443470175
  endloop
endfacet
facet normal 0.0 -1.0 0.0
  outer loop
    vertex 22.788335174061906 27.0 113.78756443470175
    vertex 20.0 27.0 111.99999999999997
    vertex 23.12598851091838 27.0 113.64770384319527
  endloop
endfacet
facet normal 0.0 -1.0 0.0
  outer loop
    vertex 23.12598851091838 27.0 113.64770384319527
    vertex 20.0 27.0 111.99999999999997
    vertex 23.488335174061906 27.0 113.59999999999997
  endloop
endfacet
facet normal 0.0 -1.0 0.0
  outer loop
    vertex 20.0 27.0 117.99999999999996
    vertex 22.275899608763694 27.0 114.29999999999997
    vertex 22.13603901725721 27.0 114.63765333685645
  endloop
endfacet
facet normal 0.0 -1.0 0.0
  outer loop
    vertex 20.0 27.0 117.99999999999996
    vertex 22.13603901725721 27.0 114.63765333685645
    vertex 22.088335174061907 27.0 114.99999999999997
  endloop
endfacet
facet normal 0.0 -1.0 0.0
  outer loop
    vertex 20.0 27.0 117.99999999999996
    vertex 22.088335174061907 27.0 114.99999999999997
    vertex 22.13603901725721 27.0 115.3623466631435
  endloop
endfacet
facet normal 0.0 -1.0 0.0
  outer loop
    vertex 20.0 27.0 117.99999999999996
    vertex 22.13603901725721 27.0 115.3623466631435
    vertex 22.275899608763694 27.0 115.69999999999997
  endloop
endfacet
facet normal 0.0 -1.0 0.0
  outer loop
    vertex 20.0 27.0 117.99999999999996
    vertex 22.275899608763694 27.0 115.69999999999997
    vertex 22.498385680400737 27.0 115.98994949366113
  endloop
endfacet
facet normal 0.0 -1.0 0.0
  outer loop
    vertex 20.0 27.0 117.99999999999996
    vertex 22.498385680400737 27.0 115.98994949366113
    vertex 22.788335174061903 27.0 116.21243556529818
  endloop
endfacet
facet normal 0.0 -1.0 0.0
  outer loop
    vertex 20.0 27.0 117.99999999999996
    vertex 22.788335174061903 27.0 116.21243556529818
    vertex 23.125988510918376 27.0 116.35229615680467
  endloop
endfacet
facet normal 0.0 -1.0 0.0
  outer loop
    vertex 20.0 27.0 117.99999999999996
    vertex 23.125988510918376 27.0 116.35229615680467
    vertex 23.488335174061906 27.0 116.39999999999996
  endloop
endfacet
facet normal 0.0 -1.0 0.0
  outer loop
    vertex 20.0 27.0 117.99999999999996
    vertex 23.488335174061906 27.0 116.39999999999996
    vertex 26.976670348123815 27.0 117.99999999999996
  endloop
endfacet
facet normal -0.6087614290087446 -0.0 0.7933533402912167
  outer loop
    vertex 24.478284667723074 27.0 114.01005050633881
    vertex 24.18833517406191 31.999999999999964 113.78756443470175
    vertex 24.18833517406191 27.0 113.78756443470175
  endloop
endfacet
facet normal -0.6087614290087446 -0.0 0.7933533402912167
  outer loop
    vertex 24.18833517406191 31.999999999999964 113.78756443470175
    vertex 24.478284667723074 27.0 114.01005050633881
    vertex 24.478284667723074 31.999999999999964 114.01005050633881
  endloop
endfacet
facet normal -0.7933533402912232 -0.0 0.6087614290087364
  outer loop
    vertex 24.70077073936012 31.999999999999964 114.29999999999997
    vertex 24.478284667723074 27.0 114.01005050633881
    vertex 24.70077073936012 27.0 114.29999999999997
  endloop
endfacet
facet normal -0.7933533402912232 -0.0 0.6087614290087364
  outer loop
    vertex 24.478284667723074 27.0 114.01005050633881
    vertex 24.70077073936012 31.999999999999964 114.29999999999997
    vertex 24.478284667723074 31.999999999999964 114.01005050633881
  endloop
endfacet
facet normal -0.9238795325112878 -0.0 0.3826834323650873
  outer loop
    vertex 24.840631330866604 31.999999999999964 114.63765333685645
    vertex 24.70077073936012 27.0 114.29999999999997
    vertex 24.840631330866604 27.0 114.63765333685645
  endloop
endfacet
facet normal -0.9238795325112878 -0.0 0.3826834323650873
  outer loop
    vertex 24.70077073936012 27.0 114.29999999999997
    vertex 24.840631330866604 31.999999999999964 114.63765333685645
    vertex 24.70077073936012 31.999999999999964 114.29999999999997
  endloop
endfacet
facet normal -0.9914448613738109 -0.0 0.1305261922200486
  outer loop
    vertex 24.888335174061908 31.999999999999964 114.99999999999997
    vertex 24.840631330866604 27.0 114.63765333685645
    vertex 24.888335174061908 27.0 114.99999999999997
  endloop
endfacet
facet normal -0.9914448613738109 -0.0 0.1305261922200486
  outer loop
    vertex 24.840631330866604 27.0 114.63765333685645
    vertex 24.888335174061908 31.999999999999964 114.99999999999997
    vertex 24.840631330866604 31.999999999999964 114.63765333685645
  endloop
endfacet
facet normal -0.9914448613738098 -0.0 -0.13052619222005618
  outer loop
    vertex 24.8406313308666 31.999999999999964 115.3623466631435
    vertex 24.888335174061908 27.0 114.99999999999997
    vertex 24.8406313308666 27.0 115.3623466631435
  endloop
endfacet
facet normal -0.9914448613738098 -0.0 -0.13052619222005618
  outer loop
    vertex 24.888335174061908 27.0 114.99999999999997
    vertex 24.8406313308666 31.999999999999964 115.3623466631435
    vertex 24.888335174061908 31.999999999999964 114.99999999999997
  endloop
endfacet
facet normal -0.9238795325112878 -0.0 -0.3826834323650873
  outer loop
    vertex 24.70077073936012 31.999999999999964 115.69999999999997
    vertex 24.8406313308666 27.0 115.3623466631435
    vertex 24.70077073936012 27.0 115.69999999999997
  endloop
endfacet
facet normal -0.9238795325112878 -0.0 -0.3826834323650873
  outer loop
    vertex 24.8406313308666 27.0 115.3623466631435
    vertex 24.70077073936012 31.999999999999964 115.69999999999997
    vertex 24.8406313308666 31.999999999999964 115.3623466631435
  endloop
endfacet
facet normal -0.7933533402912498 -0.0 -0.6087614290087018
  outer loop
    vertex 24.478284667723074 31.999999999999964 115.98994949366114
    vertex 24.70077073936012 27.0 115.69999999999997
    vertex 24.478284667723074 27.0 115.98994949366114
  endloop
endfacet
facet normal -0.7933533402912498 -0.0 -0.6087614290087018
  outer loop
    vertex 24.70077073936012 27.0 115.69999999999997
    vertex 24.478284667723074 31.999999999999964 115.98994949366114
    vertex 24.70077073936012 31.999999999999964 115.69999999999997
  endloop
endfacet
facet normal -0.6087614290087021 -0.0 -0.7933533402912495
  outer loop
    vertex 24.478284667723074 31.999999999999964 115.98994949366114
    vertex 24.188335174061905 27.0 116.21243556529818
    vertex 24.188335174061905 31.999999999999964 116.21243556529818
  endloop
endfacet
facet normal -0.6087614290087021 -0.0 -0.7933533402912495
  outer loop
    vertex 24.188335174061905 27.0 116.21243556529818
    vertex 24.478284667723074 31.999999999999964 115.98994949366114
    vertex 24.478284667723074 27.0 115.98994949366114
  endloop
endfacet
facet normal -0.38268343236510316 -0.0 -0.9238795325112812
  outer loop
    vertex 24.188335174061905 31.999999999999964 116.21243556529818
    vertex 23.850681837205435 27.0 116.35229615680467
    vertex 23.850681837205435 31.999999999999964 116.35229615680467
  endloop
endfacet
facet normal -0.38268343236510316 -0.0 -0.9238795325112812
  outer loop
    vertex 23.850681837205435 27.0 116.35229615680467
    vertex 24.188335174061905 31.999999999999964 116.21243556529818
    vertex 24.188335174061905 27.0 116.21243556529818
  endloop
endfacet
facet normal -0.13052619222002484 3.4674984604253233e-19 -0.991444861373814
  outer loop
    vertex 23.850681837205435 31.999999999999964 116.35229615680467
    vertex 23.488335174061906 27.0 116.39999999999996
    vertex 23.488335174061906 31.999999999999964 116.39999999999996
  endloop
endfacet
facet normal -0.13052619222002484 3.4674984604253233e-19 -0.991444861373814
  outer loop
    vertex 23.488335174061906 27.0 116.39999999999996
    vertex 23.850681837205435 31.999999999999964 116.35229615680467
    vertex 23.850681837205435 27.0 116.35229615680467
  endloop
endfacet
facet normal 0.13052619222002387 -1.8454020119228568e-20 -0.9914448613738143
  outer loop
    vertex 23.488335174061906 31.999999999999964 116.39999999999996
    vertex 23.125988510918376 27.0 116.35229615680467
    vertex 23.125988510918376 31.999999999999964 116.35229615680467
  endloop
endfacet
facet normal 0.13052619222002387 -1.8454020119228568e-20 -0.9914448613738143
  outer loop
    vertex 23.125988510918376 27.0 116.35229615680467
    vertex 23.488335174061906 31.999999999999964 116.39999999999996
    vertex 23.488335174061906 27.0 116.39999999999996
  endloop
endfacet
facet normal 0.38268343236510316 -0.0 -0.9238795325112812
  outer loop
    vertex 23.125988510918376 31.999999999999964 116.35229615680467
    vertex 22.788335174061903 27.0 116.21243556529818
    vertex 22.788335174061903 31.999999999999964 116.21243556529818
  endloop
endfacet
facet normal 0.38268343236510316 -0.0 -0.9238795325112812
  outer loop
    vertex 22.788335174061903 27.0 116.21243556529818
    vertex 23.125988510918376 31.999999999999964 116.35229615680467
    vertex 23.125988510918376 27.0 116.35229615680467
  endloop
endfacet
facet normal 0.6087614290087446 -0.0 -0.7933533402912167
  outer loop
    vertex 22.788335174061903 31.999999999999964 116.21243556529818
    vertex 22.498385680400737 27.0 115.98994949366113
    vertex 22.498385680400737 31.999999999999964 115.98994949366113
  endloop
endfacet
facet normal 0.6087614290087446 -0.0 -0.7933533402912167
  outer loop
    vertex 22.498385680400737 27.0 115.98994949366113
    vertex 22.788335174061903 31.999999999999964 116.21243556529818
    vertex 22.788335174061903 27.0 116.21243556529818
  endloop
endfacet
facet normal 0.7933533402912268 -0.0 -0.6087614290087316
  outer loop
    vertex 22.275899608763694 31.999999999999964 115.69999999999997
    vertex 22.498385680400737 27.0 115.98994949366113
    vertex 22.275899608763694 27.0 115.69999999999997
  endloop
endfacet
facet normal 0.7933533402912268 -0.0 -0.6087614290087316
  outer loop
    vertex 22.498385680400737 27.0 115.98994949366113
    vertex 22.275899608763694 31.999999999999964 115.69999999999997
    vertex 22.498385680400737 31.999999999999964 115.98994949366113
  endloop
endfacet
facet normal 0.9238795325112878 -0.0 -0.3826834323650873
  outer loop
    vertex 22.13603901725721 31.999999999999964 115.3623466631435
    vertex 22.275899608763694 27.0 115.69999999999997
    vertex 22.13603901725721 27.0 115.3623466631435
  endloop
endfacet
facet normal 0.9238795325112878 -0.0 -0.3826834323650873
  outer loop
    vertex 22.275899608763694 27.0 115.69999999999997
    vertex 22.13603901725721 31.999999999999964 115.3623466631435
    vertex 22.275899608763694 31.999999999999964 115.69999999999997
  endloop
endfacet
facet normal 0.9914448613738098 -0.0 -0.13052619222005618
  outer loop
    vertex 22.088335174061907 31.999999999999964 114.99999999999997
    vertex 22.13603901725721 27.0 115.3623466631435
    vertex 22.088335174061907 27.0 114.99999999999997
  endloop
endfacet
facet normal 0.9914448613738098 -0.0 -0.13052619222005618
  outer loop
    vertex 22.13603901725721 27.0 115.3623466631435
    vertex 22.088335174061907 31.999999999999964 114.99999999999997
    vertex 22.13603901725721 31.999999999999964 115.3623466631435
  endloop
endfacet
facet normal 0.9914448613738098 0.0 0.13052619222005618
  outer loop
    vertex 22.13603901725721 31.999999999999964 114.63765333685645
    vertex 22.088335174061907 27.0 114.99999999999997
    vertex 22.13603901725721 27.0 114.63765333685645
  endloop
endfacet
facet normal 0.9914448613738098 0.0 0.13052619222005618
  outer loop
    vertex 22.088335174061907 27.0 114.99999999999997
    vertex 22.13603901725721 31.999999999999964 114.63765333685645
    vertex 22.088335174061907 31.999999999999964 114.99999999999997
  endloop
endfacet
facet normal 0.9238795325112878 0.0 0.3826834323650873
  outer loop
    vertex 22.275899608763694 31.999999999999964 114.29999999999997
    vertex 22.13603901725721 27.0 114.63765333685645
    vertex 22.275899608763694 27.0 114.29999999999997
  endloop
endfacet
facet normal 0.9238795325112878 0.0 0.3826834323650873
  outer loop
    vertex 22.13603901725721 27.0 114.63765333685645
    vertex 22.275899608763694 31.999999999999964 114.29999999999997
    vertex 22.13603901725721 31.999999999999964 114.63765333685645
  endloop
endfacet
facet normal 0.7933533402912498 0.0 0.6087614290087018
  outer loop
    vertex 22.498385680400737 31.999999999999964 114.01005050633879
    vertex 22.275899608763694 27.0 114.29999999999997
    vertex 22.498385680400737 27.0 114.01005050633879
  endloop
endfacet
facet normal 0.7933533402912498 0.0 0.6087614290087018
  outer loop
    vertex 22.275899608763694 27.0 114.29999999999997
    vertex 22.498385680400737 31.999999999999964 114.01005050633879
    vertex 22.275899608763694 31.999999999999964 114.29999999999997
  endloop
endfacet
facet normal 0.6087614290087021 0.0 0.7933533402912495
  outer loop
    vertex 22.788335174061906 27.0 113.78756443470175
    vertex 22.498385680400737 31.999999999999964 114.01005050633879
    vertex 22.498385680400737 27.0 114.01005050633879
  endloop
endfacet
facet normal 0.6087614290087021 0.0 0.7933533402912495
  outer loop
    vertex 22.498385680400737 31.999999999999964 114.01005050633879
    vertex 22.788335174061906 27.0 113.78756443470175
    vertex 22.788335174061906 31.999999999999964 113.78756443470175
  endloop
endfacet
facet normal 0.38268343236510316 0.0 0.9238795325112812
  outer loop
    vertex 23.12598851091838 27.0 113.64770384319527
    vertex 22.788335174061906 31.999999999999964 113.78756443470175
    vertex 22.788335174061906 27.0 113.78756443470175
  endloop
endfacet
facet normal 0.38268343236510316 0.0 0.9238795325112812
  outer loop
    vertex 22.788335174061906 31.999999999999964 113.78756443470175
    vertex 23.12598851091838 27.0 113.64770384319527
    vertex 23.12598851091838 31.999999999999964 113.64770384319527
  endloop
endfacet
facet normal 0.13052619222002484 3.467498460426984e-19 0.991444861373814
  outer loop
    vertex 23.488335174061906 27.0 113.59999999999997
    vertex 23.12598851091838 31.999999999999964 113.64770384319527
    vertex 23.12598851091838 27.0 113.64770384319527
  endloop
endfacet
facet normal 0.13052619222002484 3.467498460426984e-19 0.991444861373814
  outer loop
    vertex 23.12598851091838 31.999999999999964 113.64770384319527
    vertex 23.488335174061906 27.0 113.59999999999997
    vertex 23.488335174061906 31.999999999999964 113.59999999999997
  endloop
endfacet
facet normal -0.13052619222002387 7.119537122044594e-19 0.9914448613738143
  outer loop
    vertex 23.850681837205435 27.0 113.64770384319527
    vertex 23.488335174061906 31.999999999999964 113.59999999999997
    vertex 23.488335174061906 27.0 113.59999999999997
  endloop
endfacet
facet normal -0.13052619222002387 7.119537122044594e-19 0.9914448613738143
  outer loop
    vertex 23.488335174061906 31.999999999999964 113.59999999999997
    vertex 23.850681837205435 27.0 113.64770384319527
    vertex 23.850681837205435 31.999999999999964 113.64770384319527
  endloop
endfacet
facet normal -0.38268343236510316 -0.0 0.9238795325112812
  outer loop
    vertex 24.18833517406191 27.0 113.78756443470175
    vertex 23.850681837205435 31.999999999999964 113.64770384319527
    vertex 23.850681837205435 27.0 113.64770384319527
  endloop
endfacet
facet normal -0.38268343236510316 -0.0 0.9238795325112812
  outer loop
    vertex 23.850681837205435 31.999999999999964 113.64770384319527
    vertex 24.18833517406191 27.0 113.78756443470175
    vertex 24.18833517406191 31.999999999999964 113.78756443470175
  endloop
endfacet
facet normal 0.0 -1.0 0.0
  outer loop
    vertex 24.276457135307563 -3.0 94.1022225211328
    vertex 22.72354286469244 -3.0 94.1022225211328
    vertex 23.5 -3.0 94.00000000000001
  endloop
endfacet
facet normal 0.0 -1.0 0.0
  outer loop
    vertex 22.72354286469244 -3.0 94.1022225211328
    vertex 24.276457135307563 -3.0 94.1022225211328
    vertex 25.0 -3.0 94.40192378864668
  endloop
endfacet
facet normal 0.0 -1.0 0.0
  outer loop
    vertex 22.72354286469244 -3.0 94.1022225211328
    vertex 25.0 -3.0 94.40192378864668
    vertex 22.000000000000004 -3.0 94.40192378864668
  endloop
endfacet
facet normal 0.0 -1.0 0.0
  outer loop
    vertex 22.000000000000004 -3.0 94.40192378864668
    vertex 25.0 -3.0 94.40192378864668
    vertex 25.62132034355964 -3.0 94.87867965644037
  endloop
endfacet
facet normal 0.0 -1.0 0.0
  outer loop
    vertex 22.000000000000004 -3.0 94.40192378864668
    vertex 25.62132034355964 -3.0 94.87867965644037
    vertex 21.37867965644036 -3.0 94.87867965644037
  endloop
endfacet
facet normal 0.0 -1.0 0.0
  outer loop
    vertex 21.37867965644036 -3.0 94.87867965644037
    vertex 25.62132034355964 -3.0 94.87867965644037
    vertex 26.098076211353312 -3.0 95.5
  endloop
endfacet
facet normal 0.0 -1.0 0.0
  outer loop
    vertex 21.37867965644036 -3.0 94.87867965644037
    vertex 26.098076211353312 -3.0 95.5
    vertex 20.901923788646684 -3.0 95.5
  endloop
endfacet
facet normal 0.0 -1.0 0.0
  outer loop
    vertex 20.901923788646684 -3.0 95.5
    vertex 26.098076211353312 -3.0 95.5
    vertex 26.3977774788672 -3.0 96.22354286469245
  endloop
endfacet
facet normal 0.0 -1.0 0.0
  outer loop
    vertex 20.901923788646684 -3.0 95.5
    vertex 26.3977774788672 -3.0 96.22354286469245
    vertex 20.6022225211328 -3.0 96.22354286469245
  endloop
endfacet
facet normal 0.0 -1.0 0.0
  outer loop
    vertex 20.6022225211328 -3.0 96.22354286469245
    vertex 26.3977774788672 -3.0 96.22354286469245
    vertex 26.499999999999996 -3.0 97.0
  endloop
endfacet
facet normal 0.0 -1.0 0.0
  outer loop
    vertex 20.6022225211328 -3.0 96.22354286469245
    vertex 26.499999999999996 -3.0 97.0
    vertex 20.500000000000004 -3.0 97.0
  endloop
endfacet
facet normal 0.0 -1.0 0.0
  outer loop
    vertex 20.500000000000004 -3.0 97.0
    vertex 26.499999999999996 -3.0 97.0
    vertex 26.3977774788672 -3.0 97.77645713530757
  endloop
endfacet
facet normal 0.0 -1.0 0.0
  outer loop
    vertex 20.500000000000004 -3.0 97.0
    vertex 26.3977774788672 -3.0 97.77645713530757
    vertex 20.6022225211328 -3.0 97.77645713530757
  endloop
endfacet
facet normal 0.0 -1.0 0.0
  outer loop
    vertex 20.6022225211328 -3.0 97.77645713530757
    vertex 26.3977774788672 -3.0 97.77645713530757
    vertex 20.901923788646684 -3.0 98.5
  endloop
endfacet
facet normal 0.0 -1.0 0.0
  outer loop
    vertex 20.901923788646684 -3.0 98.5
    vertex 26.3977774788672 -3.0 97.77645713530757
    vertex 26.098076211353312 -3.0 98.5
  endloop
endfacet
facet normal 0.0 -1.0 0.0
  outer loop
    vertex 20.901923788646684 -3.0 98.5
    vertex 26.098076211353312 -3.0 98.5
    vertex 25.62132034355964 -3.0 99.12132034355965
  endloop
endfacet
facet normal 0.0 -1.0 0.0
  outer loop
    vertex 20.901923788646684 -3.0 98.5
    vertex 25.62132034355964 -3.0 99.12132034355965
    vertex 21.378679656440358 -3.0 99.12132034355965
  endloop
endfacet
facet normal 0.0 -1.0 0.0
  outer loop
    vertex 21.378679656440358 -3.0 99.12132034355965
    vertex 25.62132034355964 -3.0 99.12132034355965
    vertex 24.999999999999996 -3.0 99.59807621135332
  endloop
endfacet
facet normal 0.0 -1.0 0.0
  outer loop
    vertex 21.378679656440358 -3.0 99.12132034355965
    vertex 24.999999999999996 -3.0 99.59807621135332
    vertex 22.0 -3.0 99.59807621135332
  endloop
endfacet
facet normal 0.0 -1.0 0.0
  outer loop
    vertex 22.0 -3.0 99.59807621135332
    vertex 24.999999999999996 -3.0 99.59807621135332
    vertex 24.27645713530756 -3.0 99.89777747886721
  endloop
endfacet
facet normal 0.0 -1.0 0.0
  outer loop
    vertex 22.0 -3.0 99.59807621135332
    vertex 24.27645713530756 -3.0 99.89777747886721
    vertex 22.723542864692437 -3.0 99.89777747886721
  endloop
endfacet
facet normal 0.0 -1.0 0.0
  outer loop
    vertex 22.723542864692437 -3.0 99.89777747886721
    vertex 24.27645713530756 -3.0 99.89777747886721
    vertex 23.5 -3.0 100.0
  endloop
endfacet
facet normal 0.38268343236509444 0.0 0.923879532511285
  outer loop
    vertex 24.999999999999996 -3.0 99.59807621135332
    vertex 24.27645713530756 0.0 99.89777747886721
    vertex 24.27645713530756 -3.0 99.89777747886721
  endloop
endfacet
facet normal 0.38268343236509444 0.0 0.923879532511285
  outer loop
    vertex 24.27645713530756 0.0 99.89777747886721
    vertex 24.999999999999996 -3.0 99.59807621135332
    vertex 24.999999999999996 0.0 99.59807621135332
  endloop
endfacet
facet normal 0.13052619222004508 0.0 0.9914448613738114
  outer loop
    vertex 24.27645713530756 -3.0 99.89777747886721
    vertex 23.5 0.0 100.0
    vertex 23.5 -3.0 100.0
  endloop
endfacet
facet normal 0.13052619222004508 0.0 0.9914448613738114
  outer loop
    vertex 23.5 0.0 100.0
    vertex 24.27645713530756 -3.0 99.89777747886721
    vertex 24.27645713530756 0.0 99.89777747886721
  endloop
endfacet
facet normal -0.1305261922200446 0.0 0.9914448613738114
  outer loop
    vertex 23.5 -3.0 100.0
    vertex 22.723542864692437 0.0 99.89777747886721
    vertex 22.723542864692437 -3.0 99.89777747886721
  endloop
endfacet
facet normal -0.1305261922200446 0.0 0.9914448613738114
  outer loop
    vertex 22.723542864692437 0.0 99.89777747886721
    vertex 23.5 -3.0 100.0
    vertex 23.5 0.0 100.0
  endloop
endfacet
facet normal -0.38268343236509444 0.0 0.923879532511285
  outer loop
    vertex 22.723542864692437 -3.0 99.89777747886721
    vertex 22.0 0.0 99.59807621135332
    vertex 22.0 -3.0 99.59807621135332
  endloop
endfacet
facet normal -0.38268343236509444 0.0 0.923879532511285
  outer loop
    vertex 22.0 0.0 99.59807621135332
    vertex 22.723542864692437 -3.0 99.89777747886721
    vertex 22.723542864692437 0.0 99.89777747886721
  endloop
endfacet
facet normal -0.6087614290087225 0.0 0.7933533402912339
  outer loop
    vertex 22.0 -3.0 99.59807621135332
    vertex 21.378679656440358 0.0 99.12132034355965
    vertex 21.378679656440358 -3.0 99.12132034355965
  endloop
endfacet
facet normal -0.6087614290087225 0.0 0.7933533402912339
  outer loop
    vertex 21.378679656440358 0.0 99.12132034355965
    vertex 22.0 -3.0 99.59807621135332
    vertex 22.0 0.0 99.59807621135332
  endloop
endfacet
facet normal -0.7933533402912343 0.0 0.608761429008722
  outer loop
    vertex 21.378679656440358 0.0 99.12132034355965
    vertex 20.901923788646684 -3.0 98.5
    vertex 21.378679656440358 -3.0 99.12132034355965
  endloop
endfacet
facet normal -0.7933533402912343 0.0 0.608761429008722
  outer loop
    vertex 20.901923788646684 -3.0 98.5
    vertex 21.378679656440358 0.0 99.12132034355965
    vertex 20.901923788646684 0.0 98.5
  endloop
endfacet
facet normal -0.923879532511288 0.0 0.38268343236508695
  outer loop
    vertex 20.901923788646684 0.0 98.5
    vertex 20.6022225211328 -3.0 97.77645713530757
    vertex 20.901923788646684 -3.0 98.5
  endloop
endfacet
facet normal -0.923879532511288 0.0 0.38268343236508695
  outer loop
    vertex 20.6022225211328 -3.0 97.77645713530757
    vertex 20.901923788646684 0.0 98.5
    vertex 20.6022225211328 0.0 97.77645713530757
  endloop
endfacet
facet normal -0.9914448613738104 0.0 0.13052619222005263
  outer loop
    vertex 20.6022225211328 0.0 97.77645713530757
    vertex 20.500000000000004 -3.0 97.0
    vertex 20.6022225211328 -3.0 97.77645713530757
  endloop
endfacet
facet normal -0.9914448613738104 0.0 0.13052619222005263
  outer loop
    vertex 20.500000000000004 -3.0 97.0
    vertex 20.6022225211328 0.0 97.77645713530757
    vertex 20.500000000000004 0.0 97.0
  endloop
endfacet
facet normal -0.9914448613738104 -0.0 -0.13052619222005263
  outer loop
    vertex 20.500000000000004 0.0 97.0
    vertex 20.6022225211328 -3.0 96.22354286469245
    vertex 20.500000000000004 -3.0 97.0
  endloop
endfacet
facet normal -0.9914448613738104 -0.0 -0.13052619222005263
  outer loop
    vertex 20.6022225211328 -3.0 96.22354286469245
    vertex 20.500000000000004 0.0 97.0
    vertex 20.6022225211328 0.0 96.22354286469245
  endloop
endfacet
facet normal -0.923879532511288 -0.0 -0.38268343236508695
  outer loop
    vertex 20.6022225211328 0.0 96.22354286469245
    vertex 20.901923788646684 -3.0 95.5
    vertex 20.6022225211328 -3.0 96.22354286469245
  endloop
endfacet
facet normal -0.923879532511288 -0.0 -0.38268343236508695
  outer loop
    vertex 20.901923788646684 -3.0 95.5
    vertex 20.6022225211328 0.0 96.22354286469245
    vertex 20.901923788646684 0.0 95.5
  endloop
endfacet
facet normal -0.7933533402912326 -0.0 -0.6087614290087243
  outer loop
    vertex 20.901923788646684 0.0 95.5
    vertex 21.37867965644036 -3.0 94.87867965644037
    vertex 20.901923788646684 -3.0 95.5
  endloop
endfacet
facet normal -0.7933533402912326 -0.0 -0.6087614290087243
  outer loop
    vertex 21.37867965644036 -3.0 94.87867965644037
    vertex 20.901923788646684 0.0 95.5
    vertex 21.37867965644036 0.0 94.87867965644037
  endloop
endfacet
facet normal -0.6087614290087225 -0.0 -0.7933533402912339
  outer loop
    vertex 22.000000000000004 0.0 94.40192378864668
    vertex 21.37867965644036 -3.0 94.87867965644037
    vertex 21.37867965644036 0.0 94.87867965644037
  endloop
endfacet
facet normal -0.6087614290087225 -0.0 -0.7933533402912339
  outer loop
    vertex 21.37867965644036 -3.0 94.87867965644037
    vertex 22.000000000000004 0.0 94.40192378864668
    vertex 22.000000000000004 -3.0 94.40192378864668
  endloop
endfacet
facet normal -0.38268343236509444 -0.0 -0.923879532511285
  outer loop
    vertex 22.72354286469244 0.0 94.1022225211328
    vertex 22.000000000000004 -3.0 94.40192378864668
    vertex 22.000000000000004 0.0 94.40192378864668
  endloop
endfacet
facet normal -0.38268343236509444 -0.0 -0.923879532511285
  outer loop
    vertex 22.000000000000004 -3.0 94.40192378864668
    vertex 22.72354286469244 0.0 94.1022225211328
    vertex 22.72354286469244 -3.0 94.1022225211328
  endloop
endfacet
facet normal -0.13052619222004508 -0.0 -0.9914448613738114
  outer loop
    vertex 23.5 0.0 94.00000000000001
    vertex 22.72354286469244 -3.0 94.1022225211328
    vertex 22.72354286469244 0.0 94.1022225211328
  endloop
endfacet
facet normal -0.13052619222004508 -0.0 -0.9914448613738114
  outer loop
    vertex 22.72354286469244 -3.0 94.1022225211328
    vertex 23.5 0.0 94.00000000000001
    vertex 23.5 -3.0 94.00000000000001
  endloop
endfacet
facet normal 0.1305261922200446 0.0 -0.9914448613738114
  outer loop
    vertex 24.276457135307563 0.0 94.1022225211328
    vertex 23.5 -3.0 94.00000000000001
    vertex 23.5 0.0 94.00000000000001
  endloop
endfacet
facet normal 0.1305261922200446 0.0 -0.9914448613738114
  outer loop
    vertex 23.5 -3.0 94.00000000000001
    vertex 24.276457135307563 0.0 94.1022225211328
    vertex 24.276457135307563 -3.0 94.1022225211328
  endloop
endfacet
facet normal 0.38268343236509444 0.0 -0.923879532511285
  outer loop
    vertex 25.0 0.0 94.40192378864668
    vertex 24.276457135307563 -3.0 94.1022225211328
    vertex 24.276457135307563 0.0 94.1022225211328
  endloop
endfacet
facet normal 0.38268343236509444 0.0 -0.923879532511285
  outer loop
    vertex 24.276457135307563 -3.0 94.1022225211328
    vertex 25.0 0.0 94.40192378864668
    vertex 25.0 -3.0 94.40192378864668
  endloop
endfacet
facet normal 0.6087614290087243 0.0 -0.7933533402912326
  outer loop
    vertex 25.62132034355964 0.0 94.87867965644037
    vertex 25.0 -3.0 94.40192378864668
    vertex 25.0 0.0 94.40192378864668
  endloop
endfacet
facet normal 0.6087614290087243 0.0 -0.7933533402912326
  outer loop
    vertex 25.0 -3.0 94.40192378864668
    vertex 25.62132034355964 0.0 94.87867965644037
    vertex 25.62132034355964 -3.0 94.87867965644037
  endloop
endfacet
facet normal 0.7933533402912326 0.0 -0.6087614290087243
  outer loop
    vertex 25.62132034355964 0.0 94.87867965644037
    vertex 26.098076211353312 -3.0 95.5
    vertex 25.62132034355964 -3.0 94.87867965644037
  endloop
endfacet
facet normal 0.7933533402912326 0.0 -0.6087614290087243
  outer loop
    vertex 26.098076211353312 -3.0 95.5
    vertex 25.62132034355964 0.0 94.87867965644037
    vertex 26.098076211353312 0.0 95.5
  endloop
endfacet
facet normal 0.923879532511288 0.0 -0.38268343236508695
  outer loop
    vertex 26.098076211353312 0.0 95.5
    vertex 26.3977774788672 -3.0 96.22354286469245
    vertex 26.098076211353312 -3.0 95.5
  endloop
endfacet
facet normal 0.923879532511288 0.0 -0.38268343236508695
  outer loop
    vertex 26.3977774788672 -3.0 96.22354286469245
    vertex 26.098076211353312 0.0 95.5
    vertex 26.3977774788672 0.0 96.22354286469245
  endloop
endfacet
facet normal 0.9914448613738104 0.0 -0.13052619222005263
  outer loop
    vertex 26.3977774788672 0.0 96.22354286469245
    vertex 26.499999999999996 -3.0 97.0
    vertex 26.3977774788672 -3.0 96.22354286469245
  endloop
endfacet
facet normal 0.9914448613738104 0.0 -0.13052619222005263
  outer loop
    vertex 26.499999999999996 -3.0 97.0
    vertex 26.3977774788672 0.0 96.22354286469245
    vertex 26.499999999999996 0.0 97.0
  endloop
endfacet
facet normal 0.9914448613738105 0.0 0.13052619222005074
  outer loop
    vertex 26.499999999999996 0.0 97.0
    vertex 26.3977774788672 -3.0 97.77645713530757
    vertex 26.499999999999996 -3.0 97.0
  endloop
endfacet
facet normal 0.9914448613738105 0.0 0.13052619222005074
  outer loop
    vertex 26.3977774788672 -3.0 97.77645713530757
    vertex 26.499999999999996 0.0 97.0
    vertex 26.3977774788672 0.0 97.77645713530757
  endloop
endfacet
facet normal 0.9238795325112859 0.0 0.38268343236509206
  outer loop
    vertex 26.3977774788672 0.0 97.77645713530757
    vertex 26.098076211353312 -3.0 98.5
    vertex 26.3977774788672 -3.0 97.77645713530757
  endloop
endfacet
facet normal 0.9238795325112859 0.0 0.38268343236509206
  outer loop
    vertex 26.098076211353312 -3.0 98.5
    vertex 26.3977774788672 0.0 97.77645713530757
    vertex 26.098076211353312 0.0 98.5
  endloop
endfacet
facet normal 0.7933533402912326 0.0 0.6087614290087243
  outer loop
    vertex 26.098076211353312 0.0 98.5
    vertex 25.62132034355964 -3.0 99.12132034355965
    vertex 26.098076211353312 -3.0 98.5
  endloop
endfacet
facet normal 0.7933533402912326 0.0 0.6087614290087243
  outer loop
    vertex 25.62132034355964 -3.0 99.12132034355965
    vertex 26.098076211353312 0.0 98.5
    vertex 25.62132034355964 0.0 99.12132034355965
  endloop
endfacet
facet normal 0.6087614290087225 0.0 0.7933533402912339
  outer loop
    vertex 25.62132034355964 -3.0 99.12132034355965
    vertex 24.999999999999996 0.0 99.59807621135332
    vertex 24.999999999999996 -3.0 99.59807621135332
  endloop
endfacet
facet normal 0.6087614290087225 0.0 0.7933533402912339
  outer loop
    vertex 24.999999999999996 0.0 99.59807621135332
    vertex 25.62132034355964 -3.0 99.12132034355965
    vertex 25.62132034355964 0.0 99.12132034355965
  endloop
endfacet
endsolid BatteryHolder
