solid BatteryHolder
facet normal 1.0 -0.0 -0.0
  outer loop
    vertex 130.14530113306984 30.24916669182589 0.0
    vertex 130.14530113306984 30.249166691825835 67.99999999999996
    vertex 130.14530113306984 30.249166691825824 61.99999999999996
  endloop
endfacet
facet normal 1.0 -0.0 -0.0
  outer loop
    vertex 130.14530113306984 30.249166691825835 67.99999999999996
    vertex 130.14530113306984 30.24916669182589 0.0
    vertex 130.14530113306984 32.749166691825835 67.99999999999996
  endloop
endfacet
facet normal 1.0 -0.0 -0.0
  outer loop
    vertex 130.14530113306984 32.749166691825835 67.99999999999996
    vertex 130.14530113306984 30.24916669182589 0.0
    vertex 130.14530113306984 32.74916669182589 0.0
  endloop
endfacet
facet normal 0.0 0.0 -1.0
  outer loop
    vertex 123.16863078494603 30.24916669182589 0.0
    vertex 103.16863078494602 3.249166691825891 0.0
    vertex 103.16863078494602 30.24916669182589 0.0
  endloop
endfacet
facet normal 0.0 0.0 -1.0
  outer loop
    vertex 103.16863078494602 3.249166691825891 0.0
    vertex 123.16863078494603 30.24916669182589 0.0
    vertex 150.16863078494603 3.249166691825891 0.0
  endloop
endfacet
facet normal 0.0 0.0 -1.0
  outer loop
    vertex 150.16863078494603 3.249166691825891 0.0
    vertex 123.16863078494603 30.24916669182589 0.0
    vertex 126.65696595900793 30.24916669182589 0.0
  endloop
endfacet
facet normal 0.0 0.0 -1.0
  outer loop
    vertex 150.16863078494603 3.249166691825891 0.0
    vertex 126.65696595900793 30.24916669182589 0.0
    vertex 130.14530113306984 30.24916669182589 0.0
  endloop
endfacet
facet normal 0.0 0.0 -1.0
  outer loop
    vertex 150.16863078494603 3.249166691825891 0.0
    vertex 130.14530113306984 30.24916669182589 0.0
    vertex 150.16863078494603 30.24916669182589 0.0
  endloop
endfacet
facet normal 0.25803731505075517 0.9661349512575339 -2.476896948980645e-18
  outer loop
    vertex 130.4011335460389 35.24916669182589 0.024664999999998664
    vertex 134.14530113306984 34.249166691825835 67.99999999999996
    vertex 134.14530113306984 34.24916669182589 0.0
  endloop
endfacet
facet normal 0.25803731505075517 0.9661349512575339 -2.476896948980645e-18
  outer loop
    vertex 134.14530113306984 34.249166691825835 67.99999999999996
    vertex 130.4011335460389 35.24916669182589 0.024664999999998664
    vertex 130.4011335460389 35.249166691825835 67.99999999999996
  endloop
endfacet
facet normal -0.0 1.0 -0.0
  outer loop
    vertex 103.16863078494602 30.249166691825824 62.0
    vertex 123.16863078494603 30.24916669182589 0.0
    vertex 103.16863078494602 30.24916669182589 0.0
  endloop
endfacet
facet normal -0.0 1.0 -0.0
  outer loop
    vertex 123.16863078494603 30.24916669182589 0.0
    vertex 103.16863078494602 30.249166691825824 62.0
    vertex 123.16863078494603 30.249166691825824 61.99999999999998
  endloop
endfacet
facet normal 0.0 1.0 0.0
  outer loop
    vertex 105.16863078494602 5.249166691825821 62.0
    vertex 148.16863078494603 5.249166691825891 1.9999999999999998
    vertex 105.16863078494602 5.249166691825891 1.9999999999999998
  endloop
endfacet
facet normal 0.0 1.0 0.0
  outer loop
    vertex 148.16863078494603 5.249166691825891 1.9999999999999998
    vertex 105.16863078494602 5.249166691825821 62.0
    vertex 148.16863078494603 5.249166691825821 62.0
  endloop
endfacet
facet normal 0.0 -1.0 0.0
  outer loop
    vertex 150.16863078494603 3.2491666918258217 62.0
    vertex 103.16863078494602 3.249166691825891 0.0
    vertex 150.16863078494603 3.249166691825891 0.0
  endloop
endfacet
facet normal 0.0 -1.0 0.0
  outer loop
    vertex 103.16863078494602 3.249166691825891 0.0
    vertex 150.16863078494603 3.2491666918258217 62.0
    vertex 103.16863078494602 3.2491666918258217 62.0
  endloop
endfacet
facet normal -0.25803731505075517 0.9661349512575339 -2.476896948980645e-18
  outer loop
    vertex 119.16863078494602 34.249166691825835 67.99999999999996
    vertex 122.91279837197698 35.24916669182589 0.024664999999998664
    vertex 119.16863078494602 34.24916669182589 0.0
  endloop
endfacet
facet normal -0.25803731505075517 0.9661349512575339 -2.476896948980645e-18
  outer loop
    vertex 122.91279837197698 35.24916669182589 0.024664999999998664
    vertex 119.16863078494602 34.249166691825835 67.99999999999996
    vertex 122.91279837197698 35.249166691825835 67.99999999999996
  endloop
endfacet
facet normal -1.0 0.0 0.0
  outer loop
    vertex 103.16863078494602 30.249166691825824 62.0
    vertex 103.16863078494602 3.249166691825891 0.0
    vertex 103.16863078494602 3.2491666918258217 62.0
  endloop
endfacet
facet normal -1.0 0.0 0.0
  outer loop
    vertex 103.16863078494602 3.249166691825891 0.0
    vertex 103.16863078494602 30.249166691825824 62.0
    vertex 103.16863078494602 30.24916669182589 0.0
  endloop
endfacet
facet normal 1.7083489171518864e-15 1.0 7.141679648451042e-16
  outer loop
    vertex 126.65696595900793 35.249166691825835 63.59999999999995
    vertex 130.4011335460389 35.24916669182589 0.024664999999998664
    vertex 126.65696595900793 35.24916669182589 0.024664999999998664
  endloop
endfacet
facet normal 1.7083489171518864e-15 1.0 7.141679648451042e-16
  outer loop
    vertex 130.4011335460389 35.24916669182589 0.024664999999998664
    vertex 126.65696595900793 35.249166691825835 63.59999999999995
    vertex 127.01931262215146 35.24916669182585 63.64770384319526
  endloop
endfacet
facet normal 1.7083489171518864e-15 1.0 7.141679648451042e-16
  outer loop
    vertex 130.4011335460389 35.24916669182589 0.024664999999998664
    vertex 127.01931262215146 35.24916669182585 63.64770384319526
    vertex 127.35696595900794 35.24916669182585 63.787564434701736
  endloop
endfacet
facet normal 1.7083489171518864e-15 1.0 7.141679648451042e-16
  outer loop
    vertex 130.4011335460389 35.24916669182589 0.024664999999998664
    vertex 127.35696595900794 35.24916669182585 63.787564434701736
    vertex 127.64691545266909 35.24916669182585 64.01005050633879
  endloop
endfacet
facet normal 1.7083489171518864e-15 1.0 7.141679648451042e-16
  outer loop
    vertex 130.4011335460389 35.24916669182589 0.024664999999998664
    vertex 127.64691545266909 35.24916669182585 64.01005050633879
    vertex 127.86940152430616 35.24916669182585 64.29999999999995
  endloop
endfacet
facet normal 1.7083489171518864e-15 1.0 7.141679648451042e-16
  outer loop
    vertex 130.4011335460389 35.24916669182589 0.024664999999998664
    vertex 127.86940152430616 35.24916669182585 64.29999999999995
    vertex 130.4011335460389 35.249166691825835 67.99999999999996
  endloop
endfacet
facet normal 1.7083489171518864e-15 1.0 7.141679648451042e-16
  outer loop
    vertex 130.4011335460389 35.249166691825835 67.99999999999996
    vertex 127.86940152430616 35.24916669182585 64.29999999999995
    vertex 128.00926211581265 35.24916669182585 64.63765333685642
  endloop
endfacet
facet normal 1.7083489171518864e-15 1.0 7.141679648451042e-16
  outer loop
    vertex 130.4011335460389 35.249166691825835 67.99999999999996
    vertex 128.00926211581265 35.24916669182585 64.63765333685642
    vertex 128.05696595900793 35.24916669182585 64.99999999999994
  endloop
endfacet
facet normal 1.7083489171518864e-15 1.0 7.141679648451042e-16
  outer loop
    vertex 130.4011335460389 35.249166691825835 67.99999999999996
    vertex 128.05696595900793 35.24916669182585 64.99999999999994
    vertex 128.00926211581265 35.24916669182585 65.36234666314347
  endloop
endfacet
facet normal 1.7083489171518864e-15 1.0 7.141679648451042e-16
  outer loop
    vertex 130.4011335460389 35.249166691825835 67.99999999999996
    vertex 128.00926211581265 35.24916669182585 65.36234666314347
    vertex 127.86940152430616 35.24916669182585 65.69999999999995
  endloop
endfacet
facet normal 1.7083489171518864e-15 1.0 7.141679648451042e-16
  outer loop
    vertex 130.4011335460389 35.249166691825835 67.99999999999996
    vertex 127.86940152430616 35.24916669182585 65.69999999999995
    vertex 127.64691545266909 35.24916669182585 65.98994949366111
  endloop
endfacet
facet normal 1.7083489171518864e-15 1.0 7.141679648451042e-16
  outer loop
    vertex 130.4011335460389 35.249166691825835 67.99999999999996
    vertex 127.64691545266909 35.24916669182585 65.98994949366111
    vertex 127.35696595900794 35.24916669182585 66.21243556529816
  endloop
endfacet
facet normal 1.7083489171518864e-15 1.0 7.141679648451042e-16
  outer loop
    vertex 130.4011335460389 35.249166691825835 67.99999999999996
    vertex 127.35696595900794 35.24916669182585 66.21243556529816
    vertex 127.01931262215146 35.24916669182585 66.35229615680464
  endloop
endfacet
facet normal 1.7083489171518864e-15 1.0 7.141679648451042e-16
  outer loop
    vertex 130.4011335460389 35.249166691825835 67.99999999999996
    vertex 127.01931262215146 35.24916669182585 66.35229615680464
    vertex 126.65696595900793 35.24916669182585 66.39999999999995
  endloop
endfacet
facet normal 1.7083489171518864e-15 1.0 7.141679648451042e-16
  outer loop
    vertex 130.4011335460389 35.249166691825835 67.99999999999996
    vertex 126.65696595900793 35.24916669182585 66.39999999999995
    vertex 126.65696595900793 35.249166691825835 67.99999999999996
  endloop
endfacet
facet normal 1.0 0.0 0.0
  outer loop
    vertex 105.16863078494602 5.249166691825891 1.9999999999999998
    vertex 105.16863078494602 28.249166691825824 62.0
    vertex 105.16863078494602 5.249166691825821 62.0
  endloop
endfacet
facet normal 1.0 0.0 0.0
  outer loop
    vertex 105.16863078494602 28.249166691825824 62.0
    vertex 105.16863078494602 5.249166691825891 1.9999999999999998
    vertex 105.16863078494602 28.24916669182589 1.9999999999999998
  endloop
endfacet
facet normal 0.0 0.0 1.0
  outer loop
    vertex 148.16863078494603 5.249166691825891 1.9999999999999998
    vertex 105.16863078494602 28.24916669182589 1.9999999999999998
    vertex 105.16863078494602 5.249166691825891 1.9999999999999998
  endloop
endfacet
facet normal 0.0 0.0 1.0
  outer loop
    vertex 105.16863078494602 28.24916669182589 1.9999999999999998
    vertex 148.16863078494603 5.249166691825891 1.9999999999999998
    vertex 148.16863078494603 28.24916669182589 1.9999999999999998
  endloop
endfacet
facet normal 0.0 -1.0 0.0
  outer loop
    vertex 148.16863078494603 28.249166691825824 62.0
    vertex 105.16863078494602 28.24916669182589 1.9999999999999998
    vertex 148.16863078494603 28.24916669182589 1.9999999999999998
  endloop
endfacet
facet normal 0.0 -1.0 0.0
  outer loop
    vertex 105.16863078494602 28.24916669182589 1.9999999999999998
    vertex 148.16863078494603 28.249166691825824 62.0
    vertex 105.16863078494602 28.249166691825824 62.0
  endloop
endfacet
facet normal -1.7083489171518885e-15 1.0 7.141679648451045e-16
  outer loop
    vertex 122.91279837197698 35.249166691825835 67.99999999999996
    vertex 126.65696595900793 35.24916669182589 0.024664999999998664
    vertex 122.91279837197698 35.24916669182589 0.024664999999998664
  endloop
endfacet
facet normal -1.7083489171518885e-15 1.0 7.141679648451045e-16
  outer loop
    vertex 126.65696595900793 35.24916669182589 0.024664999999998664
    vertex 122.91279837197698 35.249166691825835 67.99999999999996
    vertex 125.44453039370971 35.24916669182585 64.29999999999995
  endloop
endfacet
facet normal -1.7083489171518885e-15 1.0 7.141679648451045e-16
  outer loop
    vertex 126.65696595900793 35.24916669182589 0.024664999999998664
    vertex 125.44453039370971 35.24916669182585 64.29999999999995
    vertex 125.66701646534678 35.24916669182585 64.01005050633879
  endloop
endfacet
facet normal -1.7083489171518885e-15 1.0 7.141679648451045e-16
  outer loop
    vertex 126.65696595900793 35.24916669182589 0.024664999999998664
    vertex 125.66701646534678 35.24916669182585 64.01005050633879
    vertex 125.95696595900793 35.24916669182585 63.787564434701736
  endloop
endfacet
facet normal -1.7083489171518885e-15 1.0 7.141679648451045e-16
  outer loop
    vertex 126.65696595900793 35.24916669182589 0.024664999999998664
    vertex 125.95696595900793 35.24916669182585 63.787564434701736
    vertex 126.29461929586441 35.24916669182585 63.64770384319526
  endloop
endfacet
facet normal -1.7083489171518885e-15 1.0 7.141679648451045e-16
  outer loop
    vertex 126.65696595900793 35.24916669182589 0.024664999999998664
    vertex 126.29461929586441 35.24916669182585 63.64770384319526
    vertex 126.65696595900793 35.249166691825835 63.59999999999995
  endloop
endfacet
facet normal -1.7083489171518885e-15 1.0 7.141679648451045e-16
  outer loop
    vertex 125.44453039370971 35.24916669182585 64.29999999999995
    vertex 122.91279837197698 35.249166691825835 67.99999999999996
    vertex 125.30466980220324 35.24916669182585 64.63765333685642
  endloop
endfacet
facet normal -1.7083489171518885e-15 1.0 7.141679648451045e-16
  outer loop
    vertex 125.30466980220324 35.24916669182585 64.63765333685642
    vertex 122.91279837197698 35.249166691825835 67.99999999999996
    vertex 125.25696595900794 35.24916669182585 64.99999999999994
  endloop
endfacet
facet normal -1.7083489171518885e-15 1.0 7.141679648451045e-16
  outer loop
    vertex 125.25696595900794 35.24916669182585 64.99999999999994
    vertex 122.91279837197698 35.249166691825835 67.99999999999996
    vertex 125.30466980220324 35.24916669182585 65.36234666314347
  endloop
endfacet
facet normal -1.7083489171518885e-15 1.0 7.141679648451045e-16
  outer loop
    vertex 125.30466980220324 35.24916669182585 65.36234666314347
    vertex 122.91279837197698 35.249166691825835 67.99999999999996
    vertex 125.44453039370971 35.24916669182585 65.69999999999995
  endloop
endfacet
facet normal -1.7083489171518885e-15 1.0 7.141679648451045e-16
  outer loop
    vertex 125.44453039370971 35.24916669182585 65.69999999999995
    vertex 122.91279837197698 35.249166691825835 67.99999999999996
    vertex 125.66701646534678 35.24916669182585 65.98994949366111
  endloop
endfacet
facet normal -1.7083489171518885e-15 1.0 7.141679648451045e-16
  outer loop
    vertex 125.66701646534678 35.24916669182585 65.98994949366111
    vertex 122.91279837197698 35.249166691825835 67.99999999999996
    vertex 125.95696595900793 35.24916669182585 66.21243556529816
  endloop
endfacet
facet normal -1.7083489171518885e-15 1.0 7.141679648451045e-16
  outer loop
    vertex 125.95696595900793 35.24916669182585 66.21243556529816
    vertex 122.91279837197698 35.249166691825835 67.99999999999996
    vertex 126.29461929586441 35.24916669182585 66.35229615680464
  endloop
endfacet
facet normal -1.7083489171518885e-15 1.0 7.141679648451045e-16
  outer loop
    vertex 126.29461929586441 35.24916669182585 66.35229615680464
    vertex 122.91279837197698 35.249166691825835 67.99999999999996
    vertex 126.65696595900793 35.24916669182585 66.39999999999995
  endloop
endfacet
facet normal -1.7083489171518885e-15 1.0 7.141679648451045e-16
  outer loop
    vertex 126.65696595900793 35.24916669182585 66.39999999999995
    vertex 122.91279837197698 35.249166691825835 67.99999999999996
    vertex 126.65696595900793 35.249166691825835 67.99999999999996
  endloop
endfacet
facet normal 1.0 0.0 0.0
  outer loop
    vertex 150.16863078494603 3.249166691825891 0.0
    vertex 150.16863078494603 30.249166691825824 62.0
    vertex 150.16863078494603 3.2491666918258217 62.0
  endloop
endfacet
facet normal 1.0 0.0 0.0
  outer loop
    vertex 150.16863078494603 30.249166691825824 62.0
    vertex 150.16863078494603 3.249166691825891 0.0
    vertex 150.16863078494603 30.24916669182589 0.0
  endloop
endfacet
facet normal -1.0 -0.0 -0.0
  outer loop
    vertex 148.16863078494603 28.249166691825824 62.0
    vertex 148.16863078494603 5.249166691825891 1.9999999999999998
    vertex 148.16863078494603 5.249166691825821 62.0
  endloop
endfacet
facet normal -1.0 -0.0 -0.0
  outer loop
    vertex 148.16863078494603 5.249166691825891 1.9999999999999998
    vertex 148.16863078494603 28.249166691825824 62.0
    vertex 148.16863078494603 28.24916669182589 1.9999999999999998
  endloop
endfacet
facet normal -1.0 0.0 0.0
  outer loop
    vertex 123.16863078494603 30.249166691825835 67.99999999999997
    vertex 123.16863078494603 30.24916669182589 0.0
    vertex 123.16863078494603 30.249166691825824 61.99999999999998
  endloop
endfacet
facet normal -1.0 0.0 0.0
  outer loop
    vertex 123.16863078494603 30.24916669182589 0.0
    vertex 123.16863078494603 30.249166691825835 67.99999999999997
    vertex 123.16863078494603 32.749166691825835 67.99999999999996
  endloop
endfacet
facet normal -1.0 0.0 0.0
  outer loop
    vertex 123.16863078494603 30.24916669182589 0.0
    vertex 123.16863078494603 32.749166691825835 67.99999999999996
    vertex 123.16863078494603 32.74916669182589 0.0
  endloop
endfacet
facet normal 0.9914448613738139 8.763797313216124e-17 0.13052619222002584
  outer loop
    vertex 125.30466980220324 35.24916669182585 64.63765333685642
    vertex 125.25696595900794 30.249166691825824 64.99999999999994
    vertex 125.30466980220324 30.249166691825824 64.63765333685642
  endloop
endfacet
facet normal 0.9914448613738139 8.763797313216124e-17 0.13052619222002584
  outer loop
    vertex 125.25696595900794 30.249166691825824 64.99999999999994
    vertex 125.30466980220324 35.24916669182585 64.63765333685642
    vertex 125.25696595900794 35.24916669182585 64.99999999999994
  endloop
endfacet
facet normal -0.7933533402912196 4.0873495849347893e-16 0.608761429008741
  outer loop
    vertex 127.86940152430616 35.24916669182585 64.29999999999995
    vertex 127.64691545266909 30.249166691825824 64.01005050633879
    vertex 127.86940152430616 30.249166691825824 64.29999999999995
  endloop
endfacet
facet normal -0.7933533402912196 4.0873495849347893e-16 0.608761429008741
  outer loop
    vertex 127.64691545266909 30.249166691825824 64.01005050633879
    vertex 127.86940152430616 35.24916669182585 64.29999999999995
    vertex 127.64691545266909 35.24916669182585 64.01005050633879
  endloop
endfacet
facet normal -0.38268343236507407 -6.20311741808064e-16 -0.9238795325112933
  outer loop
    vertex 127.35696595900794 35.24916669182585 66.21243556529816
    vertex 127.01931262215146 30.249166691825824 66.35229615680464
    vertex 127.01931262215146 35.24916669182585 66.35229615680464
  endloop
endfacet
facet normal -0.38268343236507407 -6.20311741808064e-16 -0.9238795325112933
  outer loop
    vertex 127.01931262215146 30.249166691825824 66.35229615680464
    vertex 127.35696595900794 35.24916669182585 66.21243556529816
    vertex 127.35696595900794 30.249166691825824 66.21243556529816
  endloop
endfacet
facet normal 0.7933533402912196 4.0873495849347893e-16 0.608761429008741
  outer loop
    vertex 125.66701646534678 35.24916669182585 64.01005050633879
    vertex 125.44453039370971 30.249166691825824 64.29999999999995
    vertex 125.66701646534678 30.249166691825824 64.01005050633879
  endloop
endfacet
facet normal 0.7933533402912196 4.0873495849347893e-16 0.608761429008741
  outer loop
    vertex 125.44453039370971 30.249166691825824 64.29999999999995
    vertex 125.66701646534678 35.24916669182585 64.01005050633879
    vertex 125.44453039370971 35.24916669182585 64.29999999999995
  endloop
endfacet
facet normal 0.6087614290087364 5.326737686758731e-16 0.7933533402912232
  outer loop
    vertex 125.95696595900793 30.249166691825824 63.787564434701736
    vertex 125.66701646534678 35.24916669182585 64.01005050633879
    vertex 125.66701646534678 30.249166691825824 64.01005050633879
  endloop
endfacet
facet normal 0.6087614290087364 5.326737686758731e-16 0.7933533402912232
  outer loop
    vertex 125.66701646534678 35.24916669182585 64.01005050633879
    vertex 125.95696595900793 30.249166691825824 63.787564434701736
    vertex 125.95696595900793 35.24916669182585 63.787564434701736
  endloop
endfacet
facet normal 0.13052619222005618 1.3693121303796762e-19 0.9914448613738098
  outer loop
    vertex 126.65696595900793 30.24916669182582 63.59999999999995
    vertex 126.29461929586441 35.24916669182585 63.64770384319526
    vertex 126.29461929586441 30.249166691825824 63.64770384319526
  endloop
endfacet
facet normal 0.13052619222005618 1.3693121303796762e-19 0.9914448613738098
  outer loop
    vertex 126.29461929586441 35.24916669182585 63.64770384319526
    vertex 126.65696595900793 30.24916669182582 63.59999999999995
    vertex 126.65696595900793 35.249166691825835 63.59999999999995
  endloop
endfacet
facet normal -0.13052619222005618 1.3693121303796762e-19 0.9914448613738098
  outer loop
    vertex 127.01931262215146 30.249166691825824 63.64770384319526
    vertex 126.65696595900793 35.249166691825835 63.59999999999995
    vertex 126.65696595900793 30.24916669182582 63.59999999999995
  endloop
endfacet
facet normal -0.13052619222005618 1.3693121303796762e-19 0.9914448613738098
  outer loop
    vertex 126.65696595900793 35.249166691825835 63.59999999999995
    vertex 127.01931262215146 30.249166691825824 63.64770384319526
    vertex 127.01931262215146 35.24916669182585 63.64770384319526
  endloop
endfacet
facet normal 3.506016764126269e-17 6.26666791876438e-16 1.0
  outer loop
    vertex 103.16863078494602 3.2491666918258217 62.0
    vertex 105.16863078494602 5.249166691825821 62.0
    vertex 103.16863078494602 30.249166691825824 62.0
  endloop
endfacet
facet normal 3.506016764126269e-17 6.26666791876438e-16 1.0
  outer loop
    vertex 105.16863078494602 5.249166691825821 62.0
    vertex 103.16863078494602 3.2491666918258217 62.0
    vertex 150.16863078494603 3.2491666918258217 62.0
  endloop
endfacet
facet normal 3.506016764126269e-17 6.26666791876438e-16 1.0
  outer loop
    vertex 105.16863078494602 5.249166691825821 62.0
    vertex 150.16863078494603 3.2491666918258217 62.0
    vertex 148.16863078494603 5.249166691825821 62.0
  endloop
endfacet
facet normal 3.506016764126269e-17 6.26666791876438e-16 1.0
  outer loop
    vertex 148.16863078494603 5.249166691825821 62.0
    vertex 150.16863078494603 3.2491666918258217 62.0
    vertex 148.16863078494603 28.249166691825824 62.0
  endloop
endfacet
facet normal 3.506016764126269e-17 6.26666791876438e-16 1.0
  outer loop
    vertex 103.16863078494602 30.249166691825824 62.0
    vertex 105.16863078494602 28.249166691825824 62.0
    vertex 123.16863078494603 30.249166691825824 61.99999999999998
  endloop
endfacet
facet normal 3.506016764126269e-17 6.26666791876438e-16 1.0
  outer loop
    vertex 105.16863078494602 28.249166691825824 62.0
    vertex 103.16863078494602 30.249166691825824 62.0
    vertex 105.16863078494602 5.249166691825821 62.0
  endloop
endfacet
facet normal 3.506016764126269e-17 6.26666791876438e-16 1.0
  outer loop
    vertex 123.16863078494603 30.249166691825824 61.99999999999998
    vertex 105.16863078494602 28.249166691825824 62.0
    vertex 148.16863078494603 28.249166691825824 62.0
  endloop
endfacet
facet normal 3.506016764126269e-17 6.26666791876438e-16 1.0
  outer loop
    vertex 123.16863078494603 30.249166691825824 61.99999999999998
    vertex 148.16863078494603 28.249166691825824 62.0
    vertex 130.14530113306984 30.249166691825824 61.99999999999996
  endloop
endfacet
facet normal 3.506016764126269e-17 6.26666791876438e-16 1.0
  outer loop
    vertex 130.14530113306984 30.249166691825824 61.99999999999996
    vertex 148.16863078494603 28.249166691825824 62.0
    vertex 150.16863078494603 30.249166691825824 62.0
  endloop
endfacet
facet normal 3.506016764126269e-17 6.26666791876438e-16 1.0
  outer loop
    vertex 150.16863078494603 30.249166691825824 62.0
    vertex 148.16863078494603 28.249166691825824 62.0
    vertex 150.16863078494603 3.2491666918258217 62.0
  endloop
endfacet
facet normal -0.9914448613738139 8.763797313216124e-17 0.13052619222002584
  outer loop
    vertex 128.05696595900793 35.24916669182585 64.99999999999994
    vertex 128.00926211581265 30.249166691825824 64.63765333685642
    vertex 128.05696595900793 30.249166691825824 64.99999999999994
  endloop
endfacet
facet normal -0.9914448613738139 8.763797313216124e-17 0.13052619222002584
  outer loop
    vertex 128.00926211581265 30.249166691825824 64.63765333685642
    vertex 128.05696595900793 35.24916669182585 64.99999999999994
    vertex 128.00926211581265 35.24916669182585 64.63765333685642
  endloop
endfacet
facet normal 0.6087614290087364 -5.326737686758731e-16 -0.7933533402912232
  outer loop
    vertex 125.95696595900793 35.24916669182585 66.21243556529816
    vertex 125.66701646534678 30.249166691825824 65.98994949366111
    vertex 125.66701646534678 35.24916669182585 65.98994949366111
  endloop
endfacet
facet normal 0.6087614290087364 -5.326737686758731e-16 -0.7933533402912232
  outer loop
    vertex 125.66701646534678 30.249166691825824 65.98994949366111
    vertex 125.95696595900793 35.24916669182585 66.21243556529816
    vertex 125.95696595900793 30.249166691825824 66.21243556529816
  endloop
endfacet
facet normal -0.9238795325112825 2.5694153635618315e-16 0.38268343236510055
  outer loop
    vertex 128.00926211581265 35.24916669182585 64.63765333685642
    vertex 127.86940152430616 30.249166691825824 64.29999999999995
    vertex 128.00926211581265 30.249166691825824 64.63765333685642
  endloop
endfacet
facet normal -0.9238795325112825 2.5694153635618315e-16 0.38268343236510055
  outer loop
    vertex 127.86940152430616 30.249166691825824 64.29999999999995
    vertex 128.00926211581265 35.24916669182585 64.63765333685642
    vertex 127.86940152430616 35.24916669182585 64.29999999999995
  endloop
endfacet
facet normal -0.9914448613738139 -8.763797313216124e-17 -0.13052619222002584
  outer loop
    vertex 128.00926211581265 35.24916669182585 65.36234666314347
    vertex 128.05696595900793 30.249166691825824 64.99999999999994
    vertex 128.00926211581265 30.249166691825824 65.36234666314347
  endloop
endfacet
facet normal -0.9914448613738139 -8.763797313216124e-17 -0.13052619222002584
  outer loop
    vertex 128.05696595900793 30.249166691825824 64.99999999999994
    vertex 128.00926211581265 35.24916669182585 65.36234666314347
    vertex 128.05696595900793 35.24916669182585 64.99999999999994
  endloop
endfacet
facet normal 0.9238795325112825 -2.5694153635618315e-16 -0.38268343236510055
  outer loop
    vertex 125.30466980220324 35.24916669182585 65.36234666314347
    vertex 125.44453039370971 30.249166691825824 65.69999999999995
    vertex 125.30466980220324 30.249166691825824 65.36234666314347
  endloop
endfacet
facet normal 0.9238795325112825 -2.5694153635618315e-16 -0.38268343236510055
  outer loop
    vertex 125.44453039370971 30.249166691825824 65.69999999999995
    vertex 125.30466980220324 35.24916669182585 65.36234666314347
    vertex 125.44453039370971 35.24916669182585 65.69999999999995
  endloop
endfacet
facet normal 0.13052619222005618 6.993954433443667e-20 -0.9914448613738098
  outer loop
    vertex 126.65696595900793 35.24916669182585 66.39999999999995
    vertex 126.29461929586441 30.249166691825824 66.35229615680464
    vertex 126.29461929586441 35.24916669182585 66.35229615680464
  endloop
endfacet
facet normal 0.13052619222005618 6.993954433443667e-20 -0.9914448613738098
  outer loop
    vertex 126.29461929586441 30.249166691825824 66.35229615680464
    vertex 126.65696595900793 35.24916669182585 66.39999999999995
    vertex 126.65696595900793 30.24916669182583 66.39999999999995
  endloop
endfacet
facet normal -0.13052619222005618 6.993954433443667e-20 -0.9914448613738098
  outer loop
    vertex 127.01931262215146 35.24916669182585 66.35229615680464
    vertex 126.65696595900793 30.24916669182583 66.39999999999995
    vertex 126.65696595900793 35.24916669182585 66.39999999999995
  endloop
endfacet
facet normal -0.13052619222005618 6.993954433443667e-20 -0.9914448613738098
  outer loop
    vertex 126.65696595900793 30.24916669182583 66.39999999999995
    vertex 127.01931262215146 35.24916669182585 66.35229615680464
    vertex 127.01931262215146 30.249166691825824 66.35229615680464
  endloop
endfacet
facet normal -0.38268343236507407 6.20311741808064e-16 0.9238795325112933
  outer loop
    vertex 127.35696595900794 30.249166691825824 63.787564434701736
    vertex 127.01931262215146 35.24916669182585 63.64770384319526
    vertex 127.01931262215146 30.249166691825824 63.64770384319526
  endloop
endfacet
facet normal -0.38268343236507407 6.20311741808064e-16 0.9238795325112933
  outer loop
    vertex 127.01931262215146 35.24916669182585 63.64770384319526
    vertex 127.35696595900794 30.249166691825824 63.787564434701736
    vertex 127.35696595900794 35.24916669182585 63.787564434701736
  endloop
endfacet
facet normal 0.38268343236507407 -6.20311741808064e-16 -0.9238795325112933
  outer loop
    vertex 126.29461929586441 35.24916669182585 66.35229615680464
    vertex 125.95696595900793 30.249166691825824 66.21243556529816
    vertex 125.95696595900793 35.24916669182585 66.21243556529816
  endloop
endfacet
facet normal 0.38268343236507407 -6.20311741808064e-16 -0.9238795325112933
  outer loop
    vertex 125.95696595900793 30.249166691825824 66.21243556529816
    vertex 126.29461929586441 35.24916669182585 66.35229615680464
    vertex 126.29461929586441 30.249166691825824 66.35229615680464
  endloop
endfacet
facet normal 1.606366934822981e-30 1.0 1.091599928728219e-15
  outer loop
    vertex 123.16863078494603 30.249166691825824 61.99999999999998
    vertex 126.65696595900793 30.24916669182589 0.0
    vertex 123.16863078494603 30.24916669182589 0.0
  endloop
endfacet
facet normal 1.606366934822981e-30 1.0 1.091599928728219e-15
  outer loop
    vertex 126.65696595900793 30.24916669182589 0.0
    vertex 123.16863078494603 30.249166691825824 61.99999999999998
    vertex 130.14530113306984 30.24916669182589 0.0
  endloop
endfacet
facet normal 1.606366934822981e-30 1.0 1.091599928728219e-15
  outer loop
    vertex 130.14530113306984 30.24916669182589 0.0
    vertex 123.16863078494603 30.249166691825824 61.99999999999998
    vertex 130.14530113306984 30.249166691825824 61.99999999999996
  endloop
endfacet
facet normal 0.0021110041645938803 0.0046861134372778125 -0.9999867919139084
  outer loop
    vertex 122.91279837197698 35.24916669182589 0.024664999999998664
    vertex 119.16863078494602 32.74916669182589 0.0
    vertex 119.16863078494602 34.24916669182589 0.0
  endloop
endfacet
facet normal 0.0021110041645938803 0.0046861134372778125 -0.9999867919139084
  outer loop
    vertex 119.16863078494602 32.74916669182589 0.0
    vertex 122.91279837197698 35.24916669182589 0.024664999999998664
    vertex 123.16863078494603 32.74916669182589 0.0
  endloop
endfacet
facet normal 0.0021110041645938803 0.0046861134372778125 -0.9999867919139084
  outer loop
    vertex 123.16863078494603 32.74916669182589 0.0
    vertex 122.91279837197698 35.24916669182589 0.024664999999998664
    vertex 126.65696595900793 35.24916669182589 0.024664999999998664
  endloop
endfacet
facet normal 0.0021110041645938803 0.0046861134372778125 -0.9999867919139084
  outer loop
    vertex 123.16863078494603 32.74916669182589 0.0
    vertex 126.65696595900793 35.24916669182589 0.024664999999998664
    vertex 123.16863078494603 30.24916669182589 0.0
  endloop
endfacet
facet normal 0.0021110041645938803 0.0046861134372778125 -0.9999867919139084
  outer loop
    vertex 123.16863078494603 30.24916669182589 0.0
    vertex 126.65696595900793 35.24916669182589 0.024664999999998664
    vertex 126.65696595900793 30.24916669182589 0.0
  endloop
endfacet
facet normal 6.631732177217212e-30 -1.0 2.050884714580291e-15
  outer loop
    vertex 130.14530113306984 30.249166691825824 61.99999999999996
    vertex 127.35696595900794 30.249166691825824 63.787564434701736
    vertex 123.16863078494603 30.249166691825824 61.99999999999998
  endloop
endfacet
facet normal 6.631732177217212e-30 -1.0 2.050884714580291e-15
  outer loop
    vertex 127.35696595900794 30.249166691825824 63.787564434701736
    vertex 130.14530113306984 30.249166691825824 61.99999999999996
    vertex 127.64691545266909 30.249166691825824 64.01005050633879
  endloop
endfacet
facet normal 6.631732177217212e-30 -1.0 2.050884714580291e-15
  outer loop
    vertex 127.64691545266909 30.249166691825824 64.01005050633879
    vertex 130.14530113306984 30.249166691825824 61.99999999999996
    vertex 127.86940152430616 30.249166691825824 64.29999999999995
  endloop
endfacet
facet normal 6.631732177217212e-30 -1.0 2.050884714580291e-15
  outer loop
    vertex 127.86940152430616 30.249166691825824 64.29999999999995
    vertex 130.14530113306984 30.249166691825824 61.99999999999996
    vertex 130.14530113306984 30.249166691825835 67.99999999999996
  endloop
endfacet
facet normal 6.631732177217212e-30 -1.0 2.050884714580291e-15
  outer loop
    vertex 123.16863078494603 30.249166691825824 61.99999999999998
    vertex 127.35696595900794 30.249166691825824 63.787564434701736
    vertex 127.01931262215146 30.249166691825824 63.64770384319526
  endloop
endfacet
facet normal 6.631732177217212e-30 -1.0 2.050884714580291e-15
  outer loop
    vertex 123.16863078494603 30.249166691825824 61.99999999999998
    vertex 127.01931262215146 30.249166691825824 63.64770384319526
    vertex 126.65696595900793 30.24916669182582 63.59999999999995
  endloop
endfacet
facet normal 6.631732177217212e-30 -1.0 2.050884714580291e-15
  outer loop
    vertex 127.86940152430616 30.249166691825824 64.29999999999995
    vertex 130.14530113306984 30.249166691825835 67.99999999999996
    vertex 128.00926211581265 30.249166691825824 64.63765333685642
  endloop
endfacet
facet normal 6.631732177217212e-30 -1.0 2.050884714580291e-15
  outer loop
    vertex 128.00926211581265 30.249166691825824 64.63765333685642
    vertex 130.14530113306984 30.249166691825835 67.99999999999996
    vertex 128.05696595900793 30.249166691825824 64.99999999999994
  endloop
endfacet
facet normal 6.631732177217212e-30 -1.0 2.050884714580291e-15
  outer loop
    vertex 128.05696595900793 30.249166691825824 64.99999999999994
    vertex 130.14530113306984 30.249166691825835 67.99999999999996
    vertex 128.00926211581265 30.249166691825824 65.36234666314347
  endloop
endfacet
facet normal 6.631732177217212e-30 -1.0 2.050884714580291e-15
  outer loop
    vertex 128.00926211581265 30.249166691825824 65.36234666314347
    vertex 130.14530113306984 30.249166691825835 67.99999999999996
    vertex 127.86940152430616 30.249166691825824 65.69999999999995
  endloop
endfacet
facet normal 6.631732177217212e-30 -1.0 2.050884714580291e-15
  outer loop
    vertex 127.86940152430616 30.249166691825824 65.69999999999995
    vertex 130.14530113306984 30.249166691825835 67.99999999999996
    vertex 127.64691545266909 30.249166691825824 65.98994949366111
  endloop
endfacet
facet normal 6.631732177217212e-30 -1.0 2.050884714580291e-15
  outer loop
    vertex 127.64691545266909 30.249166691825824 65.98994949366111
    vertex 130.14530113306984 30.249166691825835 67.99999999999996
    vertex 127.35696595900794 30.249166691825824 66.21243556529816
  endloop
endfacet
facet normal 6.631732177217212e-30 -1.0 2.050884714580291e-15
  outer loop
    vertex 127.35696595900794 30.249166691825824 66.21243556529816
    vertex 130.14530113306984 30.249166691825835 67.99999999999996
    vertex 127.01931262215146 30.249166691825824 66.35229615680464
  endloop
endfacet
facet normal 6.631732177217212e-30 -1.0 2.050884714580291e-15
  outer loop
    vertex 127.01931262215146 30.249166691825824 66.35229615680464
    vertex 130.14530113306984 30.249166691825835 67.99999999999996
    vertex 126.65696595900793 30.24916669182583 66.39999999999995
  endloop
endfacet
facet normal 6.631732177217212e-30 -1.0 2.050884714580291e-15
  outer loop
    vertex 123.16863078494603 30.249166691825824 61.99999999999998
    vertex 125.44453039370971 30.249166691825824 64.29999999999995
    vertex 123.16863078494603 30.249166691825835 67.99999999999997
  endloop
endfacet
facet normal 6.631732177217212e-30 -1.0 2.050884714580291e-15
  outer loop
    vertex 125.44453039370971 30.249166691825824 64.29999999999995
    vertex 123.16863078494603 30.249166691825824 61.99999999999998
    vertex 125.66701646534678 30.249166691825824 64.01005050633879
  endloop
endfacet
facet normal 6.631732177217212e-30 -1.0 2.050884714580291e-15
  outer loop
    vertex 125.66701646534678 30.249166691825824 64.01005050633879
    vertex 123.16863078494603 30.249166691825824 61.99999999999998
    vertex 125.95696595900793 30.249166691825824 63.787564434701736
  endloop
endfacet
facet normal 6.631732177217212e-30 -1.0 2.050884714580291e-15
  outer loop
    vertex 125.95696595900793 30.249166691825824 63.787564434701736
    vertex 123.16863078494603 30.249166691825824 61.99999999999998
    vertex 126.29461929586441 30.249166691825824 63.64770384319526
  endloop
endfacet
facet normal 6.631732177217212e-30 -1.0 2.050884714580291e-15
  outer loop
    vertex 126.29461929586441 30.249166691825824 63.64770384319526
    vertex 123.16863078494603 30.249166691825824 61.99999999999998
    vertex 126.65696595900793 30.24916669182582 63.59999999999995
  endloop
endfacet
facet normal 6.631732177217212e-30 -1.0 2.050884714580291e-15
  outer loop
    vertex 123.16863078494603 30.249166691825835 67.99999999999997
    vertex 125.44453039370971 30.249166691825824 64.29999999999995
    vertex 125.30466980220324 30.249166691825824 64.63765333685642
  endloop
endfacet
facet normal 6.631732177217212e-30 -1.0 2.050884714580291e-15
  outer loop
    vertex 123.16863078494603 30.249166691825835 67.99999999999997
    vertex 125.30466980220324 30.249166691825824 64.63765333685642
    vertex 125.25696595900794 30.249166691825824 64.99999999999994
  endloop
endfacet
facet normal 6.631732177217212e-30 -1.0 2.050884714580291e-15
  outer loop
    vertex 123.16863078494603 30.249166691825835 67.99999999999997
    vertex 125.25696595900794 30.249166691825824 64.99999999999994
    vertex 125.30466980220324 30.249166691825824 65.36234666314347
  endloop
endfacet
facet normal 6.631732177217212e-30 -1.0 2.050884714580291e-15
  outer loop
    vertex 123.16863078494603 30.249166691825835 67.99999999999997
    vertex 125.30466980220324 30.249166691825824 65.36234666314347
    vertex 125.44453039370971 30.249166691825824 65.69999999999995
  endloop
endfacet
facet normal 6.631732177217212e-30 -1.0 2.050884714580291e-15
  outer loop
    vertex 123.16863078494603 30.249166691825835 67.99999999999997
    vertex 125.44453039370971 30.249166691825824 65.69999999999995
    vertex 125.66701646534678 30.249166691825824 65.98994949366111
  endloop
endfacet
facet normal 6.631732177217212e-30 -1.0 2.050884714580291e-15
  outer loop
    vertex 123.16863078494603 30.249166691825835 67.99999999999997
    vertex 125.66701646534678 30.249166691825824 65.98994949366111
    vertex 125.95696595900793 30.249166691825824 66.21243556529816
  endloop
endfacet
facet normal 6.631732177217212e-30 -1.0 2.050884714580291e-15
  outer loop
    vertex 123.16863078494603 30.249166691825835 67.99999999999997
    vertex 125.95696595900793 30.249166691825824 66.21243556529816
    vertex 126.29461929586441 30.249166691825824 66.35229615680464
  endloop
endfacet
facet normal 6.631732177217212e-30 -1.0 2.050884714580291e-15
  outer loop
    vertex 123.16863078494603 30.249166691825835 67.99999999999997
    vertex 126.29461929586441 30.249166691825824 66.35229615680464
    vertex 126.65696595900793 30.24916669182583 66.39999999999995
  endloop
endfacet
facet normal 6.631732177217212e-30 -1.0 2.050884714580291e-15
  outer loop
    vertex 123.16863078494603 30.249166691825835 67.99999999999997
    vertex 126.65696595900793 30.24916669182583 66.39999999999995
    vertex 130.14530113306984 30.249166691825835 67.99999999999996
  endloop
endfacet
facet normal 2.614376265569531e-16 2.050884714580291e-15 1.0
  outer loop
    vertex 130.14530113306984 30.249166691825835 67.99999999999996
    vertex 123.16863078494603 32.749166691825835 67.99999999999996
    vertex 123.16863078494603 30.249166691825835 67.99999999999997
  endloop
endfacet
facet normal 2.614376265569531e-16 2.050884714580291e-15 1.0
  outer loop
    vertex 123.16863078494603 32.749166691825835 67.99999999999996
    vertex 130.14530113306984 30.249166691825835 67.99999999999996
    vertex 126.65696595900793 35.249166691825835 67.99999999999996
  endloop
endfacet
facet normal 2.614376265569531e-16 2.050884714580291e-15 1.0
  outer loop
    vertex 126.65696595900793 35.249166691825835 67.99999999999996
    vertex 130.14530113306984 30.249166691825835 67.99999999999996
    vertex 130.14530113306984 32.749166691825835 67.99999999999996
  endloop
endfacet
facet normal 2.614376265569531e-16 2.050884714580291e-15 1.0
  outer loop
    vertex 126.65696595900793 35.249166691825835 67.99999999999996
    vertex 130.14530113306984 32.749166691825835 67.99999999999996
    vertex 130.4011335460389 35.249166691825835 67.99999999999996
  endloop
endfacet
facet normal 2.614376265569531e-16 2.050884714580291e-15 1.0
  outer loop
    vertex 130.4011335460389 35.249166691825835 67.99999999999996
    vertex 130.14530113306984 32.749166691825835 67.99999999999996
    vertex 134.14530113306984 32.749166691825835 67.99999999999996
  endloop
endfacet
facet normal 2.614376265569531e-16 2.050884714580291e-15 1.0
  outer loop
    vertex 130.4011335460389 35.249166691825835 67.99999999999996
    vertex 134.14530113306984 32.749166691825835 67.99999999999996
    vertex 134.14530113306984 34.249166691825835 67.99999999999996
  endloop
endfacet
facet normal 2.614376265569531e-16 2.050884714580291e-15 1.0
  outer loop
    vertex 123.16863078494603 32.749166691825835 67.99999999999996
    vertex 119.16863078494602 34.249166691825835 67.99999999999996
    vertex 119.16863078494602 32.749166691825835 67.99999999999996
  endloop
endfacet
facet normal 2.614376265569531e-16 2.050884714580291e-15 1.0
  outer loop
    vertex 119.16863078494602 34.249166691825835 67.99999999999996
    vertex 123.16863078494603 32.749166691825835 67.99999999999996
    vertex 122.91279837197698 35.249166691825835 67.99999999999996
  endloop
endfacet
facet normal 2.614376265569531e-16 2.050884714580291e-15 1.0
  outer loop
    vertex 122.91279837197698 35.249166691825835 67.99999999999996
    vertex 123.16863078494603 32.749166691825835 67.99999999999996
    vertex 126.65696595900793 35.249166691825835 67.99999999999996
  endloop
endfacet
facet normal 0.9914448613738139 -8.763797313216124e-17 -0.13052619222002584
  outer loop
    vertex 125.25696595900794 35.24916669182585 64.99999999999994
    vertex 125.30466980220324 30.249166691825824 65.36234666314347
    vertex 125.25696595900794 30.249166691825824 64.99999999999994
  endloop
endfacet
facet normal 0.9914448613738139 -8.763797313216124e-17 -0.13052619222002584
  outer loop
    vertex 125.30466980220324 30.249166691825824 65.36234666314347
    vertex 125.25696595900794 35.24916669182585 64.99999999999994
    vertex 125.30466980220324 35.24916669182585 65.36234666314347
  endloop
endfacet
facet normal 0.38268343236507407 6.20311741808064e-16 0.9238795325112933
  outer loop
    vertex 126.29461929586441 30.249166691825824 63.64770384319526
    vertex 125.95696595900793 35.24916669182585 63.787564434701736
    vertex 125.95696595900793 30.249166691825824 63.787564434701736
  endloop
endfacet
facet normal 0.38268343236507407 6.20311741808064e-16 0.9238795325112933
  outer loop
    vertex 125.95696595900793 35.24916669182585 63.787564434701736
    vertex 126.29461929586441 30.249166691825824 63.64770384319526
    vertex 126.29461929586441 35.24916669182585 63.64770384319526
  endloop
endfacet
facet normal -0.0 -1.0 -0.0
  outer loop
    vertex 134.14530113306984 32.749166691825835 67.99999999999996
    vertex 130.14530113306984 32.74916669182589 0.0
    vertex 134.14530113306984 32.74916669182589 0.0
  endloop
endfacet
facet normal -0.0 -1.0 -0.0
  outer loop
    vertex 130.14530113306984 32.74916669182589 0.0
    vertex 134.14530113306984 32.749166691825835 67.99999999999996
    vertex 130.14530113306984 32.749166691825835 67.99999999999996
  endloop
endfacet
facet normal 1.0 0.0 0.0
  outer loop
    vertex 134.14530113306984 32.74916669182589 0.0
    vertex 134.14530113306984 34.249166691825835 67.99999999999996
    vertex 134.14530113306984 32.749166691825835 67.99999999999996
  endloop
endfacet
facet normal 1.0 0.0 0.0
  outer loop
    vertex 134.14530113306984 34.249166691825835 67.99999999999996
    vertex 134.14530113306984 32.74916669182589 0.0
    vertex 134.14530113306984 34.24916669182589 0.0
  endloop
endfacet
facet normal 0.9238795325112825 2.5694153635618315e-16 0.38268343236510055
  outer loop
    vertex 125.44453039370971 35.24916669182585 64.29999999999995
    vertex 125.30466980220324 30.249166691825824 64.63765333685642
    vertex 125.44453039370971 30.249166691825824 64.29999999999995
  endloop
endfacet
facet normal 0.9238795325112825 2.5694153635618315e-16 0.38268343236510055
  outer loop
    vertex 125.30466980220324 30.249166691825824 64.63765333685642
    vertex 125.44453039370971 35.24916669182585 64.29999999999995
    vertex 125.30466980220324 35.24916669182585 64.63765333685642
  endloop
endfacet
facet normal -0.0 1.0 -0.0
  outer loop
    vertex 130.14530113306984 30.249166691825824 61.99999999999996
    vertex 150.16863078494603 30.24916669182589 0.0
    vertex 130.14530113306984 30.24916669182589 0.0
  endloop
endfacet
facet normal -0.0 1.0 -0.0
  outer loop
    vertex 150.16863078494603 30.24916669182589 0.0
    vertex 130.14530113306984 30.249166691825824 61.99999999999996
    vertex 150.16863078494603 30.249166691825824 62.0
  endloop
endfacet
facet normal -1.0 0.0 0.0
  outer loop
    vertex 119.16863078494602 34.249166691825835 67.99999999999996
    vertex 119.16863078494602 32.74916669182589 0.0
    vertex 119.16863078494602 32.749166691825835 67.99999999999996
  endloop
endfacet
facet normal -1.0 0.0 0.0
  outer loop
    vertex 119.16863078494602 32.74916669182589 0.0
    vertex 119.16863078494602 34.249166691825835 67.99999999999996
    vertex 119.16863078494602 34.24916669182589 0.0
  endloop
endfacet
facet normal -0.0 -1.0 -0.0
  outer loop
    vertex 123.16863078494603 32.749166691825835 67.99999999999996
    vertex 119.16863078494602 32.74916669182589 0.0
    vertex 123.16863078494603 32.74916669182589 0.0
  endloop
endfacet
facet normal -0.0 -1.0 -0.0
  outer loop
    vertex 119.16863078494602 32.74916669182589 0.0
    vertex 123.16863078494603 32.749166691825835 67.99999999999996
    vertex 119.16863078494602 32.749166691825835 67.99999999999996
  endloop
endfacet
facet normal -0.7933533402912196 -4.0873495849347893e-16 -0.608761429008741
  outer loop
    vertex 127.64691545266909 35.24916669182585 65.98994949366111
    vertex 127.86940152430616 30.249166691825824 65.69999999999995
    vertex 127.64691545266909 30.249166691825824 65.98994949366111
  endloop
endfacet
facet normal -0.7933533402912196 -4.0873495849347893e-16 -0.608761429008741
  outer loop
    vertex 127.86940152430616 30.249166691825824 65.69999999999995
    vertex 127.64691545266909 35.24916669182585 65.98994949366111
    vertex 127.86940152430616 35.24916669182585 65.69999999999995
  endloop
endfacet
facet normal -0.0021110041645938807 0.004686113437277811 -0.9999867919139084
  outer loop
    vertex 130.4011335460389 35.24916669182589 0.024664999999998664
    vertex 126.65696595900793 30.24916669182589 0.0
    vertex 126.65696595900793 35.24916669182589 0.024664999999998664
  endloop
endfacet
facet normal -0.0021110041645938807 0.004686113437277811 -0.9999867919139084
  outer loop
    vertex 126.65696595900793 30.24916669182589 0.0
    vertex 130.4011335460389 35.24916669182589 0.024664999999998664
    vertex 130.14530113306984 32.74916669182589 0.0
  endloop
endfacet
facet normal -0.0021110041645938807 0.004686113437277811 -0.9999867919139084
  outer loop
    vertex 130.14530113306984 32.74916669182589 0.0
    vertex 130.4011335460389 35.24916669182589 0.024664999999998664
    vertex 134.14530113306984 32.74916669182589 0.0
  endloop
endfacet
facet normal -0.0021110041645938807 0.004686113437277811 -0.9999867919139084
  outer loop
    vertex 134.14530113306984 32.74916669182589 0.0
    vertex 130.4011335460389 35.24916669182589 0.024664999999998664
    vertex 134.14530113306984 34.24916669182589 0.0
  endloop
endfacet
facet normal -0.0021110041645938807 0.004686113437277811 -0.9999867919139084
  outer loop
    vertex 130.14530113306984 30.24916669182589 0.0
    vertex 126.65696595900793 30.24916669182589 0.0
    vertex 130.14530113306984 32.74916669182589 0.0
  endloop
endfacet
facet normal -0.9238795325112825 -2.5694153635618315e-16 -0.38268343236510055
  outer loop
    vertex 127.86940152430616 35.24916669182585 65.69999999999995
    vertex 128.00926211581265 30.249166691825824 65.36234666314347
    vertex 127.86940152430616 30.249166691825824 65.69999999999995
  endloop
endfacet
facet normal -0.9238795325112825 -2.5694153635618315e-16 -0.38268343236510055
  outer loop
    vertex 128.00926211581265 30.249166691825824 65.36234666314347
    vertex 127.86940152430616 35.24916669182585 65.69999999999995
    vertex 128.00926211581265 35.24916669182585 65.36234666314347
  endloop
endfacet
facet normal -0.6087614290087364 -5.326737686758731e-16 -0.7933533402912232
  outer loop
    vertex 127.64691545266909 35.24916669182585 65.98994949366111
    vertex 127.35696595900794 30.249166691825824 66.21243556529816
    vertex 127.35696595900794 35.24916669182585 66.21243556529816
  endloop
endfacet
facet normal -0.6087614290087364 -5.326737686758731e-16 -0.7933533402912232
  outer loop
    vertex 127.35696595900794 30.249166691825824 66.21243556529816
    vertex 127.64691545266909 35.24916669182585 65.98994949366111
    vertex 127.64691545266909 30.249166691825824 65.98994949366111
  endloop
endfacet
facet normal 0.7933533402912196 -4.0873495849347893e-16 -0.608761429008741
  outer loop
    vertex 125.44453039370971 35.24916669182585 65.69999999999995
    vertex 125.66701646534678 30.249166691825824 65.98994949366111
    vertex 125.44453039370971 30.249166691825824 65.69999999999995
  endloop
endfacet
facet normal 0.7933533402912196 -4.0873495849347893e-16 -0.608761429008741
  outer loop
    vertex 125.66701646534678 30.249166691825824 65.98994949366111
    vertex 125.44453039370971 35.24916669182585 65.69999999999995
    vertex 125.66701646534678 35.24916669182585 65.98994949366111
  endloop
endfacet
facet normal -0.6087614290087364 5.326737686758731e-16 0.7933533402912232
  outer loop
    vertex 127.64691545266909 30.249166691825824 64.01005050633879
    vertex 127.35696595900794 35.24916669182585 63.787564434701736
    vertex 127.35696595900794 30.249166691825824 63.787564434701736
  endloop
endfacet
facet normal -0.6087614290087364 5.326737686758731e-16 0.7933533402912232
  outer loop
    vertex 127.35696595900794 35.24916669182585 63.787564434701736
    vertex 127.64691545266909 30.249166691825824 64.01005050633879
    vertex 127.64691545266909 35.24916669182585 64.01005050633879
  endloop
endfacet
endsolid BatteryHolder
