solid griff_handle
facet normal 0.0 0.0 -1.0
  outer loop
    vertex -2.8470094961277264 10.62518408917975 0.0
    vertex -2.7045923136093903 0.7246933262870586 0.0
    vertex -2.7999999999999994 3.4290110376125883e-16 0.0
  endloop
endfacet
facet normal 0.0 0.0 -1.0
  outer loop
    vertex -2.7045923136093903 0.7246933262870586 0.0
    vertex -2.8470094961277264 10.62518408917975 0.0
    vertex 6.735557395310441e-16 10.999999999999998 0.0
  endloop
endfacet
facet normal 0.0 0.0 -1.0
  outer loop
    vertex -2.7045923136093903 0.7246933262870586 0.0
    vertex 6.735557395310441e-16 10.999999999999998 0.0
    vertex -2.4248711305964274 1.4000000000000006 0.0
  endloop
endfacet
facet normal 0.0 0.0 -1.0
  outer loop
    vertex -2.4248711305964274 1.4000000000000006 0.0
    vertex 6.735557395310441e-16 10.999999999999998 0.0
    vertex -1.9798989873223325 1.9798989873223327 0.0
  endloop
endfacet
facet normal 0.0 0.0 -1.0
  outer loop
    vertex -1.9798989873223325 1.9798989873223327 0.0
    vertex 6.735557395310441e-16 10.999999999999998 0.0
    vertex -1.399999999999999 2.424871130596428 0.0
  endloop
endfacet
facet normal 0.0 0.0 -1.0
  outer loop
    vertex -1.399999999999999 2.424871130596428 0.0
    vertex 6.735557395310441e-16 10.999999999999998 0.0
    vertex -0.7246933262870576 2.704592313609391 0.0
  endloop
endfacet
facet normal 0.0 0.0 -1.0
  outer loop
    vertex -0.7246933262870576 2.704592313609391 0.0
    vertex 6.735557395310441e-16 10.999999999999998 0.0
    vertex 1.7145055188062941e-16 2.7999999999999994 0.0
  endloop
endfacet
facet normal 0.0 0.0 -1.0
  outer loop
    vertex 1.7145055188062941e-16 2.7999999999999994 0.0
    vertex 6.735557395310441e-16 10.999999999999998 0.0
    vertex 0.7246933262870586 2.7045923136093903 0.0
  endloop
endfacet
facet normal 0.0 0.0 -1.0
  outer loop
    vertex 0.7246933262870586 2.7045923136093903 0.0
    vertex 6.735557395310441e-16 10.999999999999998 0.0
    vertex 2.84700949612773 10.625184089179749 0.0
  endloop
endfacet
facet normal 0.0 0.0 -1.0
  outer loop
    vertex 0.7246933262870586 2.7045923136093903 0.0
    vertex 2.84700949612773 10.625184089179749 0.0
    vertex 1.4000000000000001 2.424871130596428 0.0
  endloop
endfacet
facet normal 0.0 0.0 -1.0
  outer loop
    vertex 1.4000000000000001 2.424871130596428 0.0
    vertex 2.84700949612773 10.625184089179749 0.0
    vertex 1.9798989873223327 1.9798989873223325 0.0
  endloop
endfacet
facet normal 0.0 0.0 -1.0
  outer loop
    vertex 1.9798989873223327 1.9798989873223325 0.0
    vertex 2.84700949612773 10.625184089179749 0.0
    vertex 2.424871130596428 1.3999999999999995 0.0
  endloop
endfacet
facet normal 0.0 0.0 -1.0
  outer loop
    vertex 2.424871130596428 1.3999999999999995 0.0
    vertex 2.84700949612773 10.625184089179749 0.0
    vertex 2.704592313609391 0.724693326287058 0.0
  endloop
endfacet
facet normal 0.0 0.0 -1.0
  outer loop
    vertex 2.704592313609391 0.724693326287058 0.0
    vertex 2.84700949612773 10.625184089179749 0.0
    vertex 2.7999999999999994 0.0 0.0
  endloop
endfacet
facet normal 0.0 0.0 -1.0
  outer loop
    vertex 2.7999999999999994 0.0 0.0
    vertex 2.84700949612773 10.625184089179749 0.0
    vertex 2.847009496127723 -10.62518408917975 0.0
  endloop
endfacet
facet normal 0.0 0.0 -1.0
  outer loop
    vertex 2.847009496127723 -10.62518408917975 0.0
    vertex 2.84700949612773 10.625184089179749 0.0
    vertex 5.499999999999991 -9.526279441628828 0.0
  endloop
endfacet
facet normal 0.0 0.0 -1.0
  outer loop
    vertex 5.499999999999991 -9.526279441628828 0.0
    vertex 2.84700949612773 10.625184089179749 0.0
    vertex 5.500000000000001 9.526279441628823 0.0
  endloop
endfacet
facet normal 0.0 0.0 -1.0
  outer loop
    vertex 5.499999999999991 -9.526279441628828 0.0
    vertex 5.500000000000001 9.526279441628823 0.0
    vertex 7.778174593052021 -7.778174593052023 0.0
  endloop
endfacet
facet normal 0.0 0.0 -1.0
  outer loop
    vertex 7.778174593052021 -7.778174593052023 0.0
    vertex 5.500000000000001 9.526279441628823 0.0
    vertex 7.7781745930520225 7.778174593052021 0.0
  endloop
endfacet
facet normal 0.0 0.0 -1.0
  outer loop
    vertex 7.778174593052021 -7.778174593052023 0.0
    vertex 7.7781745930520225 7.778174593052021 0.0
    vertex 9.526279441628821 -5.500000000000004 0.0
  endloop
endfacet
facet normal 0.0 0.0 -1.0
  outer loop
    vertex 9.526279441628821 -5.500000000000004 0.0
    vertex 7.7781745930520225 7.778174593052021 0.0
    vertex 9.526279441628823 5.499999999999998 0.0
  endloop
endfacet
facet normal 0.0 0.0 -1.0
  outer loop
    vertex 9.526279441628821 -5.500000000000004 0.0
    vertex 9.526279441628823 5.499999999999998 0.0
    vertex 10.625184089179747 -2.847009496127736 0.0
  endloop
endfacet
facet normal 0.0 0.0 -1.0
  outer loop
    vertex 10.625184089179747 -2.847009496127736 0.0
    vertex 9.526279441628823 5.499999999999998 0.0
    vertex 10.62518408917975 2.8470094961277277 0.0
  endloop
endfacet
facet normal 0.0 0.0 -1.0
  outer loop
    vertex 10.625184089179747 -2.847009496127736 0.0
    vertex 10.62518408917975 2.8470094961277277 0.0
    vertex 10.999999999999998 0.0 0.0
  endloop
endfacet
facet normal 0.0 0.0 -1.0
  outer loop
    vertex -10.625184089179749 2.847009496127731 0.0
    vertex -10.62518408917975 -2.8470094961277232 0.0
    vertex -10.999999999999998 1.3471114790620882e-15 0.0
  endloop
endfacet
facet normal 0.0 0.0 -1.0
  outer loop
    vertex -10.62518408917975 -2.8470094961277232 0.0
    vertex -10.625184089179749 2.847009496127731 0.0
    vertex -9.526279441628825 -5.499999999999997 0.0
  endloop
endfacet
facet normal 0.0 0.0 -1.0
  outer loop
    vertex -9.526279441628825 -5.499999999999997 0.0
    vertex -10.625184089179749 2.847009496127731 0.0
    vertex -9.526279441628823 5.500000000000003 0.0
  endloop
endfacet
facet normal 0.0 0.0 -1.0
  outer loop
    vertex -9.526279441628825 -5.499999999999997 0.0
    vertex -9.526279441628823 5.500000000000003 0.0
    vertex -7.778174593052025 -7.778174593052017 0.0
  endloop
endfacet
facet normal 0.0 0.0 -1.0
  outer loop
    vertex -7.778174593052025 -7.778174593052017 0.0
    vertex -9.526279441628823 5.500000000000003 0.0
    vertex -7.778174593052021 7.7781745930520225 0.0
  endloop
endfacet
facet normal 0.0 0.0 -1.0
  outer loop
    vertex -7.778174593052025 -7.778174593052017 0.0
    vertex -7.778174593052021 7.7781745930520225 0.0
    vertex -5.500000000000004 -9.526279441628821 0.0
  endloop
endfacet
facet normal 0.0 0.0 -1.0
  outer loop
    vertex -5.500000000000004 -9.526279441628821 0.0
    vertex -7.778174593052021 7.7781745930520225 0.0
    vertex -5.499999999999997 9.526279441628825 0.0
  endloop
endfacet
facet normal 0.0 0.0 -1.0
  outer loop
    vertex -5.500000000000004 -9.526279441628821 0.0
    vertex -5.499999999999997 9.526279441628825 0.0
    vertex -2.8470094961277357 -10.625184089179747 0.0
  endloop
endfacet
facet normal 0.0 0.0 -1.0
  outer loop
    vertex -2.8470094961277357 -10.625184089179747 0.0
    vertex -5.499999999999997 9.526279441628825 0.0
    vertex -2.8470094961277264 10.62518408917975 0.0
  endloop
endfacet
facet normal 0.0 0.0 -1.0
  outer loop
    vertex -2.8470094961277357 -10.625184089179747 0.0
    vertex -2.8470094961277264 10.62518408917975 0.0
    vertex -2.7999999999999994 3.4290110376125883e-16 0.0
  endloop
endfacet
facet normal 0.0 0.0 -1.0
  outer loop
    vertex -2.8470094961277357 -10.625184089179747 0.0
    vertex -2.7999999999999994 3.4290110376125883e-16 0.0
    vertex -2.7045923136093912 -0.7246933262870568 0.0
  endloop
endfacet
facet normal 0.0 0.0 -1.0
  outer loop
    vertex -2.8470094961277357 -10.625184089179747 0.0
    vertex -2.7045923136093912 -0.7246933262870568 0.0
    vertex -2.0206672185931323e-15 -10.999999999999998 0.0
  endloop
endfacet
facet normal 0.0 0.0 -1.0
  outer loop
    vertex -2.0206672185931323e-15 -10.999999999999998 0.0
    vertex -2.7045923136093912 -0.7246933262870568 0.0
    vertex -2.424871130596428 -1.399999999999999 0.0
  endloop
endfacet
facet normal 0.0 0.0 -1.0
  outer loop
    vertex -2.0206672185931323e-15 -10.999999999999998 0.0
    vertex -2.424871130596428 -1.399999999999999 0.0
    vertex -1.9798989873223338 -1.9798989873223318 0.0
  endloop
endfacet
facet normal 0.0 0.0 -1.0
  outer loop
    vertex -2.0206672185931323e-15 -10.999999999999998 0.0
    vertex -1.9798989873223338 -1.9798989873223318 0.0
    vertex -1.400000000000001 -2.424871130596427 0.0
  endloop
endfacet
facet normal 0.0 0.0 -1.0
  outer loop
    vertex -2.0206672185931323e-15 -10.999999999999998 0.0
    vertex -1.400000000000001 -2.424871130596427 0.0
    vertex -0.72469332628706 -2.70459231360939 0.0
  endloop
endfacet
facet normal 0.0 0.0 -1.0
  outer loop
    vertex -2.0206672185931323e-15 -10.999999999999998 0.0
    vertex -0.72469332628706 -2.70459231360939 0.0
    vertex -5.143516556418882e-16 -2.7999999999999994 0.0
  endloop
endfacet
facet normal 0.0 0.0 -1.0
  outer loop
    vertex -2.0206672185931323e-15 -10.999999999999998 0.0
    vertex -5.143516556418882e-16 -2.7999999999999994 0.0
    vertex 2.847009496127723 -10.62518408917975 0.0
  endloop
endfacet
facet normal 0.0 0.0 -1.0
  outer loop
    vertex 2.847009496127723 -10.62518408917975 0.0
    vertex -5.143516556418882e-16 -2.7999999999999994 0.0
    vertex 0.7246933262870566 -2.7045923136093912 0.0
  endloop
endfacet
facet normal 0.0 0.0 -1.0
  outer loop
    vertex 2.847009496127723 -10.62518408917975 0.0
    vertex 0.7246933262870566 -2.7045923136093912 0.0
    vertex 1.3999999999999977 -2.424871130596429 0.0
  endloop
endfacet
facet normal 0.0 0.0 -1.0
  outer loop
    vertex 2.847009496127723 -10.62518408917975 0.0
    vertex 1.3999999999999977 -2.424871130596429 0.0
    vertex 1.9798989873223325 -1.9798989873223332 0.0
  endloop
endfacet
facet normal 0.0 0.0 -1.0
  outer loop
    vertex 2.847009496127723 -10.62518408917975 0.0
    vertex 1.9798989873223325 -1.9798989873223332 0.0
    vertex 2.424871130596427 -1.400000000000001 0.0
  endloop
endfacet
facet normal 0.0 0.0 -1.0
  outer loop
    vertex 2.847009496127723 -10.62518408917975 0.0
    vertex 2.424871130596427 -1.400000000000001 0.0
    vertex 2.70459231360939 -0.7246933262870601 0.0
  endloop
endfacet
facet normal 0.0 0.0 -1.0
  outer loop
    vertex 2.847009496127723 -10.62518408917975 0.0
    vertex 2.70459231360939 -0.7246933262870601 0.0
    vertex 2.7999999999999994 0.0 0.0
  endloop
endfacet
facet normal -0.0 -0.0 1.0
  outer loop
    vertex -10.62518408917975 -2.8470094961277232 120.0
    vertex -10.625184089179749 2.847009496127731 120.0
    vertex -10.999999999999998 1.3471114790620882e-15 120.0
  endloop
endfacet
facet normal -0.0 -0.0 1.0
  outer loop
    vertex -10.625184089179749 2.847009496127731 120.0
    vertex -10.62518408917975 -2.8470094961277232 120.0
    vertex -9.526279441628825 -5.499999999999997 120.0
  endloop
endfacet
facet normal -0.0 -0.0 1.0
  outer loop
    vertex -10.625184089179749 2.847009496127731 120.0
    vertex -9.526279441628825 -5.499999999999997 120.0
    vertex -9.526279441628823 5.500000000000003 120.0
  endloop
endfacet
facet normal -0.0 -0.0 1.0
  outer loop
    vertex -9.526279441628823 5.500000000000003 120.0
    vertex -9.526279441628825 -5.499999999999997 120.0
    vertex -7.778174593052025 -7.778174593052017 120.0
  endloop
endfacet
facet normal -0.0 -0.0 1.0
  outer loop
    vertex -9.526279441628823 5.500000000000003 120.0
    vertex -7.778174593052025 -7.778174593052017 120.0
    vertex -7.778174593052021 7.7781745930520225 120.0
  endloop
endfacet
facet normal -0.0 -0.0 1.0
  outer loop
    vertex -7.778174593052021 7.7781745930520225 120.0
    vertex -7.778174593052025 -7.778174593052017 120.0
    vertex -5.500000000000004 -9.526279441628821 120.0
  endloop
endfacet
facet normal -0.0 -0.0 1.0
  outer loop
    vertex -7.778174593052021 7.7781745930520225 120.0
    vertex -5.500000000000004 -9.526279441628821 120.0
    vertex -5.499999999999997 9.526279441628825 120.0
  endloop
endfacet
facet normal -0.0 -0.0 1.0
  outer loop
    vertex -5.499999999999997 9.526279441628825 120.0
    vertex -5.500000000000004 -9.526279441628821 120.0
    vertex -2.8470094961277357 -10.625184089179747 120.0
  endloop
endfacet
facet normal -0.0 -0.0 1.0
  outer loop
    vertex -5.499999999999997 9.526279441628825 120.0
    vertex -2.8470094961277357 -10.625184089179747 120.0
    vertex -2.8470094961277264 10.62518408917975 120.0
  endloop
endfacet
facet normal -0.0 -0.0 1.0
  outer loop
    vertex -2.8470094961277264 10.62518408917975 120.0
    vertex -2.8470094961277357 -10.625184089179747 120.0
    vertex -2.7999999999999994 3.4290110376125883e-16 120.0
  endloop
endfacet
facet normal -0.0 -0.0 1.0
  outer loop
    vertex -2.7999999999999994 3.4290110376125883e-16 120.0
    vertex -2.8470094961277357 -10.625184089179747 120.0
    vertex -2.7045923136093912 -0.7246933262870568 120.0
  endloop
endfacet
facet normal -0.0 -0.0 1.0
  outer loop
    vertex -2.7045923136093912 -0.7246933262870568 120.0
    vertex -2.8470094961277357 -10.625184089179747 120.0
    vertex -2.0206672185931323e-15 -10.999999999999998 120.0
  endloop
endfacet
facet normal -0.0 -0.0 1.0
  outer loop
    vertex -2.7045923136093912 -0.7246933262870568 120.0
    vertex -2.0206672185931323e-15 -10.999999999999998 120.0
    vertex -2.424871130596428 -1.399999999999999 120.0
  endloop
endfacet
facet normal -0.0 -0.0 1.0
  outer loop
    vertex -2.424871130596428 -1.399999999999999 120.0
    vertex -2.0206672185931323e-15 -10.999999999999998 120.0
    vertex -1.9798989873223338 -1.9798989873223318 120.0
  endloop
endfacet
facet normal -0.0 -0.0 1.0
  outer loop
    vertex -1.9798989873223338 -1.9798989873223318 120.0
    vertex -2.0206672185931323e-15 -10.999999999999998 120.0
    vertex -1.400000000000001 -2.424871130596427 120.0
  endloop
endfacet
facet normal -0.0 -0.0 1.0
  outer loop
    vertex -1.400000000000001 -2.424871130596427 120.0
    vertex -2.0206672185931323e-15 -10.999999999999998 120.0
    vertex -0.72469332628706 -2.70459231360939 120.0
  endloop
endfacet
facet normal -0.0 -0.0 1.0
  outer loop
    vertex -0.72469332628706 -2.70459231360939 120.0
    vertex -2.0206672185931323e-15 -10.999999999999998 120.0
    vertex -5.143516556418882e-16 -2.7999999999999994 120.0
  endloop
endfacet
facet normal -0.0 -0.0 1.0
  outer loop
    vertex -5.143516556418882e-16 -2.7999999999999994 120.0
    vertex -2.0206672185931323e-15 -10.999999999999998 120.0
    vertex 2.847009496127723 -10.62518408917975 120.0
  endloop
endfacet
facet normal -0.0 -0.0 1.0
  outer loop
    vertex -5.143516556418882e-16 -2.7999999999999994 120.0
    vertex 2.847009496127723 -10.62518408917975 120.0
    vertex 0.7246933262870566 -2.7045923136093912 120.0
  endloop
endfacet
facet normal -0.0 -0.0 1.0
  outer loop
    vertex 0.7246933262870566 -2.7045923136093912 120.0
    vertex 2.847009496127723 -10.62518408917975 120.0
    vertex 1.3999999999999977 -2.424871130596429 120.0
  endloop
endfacet
facet normal -0.0 -0.0 1.0
  outer loop
    vertex 1.3999999999999977 -2.424871130596429 120.0
    vertex 2.847009496127723 -10.62518408917975 120.0
    vertex 1.9798989873223325 -1.9798989873223332 120.0
  endloop
endfacet
facet normal -0.0 -0.0 1.0
  outer loop
    vertex 1.9798989873223325 -1.9798989873223332 120.0
    vertex 2.847009496127723 -10.62518408917975 120.0
    vertex 2.424871130596427 -1.400000000000001 120.0
  endloop
endfacet
facet normal -0.0 -0.0 1.0
  outer loop
    vertex 2.424871130596427 -1.400000000000001 120.0
    vertex 2.847009496127723 -10.62518408917975 120.0
    vertex 2.70459231360939 -0.7246933262870601 120.0
  endloop
endfacet
facet normal -0.0 -0.0 1.0
  outer loop
    vertex 2.70459231360939 -0.7246933262870601 120.0
    vertex 2.847009496127723 -10.62518408917975 120.0
    vertex 2.7999999999999994 0.0 120.0
  endloop
endfacet
facet normal -0.0 -0.0 1.0
  outer loop
    vertex -2.8470094961277264 10.62518408917975 120.0
    vertex -2.7045923136093903 0.7246933262870586 120.0
    vertex 6.735557395310441e-16 10.999999999999998 120.0
  endloop
endfacet
facet normal -0.0 -0.0 1.0
  outer loop
    vertex -2.7045923136093903 0.7246933262870586 120.0
    vertex -2.8470094961277264 10.62518408917975 120.0
    vertex -2.7999999999999994 3.4290110376125883e-16 120.0
  endloop
endfacet
facet normal -0.0 -0.0 1.0
  outer loop
    vertex 6.735557395310441e-16 10.999999999999998 120.0
    vertex -2.7045923136093903 0.7246933262870586 120.0
    vertex -2.4248711305964274 1.4000000000000006 120.0
  endloop
endfacet
facet normal -0.0 -0.0 1.0
  outer loop
    vertex 6.735557395310441e-16 10.999999999999998 120.0
    vertex -2.4248711305964274 1.4000000000000006 120.0
    vertex -1.9798989873223325 1.9798989873223327 120.0
  endloop
endfacet
facet normal -0.0 -0.0 1.0
  outer loop
    vertex 6.735557395310441e-16 10.999999999999998 120.0
    vertex -1.9798989873223325 1.9798989873223327 120.0
    vertex -1.399999999999999 2.424871130596428 120.0
  endloop
endfacet
facet normal -0.0 -0.0 1.0
  outer loop
    vertex 6.735557395310441e-16 10.999999999999998 120.0
    vertex -1.399999999999999 2.424871130596428 120.0
    vertex -0.7246933262870576 2.704592313609391 120.0
  endloop
endfacet
facet normal -0.0 -0.0 1.0
  outer loop
    vertex 6.735557395310441e-16 10.999999999999998 120.0
    vertex -0.7246933262870576 2.704592313609391 120.0
    vertex 1.7145055188062941e-16 2.7999999999999994 120.0
  endloop
endfacet
facet normal -0.0 -0.0 1.0
  outer loop
    vertex 6.735557395310441e-16 10.999999999999998 120.0
    vertex 1.7145055188062941e-16 2.7999999999999994 120.0
    vertex 0.7246933262870586 2.7045923136093903 120.0
  endloop
endfacet
facet normal -0.0 -0.0 1.0
  outer loop
    vertex 6.735557395310441e-16 10.999999999999998 120.0
    vertex 0.7246933262870586 2.7045923136093903 120.0
    vertex 2.84700949612773 10.625184089179749 120.0
  endloop
endfacet
facet normal -0.0 -0.0 1.0
  outer loop
    vertex 2.84700949612773 10.625184089179749 120.0
    vertex 0.7246933262870586 2.7045923136093903 120.0
    vertex 1.4000000000000001 2.424871130596428 120.0
  endloop
endfacet
facet normal -0.0 -0.0 1.0
  outer loop
    vertex 2.84700949612773 10.625184089179749 120.0
    vertex 1.4000000000000001 2.424871130596428 120.0
    vertex 1.9798989873223327 1.9798989873223325 120.0
  endloop
endfacet
facet normal -0.0 -0.0 1.0
  outer loop
    vertex 2.84700949612773 10.625184089179749 120.0
    vertex 1.9798989873223327 1.9798989873223325 120.0
    vertex 2.424871130596428 1.3999999999999995 120.0
  endloop
endfacet
facet normal -0.0 -0.0 1.0
  outer loop
    vertex 2.84700949612773 10.625184089179749 120.0
    vertex 2.424871130596428 1.3999999999999995 120.0
    vertex 2.704592313609391 0.724693326287058 120.0
  endloop
endfacet
facet normal -0.0 -0.0 1.0
  outer loop
    vertex 2.84700949612773 10.625184089179749 120.0
    vertex 2.704592313609391 0.724693326287058 120.0
    vertex 2.7999999999999994 0.0 120.0
  endloop
endfacet
facet normal -0.0 -0.0 1.0
  outer loop
    vertex 2.84700949612773 10.625184089179749 120.0
    vertex 2.7999999999999994 0.0 120.0
    vertex 2.847009496127723 -10.62518408917975 120.0
  endloop
endfacet
facet normal -0.0 -0.0 1.0
  outer loop
    vertex 2.84700949612773 10.625184089179749 120.0
    vertex 2.847009496127723 -10.62518408917975 120.0
    vertex 5.499999999999991 -9.526279441628828 120.0
  endloop
endfacet
facet normal -0.0 -0.0 1.0
  outer loop
    vertex 2.84700949612773 10.625184089179749 120.0
    vertex 5.499999999999991 -9.526279441628828 120.0
    vertex 5.500000000000001 9.526279441628823 120.0
  endloop
endfacet
facet normal -0.0 -0.0 1.0
  outer loop
    vertex 5.500000000000001 9.526279441628823 120.0
    vertex 5.499999999999991 -9.526279441628828 120.0
    vertex 7.778174593052021 -7.778174593052023 120.0
  endloop
endfacet
facet normal -0.0 -0.0 1.0
  outer loop
    vertex 5.500000000000001 9.526279441628823 120.0
    vertex 7.778174593052021 -7.778174593052023 120.0
    vertex 7.7781745930520225 7.778174593052021 120.0
  endloop
endfacet
facet normal -0.0 -0.0 1.0
  outer loop
    vertex 7.7781745930520225 7.778174593052021 120.0
    vertex 7.778174593052021 -7.778174593052023 120.0
    vertex 9.526279441628821 -5.500000000000004 120.0
  endloop
endfacet
facet normal -0.0 -0.0 1.0
  outer loop
    vertex 7.7781745930520225 7.778174593052021 120.0
    vertex 9.526279441628821 -5.500000000000004 120.0
    vertex 9.526279441628823 5.499999999999998 120.0
  endloop
endfacet
facet normal -0.0 -0.0 1.0
  outer loop
    vertex 9.526279441628823 5.499999999999998 120.0
    vertex 9.526279441628821 -5.500000000000004 120.0
    vertex 10.625184089179747 -2.847009496127736 120.0
  endloop
endfacet
facet normal -0.0 -0.0 1.0
  outer loop
    vertex 9.526279441628823 5.499999999999998 120.0
    vertex 10.625184089179747 -2.847009496127736 120.0
    vertex 10.62518408917975 2.8470094961277277 120.0
  endloop
endfacet
facet normal -0.0 -0.0 1.0
  outer loop
    vertex 10.62518408917975 2.8470094961277277 120.0
    vertex 10.625184089179747 -2.847009496127736 120.0
    vertex 10.999999999999998 0.0 120.0
  endloop
endfacet
facet normal -0.9914448613738105 -0.13052619222005143 -0.0
  outer loop
    vertex -10.999999999999998 1.3471114790620882e-15 120.0
    vertex -10.62518408917975 -2.8470094961277232 0.0
    vertex -10.62518408917975 -2.8470094961277232 120.0
  endloop
endfacet
facet normal -0.9914448613738105 -0.13052619222005143 -0.0
  outer loop
    vertex -10.62518408917975 -2.8470094961277232 0.0
    vertex -10.999999999999998 1.3471114790620882e-15 120.0
    vertex -10.999999999999998 1.3471114790620882e-15 0.0
  endloop
endfacet
facet normal -0.9914448613738105 0.1305261922200517 0.0
  outer loop
    vertex -10.625184089179749 2.847009496127731 120.0
    vertex -10.999999999999998 1.3471114790620882e-15 0.0
    vertex -10.999999999999998 1.3471114790620882e-15 120.0
  endloop
endfacet
facet normal -0.9914448613738105 0.1305261922200517 0.0
  outer loop
    vertex -10.999999999999998 1.3471114790620882e-15 0.0
    vertex -10.625184089179749 2.847009496127731 120.0
    vertex -10.625184089179749 2.847009496127731 0.0
  endloop
endfacet
facet normal -0.9238795325112868 0.38268343236508995 0.0
  outer loop
    vertex -9.526279441628823 5.500000000000003 120.0
    vertex -10.625184089179749 2.847009496127731 0.0
    vertex -10.625184089179749 2.847009496127731 120.0
  endloop
endfacet
facet normal -0.9238795325112868 0.38268343236508995 0.0
  outer loop
    vertex -10.625184089179749 2.847009496127731 0.0
    vertex -9.526279441628823 5.500000000000003 120.0
    vertex -9.526279441628823 5.500000000000003 0.0
  endloop
endfacet
facet normal -0.7933533402912349 0.6087614290087209 0.0
  outer loop
    vertex -7.778174593052021 7.7781745930520225 120.0
    vertex -9.526279441628823 5.500000000000003 0.0
    vertex -9.526279441628823 5.500000000000003 120.0
  endloop
endfacet
facet normal -0.7933533402912349 0.6087614290087209 0.0
  outer loop
    vertex -9.526279441628823 5.500000000000003 0.0
    vertex -7.778174593052021 7.7781745930520225 120.0
    vertex -7.778174593052021 7.7781745930520225 0.0
  endloop
endfacet
facet normal -0.6087614290087205 0.7933533402912353 0.0
  outer loop
    vertex -7.778174593052021 7.7781745930520225 120.0
    vertex -5.499999999999997 9.526279441628825 0.0
    vertex -7.778174593052021 7.7781745930520225 0.0
  endloop
endfacet
facet normal -0.6087614290087205 0.7933533402912353 0.0
  outer loop
    vertex -5.499999999999997 9.526279441628825 0.0
    vertex -7.778174593052021 7.7781745930520225 120.0
    vertex -5.499999999999997 9.526279441628825 120.0
  endloop
endfacet
facet normal -0.38268343236508967 0.923879532511287 0.0
  outer loop
    vertex -5.499999999999997 9.526279441628825 120.0
    vertex -2.8470094961277264 10.62518408917975 0.0
    vertex -5.499999999999997 9.526279441628825 0.0
  endloop
endfacet
facet normal -0.38268343236508967 0.923879532511287 0.0
  outer loop
    vertex -2.8470094961277264 10.62518408917975 0.0
    vertex -5.499999999999997 9.526279441628825 120.0
    vertex -2.8470094961277264 10.62518408917975 120.0
  endloop
endfacet
facet normal -0.13052619222005132 0.9914448613738106 0.0
  outer loop
    vertex -2.8470094961277264 10.62518408917975 120.0
    vertex 6.735557395310441e-16 10.999999999999998 0.0
    vertex -2.8470094961277264 10.62518408917975 0.0
  endloop
endfacet
facet normal -0.13052619222005132 0.9914448613738106 0.0
  outer loop
    vertex 6.735557395310441e-16 10.999999999999998 0.0
    vertex -2.8470094961277264 10.62518408917975 120.0
    vertex 6.735557395310441e-16 10.999999999999998 120.0
  endloop
endfacet
facet normal 0.1305261922200517 0.9914448613738105 0.0
  outer loop
    vertex 6.735557395310441e-16 10.999999999999998 120.0
    vertex 2.84700949612773 10.625184089179749 0.0
    vertex 6.735557395310441e-16 10.999999999999998 0.0
  endloop
endfacet
facet normal 0.1305261922200517 0.9914448613738105 0.0
  outer loop
    vertex 2.84700949612773 10.625184089179749 0.0
    vertex 6.735557395310441e-16 10.999999999999998 120.0
    vertex 2.84700949612773 10.625184089179749 120.0
  endloop
endfacet
facet normal 0.38268343236509006 0.9238795325112867 0.0
  outer loop
    vertex 2.84700949612773 10.625184089179749 120.0
    vertex 5.500000000000001 9.526279441628823 0.0
    vertex 2.84700949612773 10.625184089179749 0.0
  endloop
endfacet
facet normal 0.38268343236509006 0.9238795325112867 0.0
  outer loop
    vertex 5.500000000000001 9.526279441628823 0.0
    vertex 2.84700949612773 10.625184089179749 120.0
    vertex 5.500000000000001 9.526279441628823 120.0
  endloop
endfacet
facet normal 0.6087614290087207 0.7933533402912354 0.0
  outer loop
    vertex 5.500000000000001 9.526279441628823 120.0
    vertex 7.7781745930520225 7.778174593052021 0.0
    vertex 5.500000000000001 9.526279441628823 0.0
  endloop
endfacet
facet normal 0.6087614290087207 0.7933533402912354 0.0
  outer loop
    vertex 7.7781745930520225 7.778174593052021 0.0
    vertex 5.500000000000001 9.526279441628823 120.0
    vertex 7.7781745930520225 7.778174593052021 120.0
  endloop
endfacet
facet normal 0.7933533402912353 0.6087614290087204 0.0
  outer loop
    vertex 7.7781745930520225 7.778174593052021 0.0
    vertex 9.526279441628823 5.499999999999998 120.0
    vertex 9.526279441628823 5.499999999999998 0.0
  endloop
endfacet
facet normal 0.7933533402912353 0.6087614290087204 0.0
  outer loop
    vertex 9.526279441628823 5.499999999999998 120.0
    vertex 7.7781745930520225 7.778174593052021 0.0
    vertex 7.7781745930520225 7.778174593052021 120.0
  endloop
endfacet
facet normal 0.9238795325112868 0.3826834323650901 0.0
  outer loop
    vertex 9.526279441628823 5.499999999999998 0.0
    vertex 10.62518408917975 2.8470094961277277 120.0
    vertex 10.62518408917975 2.8470094961277277 0.0
  endloop
endfacet
facet normal 0.9238795325112868 0.3826834323650901 0.0
  outer loop
    vertex 10.62518408917975 2.8470094961277277 120.0
    vertex 9.526279441628823 5.499999999999998 0.0
    vertex 9.526279441628823 5.499999999999998 120.0
  endloop
endfacet
facet normal 0.9914448613738105 0.1305261922200513 0.0
  outer loop
    vertex 10.62518408917975 2.8470094961277277 0.0
    vertex 10.999999999999998 0.0 120.0
    vertex 10.999999999999998 0.0 0.0
  endloop
endfacet
facet normal 0.9914448613738105 0.1305261922200513 0.0
  outer loop
    vertex 10.999999999999998 0.0 120.0
    vertex 10.62518408917975 2.8470094961277277 0.0
    vertex 10.62518408917975 2.8470094961277277 120.0
  endloop
endfacet
facet normal 0.9914448613738104 -0.13052619222005185 0.0
  outer loop
    vertex 10.999999999999998 0.0 0.0
    vertex 10.625184089179747 -2.847009496127736 120.0
    vertex 10.625184089179747 -2.847009496127736 0.0
  endloop
endfacet
facet normal 0.9914448613738104 -0.13052619222005185 0.0
  outer loop
    vertex 10.625184089179747 -2.847009496127736 120.0
    vertex 10.999999999999998 0.0 0.0
    vertex 10.999999999999998 0.0 120.0
  endloop
endfacet
facet normal 0.9238795325112865 -0.3826834323650904 0.0
  outer loop
    vertex 10.625184089179747 -2.847009496127736 0.0
    vertex 9.526279441628821 -5.500000000000004 120.0
    vertex 9.526279441628821 -5.500000000000004 0.0
  endloop
endfacet
facet normal 0.9238795325112865 -0.3826834323650904 0.0
  outer loop
    vertex 9.526279441628821 -5.500000000000004 120.0
    vertex 10.625184089179747 -2.847009496127736 0.0
    vertex 10.625184089179747 -2.847009496127736 120.0
  endloop
endfacet
facet normal 0.7933533402912353 -0.6087614290087207 0.0
  outer loop
    vertex 9.526279441628821 -5.500000000000004 0.0
    vertex 7.778174593052021 -7.778174593052023 120.0
    vertex 7.778174593052021 -7.778174593052023 0.0
  endloop
endfacet
facet normal 0.7933533402912353 -0.6087614290087207 0.0
  outer loop
    vertex 7.778174593052021 -7.778174593052023 120.0
    vertex 9.526279441628821 -5.500000000000004 0.0
    vertex 9.526279441628821 -5.500000000000004 120.0
  endloop
endfacet
facet normal 0.6087614290087199 -0.7933533402912358 0.0
  outer loop
    vertex 7.778174593052021 -7.778174593052023 120.0
    vertex 5.499999999999991 -9.526279441628828 0.0
    vertex 7.778174593052021 -7.778174593052023 0.0
  endloop
endfacet
facet normal 0.6087614290087199 -0.7933533402912358 0.0
  outer loop
    vertex 5.499999999999991 -9.526279441628828 0.0
    vertex 7.778174593052021 -7.778174593052023 120.0
    vertex 5.499999999999991 -9.526279441628828 120.0
  endloop
endfacet
facet normal 0.38268343236508906 -0.9238795325112871 0.0
  outer loop
    vertex 5.499999999999991 -9.526279441628828 120.0
    vertex 2.847009496127723 -10.62518408917975 0.0
    vertex 5.499999999999991 -9.526279441628828 0.0
  endloop
endfacet
facet normal 0.38268343236508906 -0.9238795325112871 0.0
  outer loop
    vertex 2.847009496127723 -10.62518408917975 0.0
    vertex 5.499999999999991 -9.526279441628828 120.0
    vertex 2.847009496127723 -10.62518408917975 120.0
  endloop
endfacet
facet normal 0.13052619222005143 -0.9914448613738106 0.0
  outer loop
    vertex 2.847009496127723 -10.62518408917975 120.0
    vertex -2.0206672185931323e-15 -10.999999999999998 0.0
    vertex 2.847009496127723 -10.62518408917975 0.0
  endloop
endfacet
facet normal 0.13052619222005143 -0.9914448613738106 0.0
  outer loop
    vertex -2.0206672185931323e-15 -10.999999999999998 0.0
    vertex 2.847009496127723 -10.62518408917975 120.0
    vertex -2.0206672185931323e-15 -10.999999999999998 120.0
  endloop
endfacet
facet normal -0.130526192220052 -0.9914448613738104 -0.0
  outer loop
    vertex -2.0206672185931323e-15 -10.999999999999998 120.0
    vertex -2.8470094961277357 -10.625184089179747 0.0
    vertex -2.0206672185931323e-15 -10.999999999999998 0.0
  endloop
endfacet
facet normal -0.130526192220052 -0.9914448613738104 -0.0
  outer loop
    vertex -2.8470094961277357 -10.625184089179747 0.0
    vertex -2.0206672185931323e-15 -10.999999999999998 120.0
    vertex -2.8470094961277357 -10.625184089179747 120.0
  endloop
endfacet
facet normal -0.3826834323650904 -0.9238795325112867 -0.0
  outer loop
    vertex -2.8470094961277357 -10.625184089179747 120.0
    vertex -5.500000000000004 -9.526279441628821 0.0
    vertex -2.8470094961277357 -10.625184089179747 0.0
  endloop
endfacet
facet normal -0.3826834323650904 -0.9238795325112867 -0.0
  outer loop
    vertex -5.500000000000004 -9.526279441628821 0.0
    vertex -2.8470094961277357 -10.625184089179747 120.0
    vertex -5.500000000000004 -9.526279441628821 120.0
  endloop
endfacet
facet normal -0.6087614290087214 -0.7933533402912347 -0.0
  outer loop
    vertex -5.500000000000004 -9.526279441628821 120.0
    vertex -7.778174593052025 -7.778174593052017 0.0
    vertex -5.500000000000004 -9.526279441628821 0.0
  endloop
endfacet
facet normal -0.6087614290087214 -0.7933533402912347 -0.0
  outer loop
    vertex -7.778174593052025 -7.778174593052017 0.0
    vertex -5.500000000000004 -9.526279441628821 120.0
    vertex -7.778174593052025 -7.778174593052017 120.0
  endloop
endfacet
facet normal -0.7933533402912353 -0.6087614290087207 -0.0
  outer loop
    vertex -9.526279441628825 -5.499999999999997 120.0
    vertex -7.778174593052025 -7.778174593052017 0.0
    vertex -7.778174593052025 -7.778174593052017 120.0
  endloop
endfacet
facet normal -0.7933533402912353 -0.6087614290087207 -0.0
  outer loop
    vertex -7.778174593052025 -7.778174593052017 0.0
    vertex -9.526279441628825 -5.499999999999997 120.0
    vertex -9.526279441628825 -5.499999999999997 0.0
  endloop
endfacet
facet normal -0.9238795325112871 -0.3826834323650893 -0.0
  outer loop
    vertex -10.62518408917975 -2.8470094961277232 120.0
    vertex -9.526279441628825 -5.499999999999997 0.0
    vertex -9.526279441628825 -5.499999999999997 120.0
  endloop
endfacet
facet normal -0.9238795325112871 -0.3826834323650893 -0.0
  outer loop
    vertex -9.526279441628825 -5.499999999999997 0.0
    vertex -10.62518408917975 -2.8470094961277232 120.0
    vertex -10.62518408917975 -2.8470094961277232 0.0
  endloop
endfacet
facet normal 0.13052619222005152 -0.9914448613738105 0.0
  outer loop
    vertex 1.7145055188062941e-16 2.7999999999999994 120.0
    vertex -0.7246933262870576 2.704592313609391 0.0
    vertex 1.7145055188062941e-16 2.7999999999999994 0.0
  endloop
endfacet
facet normal 0.13052619222005152 -0.9914448613738105 0.0
  outer loop
    vertex -0.7246933262870576 2.704592313609391 0.0
    vertex 1.7145055188062941e-16 2.7999999999999994 120.0
    vertex -0.7246933262870576 2.704592313609391 120.0
  endloop
endfacet
facet normal 0.38268343236508967 -0.9238795325112868 0.0
  outer loop
    vertex -0.7246933262870576 2.704592313609391 120.0
    vertex -1.399999999999999 2.424871130596428 0.0
    vertex -0.7246933262870576 2.704592313609391 0.0
  endloop
endfacet
facet normal 0.38268343236508967 -0.9238795325112868 0.0
  outer loop
    vertex -1.399999999999999 2.424871130596428 0.0
    vertex -0.7246933262870576 2.704592313609391 120.0
    vertex -1.399999999999999 2.424871130596428 120.0
  endloop
endfacet
facet normal 0.6087614290087205 -0.7933533402912353 0.0
  outer loop
    vertex -1.399999999999999 2.424871130596428 120.0
    vertex -1.9798989873223325 1.9798989873223327 0.0
    vertex -1.399999999999999 2.424871130596428 0.0
  endloop
endfacet
facet normal 0.6087614290087205 -0.7933533402912353 0.0
  outer loop
    vertex -1.9798989873223325 1.9798989873223327 0.0
    vertex -1.399999999999999 2.424871130596428 120.0
    vertex -1.9798989873223325 1.9798989873223327 120.0
  endloop
endfacet
facet normal 0.7933533402912349 -0.6087614290087211 0.0
  outer loop
    vertex -1.9798989873223325 1.9798989873223327 0.0
    vertex -2.4248711305964274 1.4000000000000006 120.0
    vertex -2.4248711305964274 1.4000000000000006 0.0
  endloop
endfacet
facet normal 0.7933533402912349 -0.6087614290087211 0.0
  outer loop
    vertex -2.4248711305964274 1.4000000000000006 120.0
    vertex -1.9798989873223325 1.9798989873223327 0.0
    vertex -1.9798989873223325 1.9798989873223327 120.0
  endloop
endfacet
facet normal 0.9238795325112868 -0.38268343236508984 0.0
  outer loop
    vertex -2.4248711305964274 1.4000000000000006 0.0
    vertex -2.7045923136093903 0.7246933262870586 120.0
    vertex -2.7045923136093903 0.7246933262870586 0.0
  endloop
endfacet
facet normal 0.9238795325112868 -0.38268343236508984 0.0
  outer loop
    vertex -2.7045923136093903 0.7246933262870586 120.0
    vertex -2.4248711305964274 1.4000000000000006 0.0
    vertex -2.4248711305964274 1.4000000000000006 120.0
  endloop
endfacet
facet normal 0.9914448613738104 -0.1305261922200519 0.0
  outer loop
    vertex -2.7045923136093903 0.7246933262870586 0.0
    vertex -2.7999999999999994 3.4290110376125883e-16 120.0
    vertex -2.7999999999999994 3.4290110376125883e-16 0.0
  endloop
endfacet
facet normal 0.9914448613738104 -0.1305261922200519 0.0
  outer loop
    vertex -2.7999999999999994 3.4290110376125883e-16 120.0
    vertex -2.7045923136093903 0.7246933262870586 0.0
    vertex -2.7045923136093903 0.7246933262870586 120.0
  endloop
endfacet
facet normal 0.9914448613738105 0.13052619222005116 0.0
  outer loop
    vertex -2.7999999999999994 3.4290110376125883e-16 0.0
    vertex -2.7045923136093912 -0.7246933262870568 120.0
    vertex -2.7045923136093912 -0.7246933262870568 0.0
  endloop
endfacet
facet normal 0.9914448613738105 0.13052619222005116 0.0
  outer loop
    vertex -2.7045923136093912 -0.7246933262870568 120.0
    vertex -2.7999999999999994 3.4290110376125883e-16 0.0
    vertex -2.7999999999999994 3.4290110376125883e-16 120.0
  endloop
endfacet
facet normal 0.9238795325112868 0.38268343236508967 0.0
  outer loop
    vertex -2.7045923136093912 -0.7246933262870568 0.0
    vertex -2.424871130596428 -1.399999999999999 120.0
    vertex -2.424871130596428 -1.399999999999999 0.0
  endloop
endfacet
facet normal 0.9238795325112868 0.38268343236508967 0.0
  outer loop
    vertex -2.424871130596428 -1.399999999999999 120.0
    vertex -2.7045923136093912 -0.7246933262870568 0.0
    vertex -2.7045923136093912 -0.7246933262870568 120.0
  endloop
endfacet
facet normal 0.7933533402912356 0.6087614290087201 0.0
  outer loop
    vertex -2.424871130596428 -1.399999999999999 0.0
    vertex -1.9798989873223338 -1.9798989873223318 120.0
    vertex -1.9798989873223338 -1.9798989873223318 0.0
  endloop
endfacet
facet normal 0.7933533402912356 0.6087614290087201 0.0
  outer loop
    vertex -1.9798989873223338 -1.9798989873223318 120.0
    vertex -2.424871130596428 -1.399999999999999 0.0
    vertex -2.424871130596428 -1.399999999999999 120.0
  endloop
endfacet
facet normal 0.6087614290087209 0.793353340291235 0.0
  outer loop
    vertex -1.9798989873223338 -1.9798989873223318 120.0
    vertex -1.400000000000001 -2.424871130596427 0.0
    vertex -1.9798989873223338 -1.9798989873223318 0.0
  endloop
endfacet
facet normal 0.6087614290087209 0.793353340291235 0.0
  outer loop
    vertex -1.400000000000001 -2.424871130596427 0.0
    vertex -1.9798989873223338 -1.9798989873223318 120.0
    vertex -1.400000000000001 -2.424871130596427 120.0
  endloop
endfacet
facet normal 0.38268343236509034 0.9238795325112867 0.0
  outer loop
    vertex -1.400000000000001 -2.424871130596427 120.0
    vertex -0.72469332628706 -2.70459231360939 0.0
    vertex -1.400000000000001 -2.424871130596427 0.0
  endloop
endfacet
facet normal 0.38268343236509034 0.9238795325112867 0.0
  outer loop
    vertex -0.72469332628706 -2.70459231360939 0.0
    vertex -1.400000000000001 -2.424871130596427 120.0
    vertex -0.72469332628706 -2.70459231360939 120.0
  endloop
endfacet
facet normal 0.1305261922200522 0.9914448613738105 0.0
  outer loop
    vertex -0.72469332628706 -2.70459231360939 120.0
    vertex -5.143516556418882e-16 -2.7999999999999994 0.0
    vertex -0.72469332628706 -2.70459231360939 0.0
  endloop
endfacet
facet normal 0.1305261922200522 0.9914448613738105 0.0
  outer loop
    vertex -5.143516556418882e-16 -2.7999999999999994 0.0
    vertex -0.72469332628706 -2.70459231360939 120.0
    vertex -5.143516556418882e-16 -2.7999999999999994 120.0
  endloop
endfacet
facet normal -0.13052619222005116 0.9914448613738105 0.0
  outer loop
    vertex -5.143516556418882e-16 -2.7999999999999994 120.0
    vertex 0.7246933262870566 -2.7045923136093912 0.0
    vertex -5.143516556418882e-16 -2.7999999999999994 0.0
  endloop
endfacet
facet normal -0.13052619222005116 0.9914448613738105 0.0
  outer loop
    vertex 0.7246933262870566 -2.7045923136093912 0.0
    vertex -5.143516556418882e-16 -2.7999999999999994 120.0
    vertex 0.7246933262870566 -2.7045923136093912 120.0
  endloop
endfacet
facet normal -0.38268343236508934 0.9238795325112868 0.0
  outer loop
    vertex 0.7246933262870566 -2.7045923136093912 120.0
    vertex 1.3999999999999977 -2.424871130596429 0.0
    vertex 0.7246933262870566 -2.7045923136093912 0.0
  endloop
endfacet
facet normal -0.38268343236508934 0.9238795325112868 0.0
  outer loop
    vertex 1.3999999999999977 -2.424871130596429 0.0
    vertex 0.7246933262870566 -2.7045923136093912 120.0
    vertex 1.3999999999999977 -2.424871130596429 120.0
  endloop
endfacet
facet normal -0.60876142900872 0.7933533402912357 0.0
  outer loop
    vertex 1.3999999999999977 -2.424871130596429 120.0
    vertex 1.9798989873223325 -1.9798989873223332 0.0
    vertex 1.3999999999999977 -2.424871130596429 0.0
  endloop
endfacet
facet normal -0.60876142900872 0.7933533402912357 0.0
  outer loop
    vertex 1.9798989873223325 -1.9798989873223332 0.0
    vertex 1.3999999999999977 -2.424871130596429 120.0
    vertex 1.9798989873223325 -1.9798989873223332 120.0
  endloop
endfacet
facet normal -0.7933533402912353 0.6087614290087208 0.0
  outer loop
    vertex 2.424871130596427 -1.400000000000001 120.0
    vertex 1.9798989873223325 -1.9798989873223332 0.0
    vertex 1.9798989873223325 -1.9798989873223332 120.0
  endloop
endfacet
facet normal -0.7933533402912353 0.6087614290087208 0.0
  outer loop
    vertex 1.9798989873223325 -1.9798989873223332 0.0
    vertex 2.424871130596427 -1.400000000000001 120.0
    vertex 2.424871130596427 -1.400000000000001 0.0
  endloop
endfacet
facet normal -0.9238795325112865 0.38268343236509034 0.0
  outer loop
    vertex 2.70459231360939 -0.7246933262870601 120.0
    vertex 2.424871130596427 -1.400000000000001 0.0
    vertex 2.424871130596427 -1.400000000000001 120.0
  endloop
endfacet
facet normal -0.9238795325112865 0.38268343236509034 0.0
  outer loop
    vertex 2.424871130596427 -1.400000000000001 0.0
    vertex 2.70459231360939 -0.7246933262870601 120.0
    vertex 2.70459231360939 -0.7246933262870601 0.0
  endloop
endfacet
facet normal -0.9914448613738104 0.13052619222005207 0.0
  outer loop
    vertex 2.7999999999999994 0.0 120.0
    vertex 2.70459231360939 -0.7246933262870601 0.0
    vertex 2.70459231360939 -0.7246933262870601 120.0
  endloop
endfacet
facet normal -0.9914448613738104 0.13052619222005207 0.0
  outer loop
    vertex 2.70459231360939 -0.7246933262870601 0.0
    vertex 2.7999999999999994 0.0 120.0
    vertex 2.7999999999999994 0.0 0.0
  endloop
endfacet
facet normal -0.9914448613738106 -0.1305261922200515 -0.0
  outer loop
    vertex 2.704592313609391 0.724693326287058 120.0
    vertex 2.7999999999999994 0.0 0.0
    vertex 2.7999999999999994 0.0 120.0
  endloop
endfacet
facet normal -0.9914448613738106 -0.1305261922200515 -0.0
  outer loop
    vertex 2.7999999999999994 0.0 0.0
    vertex 2.704592313609391 0.724693326287058 120.0
    vertex 2.704592313609391 0.724693326287058 0.0
  endloop
endfacet
facet normal -0.9238795325112868 -0.3826834323650896 -0.0
  outer loop
    vertex 2.424871130596428 1.3999999999999995 120.0
    vertex 2.704592313609391 0.724693326287058 0.0
    vertex 2.704592313609391 0.724693326287058 120.0
  endloop
endfacet
facet normal -0.9238795325112868 -0.3826834323650896 -0.0
  outer loop
    vertex 2.704592313609391 0.724693326287058 0.0
    vertex 2.424871130596428 1.3999999999999995 120.0
    vertex 2.424871130596428 1.3999999999999995 0.0
  endloop
endfacet
facet normal -0.793353340291235 -0.6087614290087209 -0.0
  outer loop
    vertex 1.9798989873223327 1.9798989873223325 120.0
    vertex 2.424871130596428 1.3999999999999995 0.0
    vertex 2.424871130596428 1.3999999999999995 120.0
  endloop
endfacet
facet normal -0.793353340291235 -0.6087614290087209 -0.0
  outer loop
    vertex 2.424871130596428 1.3999999999999995 0.0
    vertex 1.9798989873223327 1.9798989873223325 120.0
    vertex 1.9798989873223327 1.9798989873223325 0.0
  endloop
endfacet
facet normal -0.608761429008721 -0.793353340291235 -0.0
  outer loop
    vertex 1.9798989873223327 1.9798989873223325 120.0
    vertex 1.4000000000000001 2.424871130596428 0.0
    vertex 1.9798989873223327 1.9798989873223325 0.0
  endloop
endfacet
facet normal -0.608761429008721 -0.793353340291235 -0.0
  outer loop
    vertex 1.4000000000000001 2.424871130596428 0.0
    vertex 1.9798989873223327 1.9798989873223325 120.0
    vertex 1.4000000000000001 2.424871130596428 120.0
  endloop
endfacet
facet normal -0.3826834323650897 -0.923879532511287 -0.0
  outer loop
    vertex 1.4000000000000001 2.424871130596428 120.0
    vertex 0.7246933262870586 2.7045923136093903 0.0
    vertex 1.4000000000000001 2.424871130596428 0.0
  endloop
endfacet
facet normal -0.3826834323650897 -0.923879532511287 -0.0
  outer loop
    vertex 0.7246933262870586 2.7045923136093903 0.0
    vertex 1.4000000000000001 2.424871130596428 120.0
    vertex 0.7246933262870586 2.7045923136093903 120.0
  endloop
endfacet
facet normal -0.13052619222005188 -0.9914448613738104 -0.0
  outer loop
    vertex 0.7246933262870586 2.7045923136093903 120.0
    vertex 1.7145055188062941e-16 2.7999999999999994 0.0
    vertex 0.7246933262870586 2.7045923136093903 0.0
  endloop
endfacet
facet normal -0.13052619222005188 -0.9914448613738104 -0.0
  outer loop
    vertex 1.7145055188062941e-16 2.7999999999999994 0.0
    vertex 0.7246933262870586 2.7045923136093903 120.0
    vertex 1.7145055188062941e-16 2.7999999999999994 120.0
  endloop
endfacet
endsolid griff_handle
