solid nutenstein
facet normal 0.25803731505075517 0.9661349512575339 -2.476896948980645e-18
  outer loop
    vertex 27.23250276109286 31.999999999999996 0.024664999999998664
    vertex 30.97667034812381 31.0 9.99999999999996
    vertex 30.97667034812381 31.0 0.0
  endloop
endfacet
facet normal 0.25803731505075517 0.9661349512575339 -2.476896948980645e-18
  outer loop
    vertex 30.97667034812381 31.0 9.99999999999996
    vertex 27.23250276109286 31.999999999999996 0.024664999999998664
    vertex 27.23250276109286 31.999999999999996 9.99999999999996
  endloop
endfacet
facet normal 0.0 -1.0 0.0
  outer loop
    vertex 26.976670348123815 27.0 9.99999999999996
    vertex 23.488335174061906 27.0 0.0
    vertex 26.976670348123815 27.0 0.0
  endloop
endfacet
facet normal 0.0 -1.0 0.0
  outer loop
    vertex 23.488335174061906 27.0 0.0
    vertex 26.976670348123815 27.0 9.99999999999996
    vertex 24.985520204809962 27.000000000000007 4.611162980091072
  endloop
endfacet
facet normal 0.0 -1.0 0.0
  outer loop
    vertex 23.488335174061906 27.0 0.0
    vertex 24.985520204809962 27.000000000000007 4.611162980091072
    vertex 24.830674549927785 27.000000000000007 4.237332499999978
  endloop
endfacet
facet normal 0.0 -1.0 0.0
  outer loop
    vertex 23.488335174061906 27.0 0.0
    vertex 24.830674549927785 27.000000000000007 4.237332499999978
    vertex 24.584350684901054 27.000000000000007 3.9163169891608303
  endloop
endfacet
facet normal 0.0 -1.0 0.0
  outer loop
    vertex 23.488335174061906 27.0 0.0
    vertex 24.584350684901054 27.000000000000007 3.9163169891608303
    vertex 20.0 27.0 0.0
  endloop
endfacet
facet normal 0.0 -1.0 0.0
  outer loop
    vertex 20.0 27.0 0.0
    vertex 24.584350684901054 27.000000000000007 3.9163169891608303
    vertex 24.410969092661844 27.000000000000007 3.7832766142169207
  endloop
endfacet
facet normal 0.0 -1.0 0.0
  outer loop
    vertex 20.0 27.0 0.0
    vertex 24.410969092661844 27.000000000000007 3.7832766142169207
    vertex 24.263335174061904 27.000000000000007 3.6699931241340984
  endloop
endfacet
facet normal 0.0 -1.0 0.0
  outer loop
    vertex 20.0 27.0 0.0
    vertex 24.263335174061904 27.000000000000007 3.6699931241340984
    vertex 23.889504693970814 27.000000000000007 3.515147469251923
  endloop
endfacet
facet normal 0.0 -1.0 0.0
  outer loop
    vertex 20.0 27.0 0.0
    vertex 23.889504693970814 27.000000000000007 3.515147469251923
    vertex 23.488335174061906 27.000000000000007 3.4623324999999787
  endloop
endfacet
facet normal 0.0 -1.0 0.0
  outer loop
    vertex 24.985520204809962 27.000000000000007 4.611162980091072
    vertex 26.976670348123815 27.0 9.99999999999996
    vertex 25.038335174061906 27.000000000000007 5.012332499999978
  endloop
endfacet
facet normal 0.0 -1.0 0.0
  outer loop
    vertex 25.038335174061906 27.000000000000007 5.012332499999978
    vertex 26.976670348123815 27.0 9.99999999999996
    vertex 24.985520204809962 27.000000000000007 5.4135020199088855
  endloop
endfacet
facet normal 0.0 -1.0 0.0
  outer loop
    vertex 24.985520204809962 27.000000000000007 5.4135020199088855
    vertex 26.976670348123815 27.0 9.99999999999996
    vertex 24.830674549927785 27.000000000000007 5.7873324999999785
  endloop
endfacet
facet normal 0.0 -1.0 0.0
  outer loop
    vertex 24.830674549927785 27.000000000000007 5.7873324999999785
    vertex 26.976670348123815 27.0 9.99999999999996
    vertex 24.584350684901054 27.000000000000007 6.108348010839127
  endloop
endfacet
facet normal 0.0 -1.0 0.0
  outer loop
    vertex 24.584350684901054 27.000000000000007 6.108348010839127
    vertex 26.976670348123815 27.0 9.99999999999996
    vertex 24.410969092661844 27.000000000000007 6.241388385783037
  endloop
endfacet
facet normal 0.0 -1.0 0.0
  outer loop
    vertex 24.410969092661844 27.000000000000007 6.241388385783037
    vertex 26.976670348123815 27.0 9.99999999999996
    vertex 24.263335174061908 27.000000000000007 6.354671875865859
  endloop
endfacet
facet normal 0.0 -1.0 0.0
  outer loop
    vertex 24.263335174061908 27.000000000000007 6.354671875865859
    vertex 26.976670348123815 27.0 9.99999999999996
    vertex 23.889504693970814 27.000000000000007 6.509517530748034
  endloop
endfacet
facet normal 0.0 -1.0 0.0
  outer loop
    vertex 23.889504693970814 27.000000000000007 6.509517530748034
    vertex 26.976670348123815 27.0 9.99999999999996
    vertex 23.488335174061906 27.000000000000007 6.562332499999979
  endloop
endfacet
facet normal 0.0 -1.0 0.0
  outer loop
    vertex 20.0 27.0 0.0
    vertex 21.991150143313853 27.000000000000007 4.611162980091072
    vertex 20.0 27.0 9.99999999999996
  endloop
endfacet
facet normal 0.0 -1.0 0.0
  outer loop
    vertex 21.991150143313853 27.000000000000007 4.611162980091072
    vertex 20.0 27.0 0.0
    vertex 22.145995798196026 27.000000000000007 4.237332499999979
  endloop
endfacet
facet normal 0.0 -1.0 0.0
  outer loop
    vertex 22.145995798196026 27.000000000000007 4.237332499999979
    vertex 20.0 27.0 0.0
    vertex 22.392319663222757 27.000000000000007 3.9163169891608303
  endloop
endfacet
facet normal 0.0 -1.0 0.0
  outer loop
    vertex 22.392319663222757 27.000000000000007 3.9163169891608303
    vertex 20.0 27.0 0.0
    vertex 22.713335174061903 27.000000000000007 3.6699931241340984
  endloop
endfacet
facet normal 0.0 -1.0 0.0
  outer loop
    vertex 22.713335174061903 27.000000000000007 3.6699931241340984
    vertex 20.0 27.0 0.0
    vertex 23.087165654152997 27.000000000000007 3.515147469251923
  endloop
endfacet
facet normal 0.0 -1.0 0.0
  outer loop
    vertex 23.087165654152997 27.000000000000007 3.515147469251923
    vertex 20.0 27.0 0.0
    vertex 23.488335174061906 27.000000000000007 3.4623324999999787
  endloop
endfacet
facet normal 0.0 -1.0 0.0
  outer loop
    vertex 22.392319663222757 27.000000000000007 3.9163169891608303
    vertex 22.713335174061903 27.000000000000007 3.6699931241340984
    vertex 22.565701255461967 27.000000000000007 3.7832766142169203
  endloop
endfacet
facet normal 0.0 -1.0 0.0
  outer loop
    vertex 20.0 27.0 9.99999999999996
    vertex 21.991150143313853 27.000000000000007 4.611162980091072
    vertex 21.938335174061905 27.000000000000007 5.012332499999978
  endloop
endfacet
facet normal 0.0 -1.0 0.0
  outer loop
    vertex 20.0 27.0 9.99999999999996
    vertex 21.938335174061905 27.000000000000007 5.012332499999978
    vertex 21.991150143313853 27.000000000000007 5.413502019908886
  endloop
endfacet
facet normal 0.0 -1.0 0.0
  outer loop
    vertex 20.0 27.0 9.99999999999996
    vertex 21.991150143313853 27.000000000000007 5.413502019908886
    vertex 22.145995798196026 27.000000000000007 5.787332499999979
  endloop
endfacet
facet normal 0.0 -1.0 0.0
  outer loop
    vertex 20.0 27.0 9.99999999999996
    vertex 22.145995798196026 27.000000000000007 5.787332499999979
    vertex 22.392319663222757 27.000000000000007 6.108348010839127
  endloop
endfacet
facet normal 0.0 -1.0 0.0
  outer loop
    vertex 20.0 27.0 9.99999999999996
    vertex 22.392319663222757 27.000000000000007 6.108348010839127
    vertex 22.565701255461967 27.000000000000007 6.241388385783036
  endloop
endfacet
facet normal 0.0 -1.0 0.0
  outer loop
    vertex 20.0 27.0 9.99999999999996
    vertex 22.565701255461967 27.000000000000007 6.241388385783036
    vertex 22.713335174061907 27.000000000000007 6.354671875865859
  endloop
endfacet
facet normal 0.0 -1.0 0.0
  outer loop
    vertex 20.0 27.0 9.99999999999996
    vertex 22.713335174061907 27.000000000000007 6.354671875865859
    vertex 23.087165654153 27.000000000000007 6.509517530748035
  endloop
endfacet
facet normal 0.0 -1.0 0.0
  outer loop
    vertex 20.0 27.0 9.99999999999996
    vertex 23.087165654153 27.000000000000007 6.509517530748035
    vertex 23.488335174061906 27.000000000000007 6.562332499999979
  endloop
endfacet
facet normal 0.0 -1.0 0.0
  outer loop
    vertex 20.0 27.0 9.99999999999996
    vertex 23.488335174061906 27.000000000000007 6.562332499999979
    vertex 26.976670348123815 27.0 9.99999999999996
  endloop
endfacet
facet normal -1.0 0.0 0.0
  outer loop
    vertex 20.0 29.500000000000004 9.99999999999996
    vertex 20.0 27.0 0.0
    vertex 20.0 27.0 9.99999999999996
  endloop
endfacet
facet normal -1.0 0.0 0.0
  outer loop
    vertex 20.0 27.0 0.0
    vertex 20.0 29.500000000000004 9.99999999999996
    vertex 20.0 29.500000000000004 0.0
  endloop
endfacet
facet normal 1.0 -0.0 -0.0
  outer loop
    vertex 26.976670348123815 29.500000000000004 0.0
    vertex 26.976670348123815 27.0 9.99999999999996
    vertex 26.976670348123815 27.0 0.0
  endloop
endfacet
facet normal 1.0 -0.0 -0.0
  outer loop
    vertex 26.976670348123815 27.0 9.99999999999996
    vertex 26.976670348123815 29.500000000000004 0.0
    vertex 26.976670348123815 29.500000000000004 9.99999999999996
  endloop
endfacet
facet normal 1.0 0.0 0.0
  outer loop
    vertex 30.97667034812381 31.0 0.0
    vertex 30.97667034812381 29.500000000000004 9.99999999999996
    vertex 30.97667034812381 29.500000000000004 0.0
  endloop
endfacet
facet normal 1.0 0.0 0.0
  outer loop
    vertex 30.97667034812381 29.500000000000004 9.99999999999996
    vertex 30.97667034812381 31.0 0.0
    vertex 30.97667034812381 31.0 9.99999999999996
  endloop
endfacet
facet normal -0.0 -1.0 -0.0
  outer loop
    vertex 30.97667034812381 29.500000000000004 9.99999999999996
    vertex 26.976670348123815 29.500000000000004 0.0
    vertex 30.97667034812381 29.500000000000004 0.0
  endloop
endfacet
facet normal -0.0 -1.0 -0.0
  outer loop
    vertex 26.976670348123815 29.500000000000004 0.0
    vertex 30.97667034812381 29.500000000000004 9.99999999999996
    vertex 26.976670348123815 29.500000000000004 9.99999999999996
  endloop
endfacet
facet normal -0.0 -1.0 -0.0
  outer loop
    vertex 20.0 29.500000000000004 9.99999999999996
    vertex 15.999999999999998 29.500000000000004 0.0
    vertex 20.0 29.500000000000004 0.0
  endloop
endfacet
facet normal -0.0 -1.0 -0.0
  outer loop
    vertex 15.999999999999998 29.500000000000004 0.0
    vertex 20.0 29.500000000000004 9.99999999999996
    vertex 15.999999999999998 29.500000000000004 9.99999999999996
  endloop
endfacet
facet normal -1.0 0.0 0.0
  outer loop
    vertex 15.999999999999998 31.0 9.99999999999996
    vertex 15.999999999999998 29.500000000000004 0.0
    vertex 15.999999999999998 29.500000000000004 9.99999999999996
  endloop
endfacet
facet normal -1.0 0.0 0.0
  outer loop
    vertex 15.999999999999998 29.500000000000004 0.0
    vertex 15.999999999999998 31.0 9.99999999999996
    vertex 15.999999999999998 31.0 0.0
  endloop
endfacet
facet normal -0.25803731505075517 0.9661349512575339 -2.476896948980645e-18
  outer loop
    vertex 15.999999999999998 31.0 9.99999999999996
    vertex 19.74416758703095 31.999999999999996 0.024664999999998664
    vertex 15.999999999999998 31.0 0.0
  endloop
endfacet
facet normal -0.25803731505075517 0.9661349512575339 -2.476896948980645e-18
  outer loop
    vertex 19.74416758703095 31.999999999999996 0.024664999999998664
    vertex 15.999999999999998 31.0 9.99999999999996
    vertex 19.74416758703095 31.999999999999996 9.99999999999996
  endloop
endfacet
facet normal -0.0 -0.0 1.0
  outer loop
    vertex 26.976670348123815 27.0 9.99999999999996
    vertex 20.0 29.500000000000004 9.99999999999996
    vertex 20.0 27.0 9.99999999999996
  endloop
endfacet
facet normal -0.0 -0.0 1.0
  outer loop
    vertex 20.0 29.500000000000004 9.99999999999996
    vertex 26.976670348123815 27.0 9.99999999999996
    vertex 23.488335174061906 32.0 9.99999999999996
  endloop
endfacet
facet normal -0.0 -0.0 1.0
  outer loop
    vertex 23.488335174061906 32.0 9.99999999999996
    vertex 26.976670348123815 27.0 9.99999999999996
    vertex 26.976670348123815 29.500000000000004 9.99999999999996
  endloop
endfacet
facet normal -0.0 -0.0 1.0
  outer loop
    vertex 23.488335174061906 32.0 9.99999999999996
    vertex 26.976670348123815 29.500000000000004 9.99999999999996
    vertex 27.23250276109286 31.999999999999996 9.99999999999996
  endloop
endfacet
facet normal -0.0 -0.0 1.0
  outer loop
    vertex 27.23250276109286 31.999999999999996 9.99999999999996
    vertex 26.976670348123815 29.500000000000004 9.99999999999996
    vertex 30.97667034812381 29.500000000000004 9.99999999999996
  endloop
endfacet
facet normal -0.0 -0.0 1.0
  outer loop
    vertex 27.23250276109286 31.999999999999996 9.99999999999996
    vertex 30.97667034812381 29.500000000000004 9.99999999999996
    vertex 30.97667034812381 31.0 9.99999999999996
  endloop
endfacet
facet normal -0.0 -0.0 1.0
  outer loop
    vertex 20.0 29.500000000000004 9.99999999999996
    vertex 15.999999999999998 31.0 9.99999999999996
    vertex 15.999999999999998 29.500000000000004 9.99999999999996
  endloop
endfacet
facet normal -0.0 -0.0 1.0
  outer loop
    vertex 15.999999999999998 31.0 9.99999999999996
    vertex 20.0 29.500000000000004 9.99999999999996
    vertex 19.74416758703095 31.999999999999996 9.99999999999996
  endloop
endfacet
facet normal -0.0 -0.0 1.0
  outer loop
    vertex 19.74416758703095 31.999999999999996 9.99999999999996
    vertex 20.0 29.500000000000004 9.99999999999996
    vertex 23.488335174061906 32.0 9.99999999999996
  endloop
endfacet
facet normal -0.00211100416459388 0.004686113437277811 -0.9999867919139084
  outer loop
    vertex 27.23250276109286 31.999999999999996 0.024664999999998664
    vertex 23.488335174061906 27.0 0.0
    vertex 23.488335174061906 32.0 0.024664999999998664
  endloop
endfacet
facet normal -0.00211100416459388 0.004686113437277811 -0.9999867919139084
  outer loop
    vertex 23.488335174061906 27.0 0.0
    vertex 27.23250276109286 31.999999999999996 0.024664999999998664
    vertex 26.976670348123815 29.500000000000004 0.0
  endloop
endfacet
facet normal -0.00211100416459388 0.004686113437277811 -0.9999867919139084
  outer loop
    vertex 26.976670348123815 29.500000000000004 0.0
    vertex 27.23250276109286 31.999999999999996 0.024664999999998664
    vertex 30.97667034812381 29.500000000000004 0.0
  endloop
endfacet
facet normal -0.00211100416459388 0.004686113437277811 -0.9999867919139084
  outer loop
    vertex 30.97667034812381 29.500000000000004 0.0
    vertex 27.23250276109286 31.999999999999996 0.024664999999998664
    vertex 30.97667034812381 31.0 0.0
  endloop
endfacet
facet normal -0.00211100416459388 0.004686113437277811 -0.9999867919139084
  outer loop
    vertex 26.976670348123815 27.0 0.0
    vertex 23.488335174061906 27.0 0.0
    vertex 26.976670348123815 29.500000000000004 0.0
  endloop
endfacet
facet normal 0.002167369261097243 0.00744297216322579 -0.9999699518864872
  outer loop
    vertex 19.74416758703095 31.999999999999996 0.024664999999998664
    vertex 15.999999999999998 29.500000000000004 0.0
    vertex 15.999999999999998 31.0 0.0
  endloop
endfacet
facet normal 0.002167369261097243 0.00744297216322579 -0.9999699518864872
  outer loop
    vertex 15.999999999999998 29.500000000000004 0.0
    vertex 19.74416758703095 31.999999999999996 0.024664999999998664
    vertex 20.0 29.500000000000004 0.0
  endloop
endfacet
facet normal 0.002167369261097244 0.00744297216322579 -0.9999699518864872
  outer loop
    vertex 19.74416758703095 31.999999999999996 0.024664999999998664
    vertex 15.999999999999998 29.500000000000004 0.0
    vertex 15.999999999999998 31.0 0.0
  endloop
endfacet
facet normal 0.002167369261097244 0.00744297216322579 -0.9999699518864872
  outer loop
    vertex 15.999999999999998 29.500000000000004 0.0
    vertex 19.74416758703095 31.999999999999996 0.024664999999998664
    vertex 20.0 29.500000000000004 0.0
  endloop
endfacet
facet normal 0.001079768360143781 0.0049605604048418355 -0.9999871133873468
  outer loop
    vertex 23.488335174061906 32.0 0.024664999999998664
    vertex 20.0 29.500000000000004 0.0
    vertex 19.74416758703095 31.999999999999996 0.024664999999998664
  endloop
endfacet
facet normal 0.001079768360143781 0.0049605604048418355 -0.9999871133873468
  outer loop
    vertex 20.0 29.500000000000004 0.0
    vertex 23.488335174061906 32.0 0.024664999999998664
    vertex 20.0 27.0 0.0
  endloop
endfacet
facet normal 0.001079768360143781 0.0049605604048418355 -0.9999871133873468
  outer loop
    vertex 20.0 27.0 0.0
    vertex 23.488335174061906 32.0 0.024664999999998664
    vertex 23.488335174061906 27.0 0.0
  endloop
endfacet
facet normal 0.0021673692610972434 0.007442972163225791 -0.9999699518864872
  outer loop
    vertex 19.74416758703095 31.999999999999996 0.024664999999998664
    vertex 15.999999999999998 29.500000000000004 0.0
    vertex 15.999999999999998 31.0 0.0
  endloop
endfacet
facet normal 0.0021673692610972434 0.007442972163225791 -0.9999699518864872
  outer loop
    vertex 15.999999999999998 29.500000000000004 0.0
    vertex 19.74416758703095 31.999999999999996 0.024664999999998664
    vertex 20.0 29.500000000000004 0.0
  endloop
endfacet
facet normal 1.3585268214251032e-15 1.0 -1.27934780512151e-15
  outer loop
    vertex 24.263335174061908 31.999999999999996 6.354671875865859
    vertex 27.23250276109286 31.999999999999996 9.99999999999996
    vertex 24.410969092661844 31.999999999999996 6.241388385783037
  endloop
endfacet
facet normal 1.3585268214251032e-15 1.0 -1.27934780512151e-15
  outer loop
    vertex 27.23250276109286 31.999999999999996 9.99999999999996
    vertex 24.263335174061908 31.999999999999996 6.354671875865859
    vertex 23.889504693970814 31.999999999999996 6.509517530748034
  endloop
endfacet
facet normal 1.3585268214251032e-15 1.0 -1.27934780512151e-15
  outer loop
    vertex 27.23250276109286 31.999999999999996 9.99999999999996
    vertex 23.889504693970814 31.999999999999996 6.509517530748034
    vertex 23.488335174061906 31.999999999999996 6.562332499999979
  endloop
endfacet
facet normal 1.3585268214251032e-15 1.0 -1.27934780512151e-15
  outer loop
    vertex 27.23250276109286 31.999999999999996 9.99999999999996
    vertex 23.488335174061906 31.999999999999996 6.562332499999979
    vertex 23.488335174061906 32.0 9.99999999999996
  endloop
endfacet
facet normal -1.3585268214251027e-15 1.0 -1.2793478051215098e-15
  outer loop
    vertex 19.74416758703095 31.999999999999996 9.99999999999996
    vertex 22.713335174061907 31.999999999999996 6.354671875865859
    vertex 22.565701255461967 31.999999999999996 6.241388385783036
  endloop
endfacet
facet normal -1.3585268214251027e-15 1.0 -1.2793478051215098e-15
  outer loop
    vertex 22.713335174061907 31.999999999999996 6.354671875865859
    vertex 19.74416758703095 31.999999999999996 9.99999999999996
    vertex 23.087165654153 31.999999999999996 6.509517530748035
  endloop
endfacet
facet normal -1.3585268214251027e-15 1.0 -1.2793478051215098e-15
  outer loop
    vertex 23.087165654153 31.999999999999996 6.509517530748035
    vertex 19.74416758703095 31.999999999999996 9.99999999999996
    vertex 23.488335174061906 31.999999999999996 6.562332499999979
  endloop
endfacet
facet normal -1.3585268214251027e-15 1.0 -1.2793478051215098e-15
  outer loop
    vertex 23.488335174061906 31.999999999999996 6.562332499999979
    vertex 19.74416758703095 31.999999999999996 9.99999999999996
    vertex 23.488335174061906 32.0 9.99999999999996
  endloop
endfacet
facet normal -0.0 1.0 -0.0
  outer loop
    vertex 27.23250276109286 31.999999999999996 0.024664999999998664
    vertex 24.830674549927785 31.999999999999996 4.237332499999978
    vertex 27.23250276109286 31.999999999999996 9.99999999999996
  endloop
endfacet
facet normal -0.0 1.0 -0.0
  outer loop
    vertex 24.830674549927785 31.999999999999996 4.237332499999978
    vertex 27.23250276109286 31.999999999999996 0.024664999999998664
    vertex 24.584350684901054 31.999999999999996 3.9163169891608303
  endloop
endfacet
facet normal -0.0 1.0 -0.0
  outer loop
    vertex 24.584350684901054 31.999999999999996 3.9163169891608303
    vertex 27.23250276109286 31.999999999999996 0.024664999999998664
    vertex 24.410969092661844 31.999999999999996 3.7832766142169207
  endloop
endfacet
facet normal -0.0 1.0 -0.0
  outer loop
    vertex 27.23250276109286 31.999999999999996 9.99999999999996
    vertex 24.830674549927785 31.999999999999996 4.237332499999978
    vertex 24.985520204809962 31.999999999999996 4.611162980091072
  endloop
endfacet
facet normal -0.0 1.0 -0.0
  outer loop
    vertex 27.23250276109286 31.999999999999996 9.99999999999996
    vertex 24.985520204809962 31.999999999999996 4.611162980091072
    vertex 25.038335174061906 31.999999999999996 5.012332499999978
  endloop
endfacet
facet normal -0.0 1.0 -0.0
  outer loop
    vertex 27.23250276109286 31.999999999999996 9.99999999999996
    vertex 25.038335174061906 31.999999999999996 5.012332499999978
    vertex 24.985520204809962 31.999999999999996 5.4135020199088855
  endloop
endfacet
facet normal -0.0 1.0 -0.0
  outer loop
    vertex 27.23250276109286 31.999999999999996 9.99999999999996
    vertex 24.985520204809962 31.999999999999996 5.4135020199088855
    vertex 24.830674549927785 31.999999999999996 5.7873324999999785
  endloop
endfacet
facet normal -0.0 1.0 -0.0
  outer loop
    vertex 27.23250276109286 31.999999999999996 9.99999999999996
    vertex 24.830674549927785 31.999999999999996 5.7873324999999785
    vertex 24.584350684901054 31.999999999999996 6.108348010839127
  endloop
endfacet
facet normal -0.0 1.0 -0.0
  outer loop
    vertex 27.23250276109286 31.999999999999996 9.99999999999996
    vertex 24.584350684901054 31.999999999999996 6.108348010839127
    vertex 24.410969092661844 31.999999999999996 6.241388385783037
  endloop
endfacet
facet normal -1.692300866364518e-15 1.0 1.3421835759831619e-15
  outer loop
    vertex 22.565701255461967 31.999999999999996 3.7832766142169203
    vertex 23.488335174061906 32.0 0.024664999999998664
    vertex 19.74416758703095 31.999999999999996 0.024664999999998664
  endloop
endfacet
facet normal -1.692300866364518e-15 1.0 1.3421835759831619e-15
  outer loop
    vertex 23.488335174061906 32.0 0.024664999999998664
    vertex 22.565701255461967 31.999999999999996 3.7832766142169203
    vertex 23.488335174061906 32.0 2.749999999999958
  endloop
endfacet
facet normal -1.692300866364518e-15 1.0 1.3421835759831619e-15
  outer loop
    vertex 23.488335174061906 32.0 2.749999999999958
    vertex 22.565701255461967 31.999999999999996 3.7832766142169203
    vertex 22.713335174061903 31.999999999999996 3.6699931241340984
  endloop
endfacet
facet normal -1.692300866364518e-15 1.0 1.3421835759831619e-15
  outer loop
    vertex 23.488335174061906 32.0 2.749999999999958
    vertex 22.713335174061903 31.999999999999996 3.6699931241340984
    vertex 23.087165654152997 31.999999999999996 3.515147469251923
  endloop
endfacet
facet normal -1.692300866364518e-15 1.0 1.3421835759831619e-15
  outer loop
    vertex 23.488335174061906 32.0 2.749999999999958
    vertex 23.087165654152997 31.999999999999996 3.515147469251923
    vertex 23.488335174061906 31.999999999999996 3.4623324999999787
  endloop
endfacet
facet normal -0.0 1.0 -0.0
  outer loop
    vertex 19.74416758703095 31.999999999999996 0.024664999999998664
    vertex 22.392319663222757 31.999999999999996 3.9163169891608303
    vertex 22.565701255461967 31.999999999999996 3.7832766142169203
  endloop
endfacet
facet normal -0.0 1.0 -0.0
  outer loop
    vertex 22.392319663222757 31.999999999999996 3.9163169891608303
    vertex 19.74416758703095 31.999999999999996 0.024664999999998664
    vertex 22.145995798196026 31.999999999999996 4.237332499999979
  endloop
endfacet
facet normal -0.0 1.0 -0.0
  outer loop
    vertex 22.145995798196026 31.999999999999996 4.237332499999979
    vertex 19.74416758703095 31.999999999999996 0.024664999999998664
    vertex 19.74416758703095 31.999999999999996 9.99999999999996
  endloop
endfacet
facet normal -0.0 1.0 -0.0
  outer loop
    vertex 22.145995798196026 31.999999999999996 4.237332499999979
    vertex 19.74416758703095 31.999999999999996 9.99999999999996
    vertex 21.991150143313853 31.999999999999996 4.611162980091072
  endloop
endfacet
facet normal -0.0 1.0 -0.0
  outer loop
    vertex 21.991150143313853 31.999999999999996 4.611162980091072
    vertex 19.74416758703095 31.999999999999996 9.99999999999996
    vertex 21.938335174061905 31.999999999999996 5.012332499999978
  endloop
endfacet
facet normal -0.0 1.0 -0.0
  outer loop
    vertex 21.938335174061905 31.999999999999996 5.012332499999978
    vertex 19.74416758703095 31.999999999999996 9.99999999999996
    vertex 21.991150143313853 31.999999999999996 5.413502019908886
  endloop
endfacet
facet normal -0.0 1.0 -0.0
  outer loop
    vertex 21.991150143313853 31.999999999999996 5.413502019908886
    vertex 19.74416758703095 31.999999999999996 9.99999999999996
    vertex 22.145995798196026 31.999999999999996 5.787332499999979
  endloop
endfacet
facet normal -0.0 1.0 -0.0
  outer loop
    vertex 22.145995798196026 31.999999999999996 5.787332499999979
    vertex 19.74416758703095 31.999999999999996 9.99999999999996
    vertex 22.392319663222757 31.999999999999996 6.108348010839127
  endloop
endfacet
facet normal -0.0 1.0 -0.0
  outer loop
    vertex 22.392319663222757 31.999999999999996 6.108348010839127
    vertex 19.74416758703095 31.999999999999996 9.99999999999996
    vertex 22.565701255461967 31.999999999999996 6.241388385783036
  endloop
endfacet
facet normal 1.6923008663645189e-15 1.0 1.3421835759831625e-15
  outer loop
    vertex 23.488335174061906 32.0 2.749999999999958
    vertex 27.23250276109286 31.999999999999996 0.024664999999998664
    vertex 23.488335174061906 32.0 0.024664999999998664
  endloop
endfacet
facet normal 1.6923008663645189e-15 1.0 1.3421835759831625e-15
  outer loop
    vertex 27.23250276109286 31.999999999999996 0.024664999999998664
    vertex 23.488335174061906 32.0 2.749999999999958
    vertex 24.410969092661844 31.999999999999996 3.7832766142169207
  endloop
endfacet
facet normal 1.6923008663645189e-15 1.0 1.3421835759831625e-15
  outer loop
    vertex 24.410969092661844 31.999999999999996 3.7832766142169207
    vertex 23.488335174061906 32.0 2.749999999999958
    vertex 24.263335174061904 31.999999999999996 3.6699931241340984
  endloop
endfacet
facet normal 1.6923008663645189e-15 1.0 1.3421835759831625e-15
  outer loop
    vertex 24.263335174061904 31.999999999999996 3.6699931241340984
    vertex 23.488335174061906 32.0 2.749999999999958
    vertex 23.889504693970814 31.999999999999996 3.515147469251923
  endloop
endfacet
facet normal 1.6923008663645189e-15 1.0 1.3421835759831625e-15
  outer loop
    vertex 23.889504693970814 31.999999999999996 3.515147469251923
    vertex 23.488335174061906 32.0 2.749999999999958
    vertex 23.488335174061906 31.999999999999996 3.4623324999999787
  endloop
endfacet
facet normal -0.6087614290087192 -0.0 0.7933533402912363
  outer loop
    vertex 24.584350684901054 27.000000000000007 3.9163169891608303
    vertex 24.410969092661844 31.999999999999996 3.7832766142169207
    vertex 24.410969092661844 27.000000000000007 3.7832766142169207
  endloop
endfacet
facet normal -0.6087614290087192 -0.0 0.7933533402912363
  outer loop
    vertex 24.410969092661844 31.999999999999996 3.7832766142169207
    vertex 24.584350684901054 27.000000000000007 3.9163169891608303
    vertex 24.584350684901054 31.999999999999996 3.9163169891608303
  endloop
endfacet
facet normal -0.608761429008718 -0.0 0.7933533402912373
  outer loop
    vertex 24.410969092661844 27.000000000000007 3.7832766142169207
    vertex 24.263335174061904 31.999999999999996 3.6699931241340984
    vertex 24.263335174061904 27.000000000000007 3.6699931241340984
  endloop
endfacet
facet normal -0.608761429008718 -0.0 0.7933533402912373
  outer loop
    vertex 24.263335174061904 31.999999999999996 3.6699931241340984
    vertex 24.410969092661844 27.000000000000007 3.7832766142169207
    vertex 24.410969092661844 31.999999999999996 3.7832766142169207
  endloop
endfacet
facet normal -0.3826834323650908 -0.0 0.9238795325112864
  outer loop
    vertex 24.263335174061904 27.000000000000007 3.6699931241340984
    vertex 23.889504693970814 31.999999999999996 3.515147469251923
    vertex 23.889504693970814 27.000000000000007 3.515147469251923
  endloop
endfacet
facet normal -0.3826834323650908 -0.0 0.9238795325112864
  outer loop
    vertex 23.889504693970814 31.999999999999996 3.515147469251923
    vertex 24.263335174061904 27.000000000000007 3.6699931241340984
    vertex 24.263335174061904 31.999999999999996 3.6699931241340984
  endloop
endfacet
facet normal -0.13052619222005182 -0.0 0.9914448613738104
  outer loop
    vertex 23.889504693970814 27.000000000000007 3.515147469251923
    vertex 23.488335174061906 31.999999999999996 3.4623324999999787
    vertex 23.488335174061906 27.000000000000007 3.4623324999999787
  endloop
endfacet
facet normal -0.13052619222005182 -0.0 0.9914448613738104
  outer loop
    vertex 23.488335174061906 31.999999999999996 3.4623324999999787
    vertex 23.889504693970814 27.000000000000007 3.515147469251923
    vertex 23.889504693970814 31.999999999999996 3.515147469251923
  endloop
endfacet
facet normal 0.13052619222005182 0.0 0.9914448613738104
  outer loop
    vertex 23.488335174061906 27.000000000000007 3.4623324999999787
    vertex 23.087165654152997 31.999999999999996 3.515147469251923
    vertex 23.087165654152997 27.000000000000007 3.515147469251923
  endloop
endfacet
facet normal 0.13052619222005182 0.0 0.9914448613738104
  outer loop
    vertex 23.087165654152997 31.999999999999996 3.515147469251923
    vertex 23.488335174061906 27.000000000000007 3.4623324999999787
    vertex 23.488335174061906 31.999999999999996 3.4623324999999787
  endloop
endfacet
facet normal 0.3826834323650884 0.0 0.9238795325112875
  outer loop
    vertex 23.087165654152997 27.000000000000007 3.515147469251923
    vertex 22.713335174061903 31.999999999999996 3.6699931241340984
    vertex 22.713335174061903 27.000000000000007 3.6699931241340984
  endloop
endfacet
facet normal 0.3826834323650884 0.0 0.9238795325112875
  outer loop
    vertex 22.713335174061903 31.999999999999996 3.6699931241340984
    vertex 23.087165654152997 27.000000000000007 3.515147469251923
    vertex 23.087165654152997 31.999999999999996 3.515147469251923
  endloop
endfacet
facet normal 0.608761429008723 0.0 0.7933533402912335
  outer loop
    vertex 22.713335174061903 27.000000000000007 3.6699931241340984
    vertex 22.565701255461967 31.999999999999996 3.7832766142169203
    vertex 22.565701255461967 27.000000000000007 3.7832766142169203
  endloop
endfacet
facet normal 0.608761429008723 0.0 0.7933533402912335
  outer loop
    vertex 22.565701255461967 31.999999999999996 3.7832766142169203
    vertex 22.713335174061903 27.000000000000007 3.6699931241340984
    vertex 22.713335174061903 31.999999999999996 3.6699931241340984
  endloop
endfacet
facet normal 0.6087614290087213 0.0 0.7933533402912347
  outer loop
    vertex 22.565701255461967 27.000000000000007 3.7832766142169203
    vertex 22.392319663222757 31.999999999999996 3.9163169891608303
    vertex 22.392319663222757 27.000000000000007 3.9163169891608303
  endloop
endfacet
facet normal 0.6087614290087213 0.0 0.7933533402912347
  outer loop
    vertex 22.392319663222757 31.999999999999996 3.9163169891608303
    vertex 22.565701255461967 27.000000000000007 3.7832766142169203
    vertex 22.565701255461967 31.999999999999996 3.7832766142169203
  endloop
endfacet
facet normal 0.7933533402912375 0.0 0.6087614290087177
  outer loop
    vertex 22.392319663222757 31.999999999999996 3.9163169891608303
    vertex 22.145995798196026 27.000000000000007 4.237332499999979
    vertex 22.392319663222757 27.000000000000007 3.9163169891608303
  endloop
endfacet
facet normal 0.7933533402912375 0.0 0.6087614290087177
  outer loop
    vertex 22.145995798196026 27.000000000000007 4.237332499999979
    vertex 22.392319663222757 31.999999999999996 3.9163169891608303
    vertex 22.145995798196026 31.999999999999996 4.237332499999979
  endloop
endfacet
facet normal 0.9238795325112866 0.0 0.3826834323650905
  outer loop
    vertex 22.145995798196026 31.999999999999996 4.237332499999979
    vertex 21.991150143313853 27.000000000000007 4.611162980091072
    vertex 22.145995798196026 27.000000000000007 4.237332499999979
  endloop
endfacet
facet normal 0.9238795325112866 0.0 0.3826834323650905
  outer loop
    vertex 21.991150143313853 27.000000000000007 4.611162980091072
    vertex 22.145995798196026 31.999999999999996 4.237332499999979
    vertex 21.991150143313853 31.999999999999996 4.611162980091072
  endloop
endfacet
facet normal 0.9914448613738102 0.0 0.13052619222005374
  outer loop
    vertex 21.991150143313853 31.999999999999996 4.611162980091072
    vertex 21.938335174061905 27.000000000000007 5.012332499999978
    vertex 21.991150143313853 27.000000000000007 4.611162980091072
  endloop
endfacet
facet normal 0.9914448613738102 0.0 0.13052619222005374
  outer loop
    vertex 21.938335174061905 27.000000000000007 5.012332499999978
    vertex 21.991150143313853 31.999999999999996 4.611162980091072
    vertex 21.938335174061905 31.999999999999996 5.012332499999978
  endloop
endfacet
facet normal 0.9914448613738102 -0.0 -0.13052619222005352
  outer loop
    vertex 21.938335174061905 31.999999999999996 5.012332499999978
    vertex 21.991150143313853 27.000000000000007 5.413502019908886
    vertex 21.938335174061905 27.000000000000007 5.012332499999978
  endloop
endfacet
facet normal 0.9914448613738102 -0.0 -0.13052619222005352
  outer loop
    vertex 21.991150143313853 27.000000000000007 5.413502019908886
    vertex 21.938335174061905 31.999999999999996 5.012332499999978
    vertex 21.991150143313853 31.999999999999996 5.413502019908886
  endloop
endfacet
facet normal 0.9238795325112866 -0.0 -0.3826834323650905
  outer loop
    vertex 21.991150143313853 31.999999999999996 5.413502019908886
    vertex 22.145995798196026 27.000000000000007 5.787332499999979
    vertex 21.991150143313853 27.000000000000007 5.413502019908886
  endloop
endfacet
facet normal 0.9238795325112866 -0.0 -0.3826834323650905
  outer loop
    vertex 22.145995798196026 27.000000000000007 5.787332499999979
    vertex 21.991150143313853 31.999999999999996 5.413502019908886
    vertex 22.145995798196026 31.999999999999996 5.787332499999979
  endloop
endfacet
facet normal 0.7933533402912375 -0.0 -0.6087614290087177
  outer loop
    vertex 22.145995798196026 31.999999999999996 5.787332499999979
    vertex 22.392319663222757 27.000000000000007 6.108348010839127
    vertex 22.145995798196026 27.000000000000007 5.787332499999979
  endloop
endfacet
facet normal 0.7933533402912375 -0.0 -0.6087614290087177
  outer loop
    vertex 22.392319663222757 27.000000000000007 6.108348010839127
    vertex 22.145995798196026 31.999999999999996 5.787332499999979
    vertex 22.392319663222757 31.999999999999996 6.108348010839127
  endloop
endfacet
facet normal 0.6087614290087172 -0.0 -0.7933533402912379
  outer loop
    vertex 22.565701255461967 31.999999999999996 6.241388385783036
    vertex 22.392319663222757 27.000000000000007 6.108348010839127
    vertex 22.392319663222757 31.999999999999996 6.108348010839127
  endloop
endfacet
facet normal 0.6087614290087172 -0.0 -0.7933533402912379
  outer loop
    vertex 22.392319663222757 27.000000000000007 6.108348010839127
    vertex 22.565701255461967 31.999999999999996 6.241388385783036
    vertex 22.565701255461967 27.000000000000007 6.241388385783036
  endloop
endfacet
facet normal 0.608761429008718 -0.0 -0.7933533402912373
  outer loop
    vertex 22.713335174061907 31.999999999999996 6.354671875865859
    vertex 22.565701255461967 27.000000000000007 6.241388385783036
    vertex 22.565701255461967 31.999999999999996 6.241388385783036
  endloop
endfacet
facet normal 0.608761429008718 -0.0 -0.7933533402912373
  outer loop
    vertex 22.565701255461967 27.000000000000007 6.241388385783036
    vertex 22.713335174061907 31.999999999999996 6.354671875865859
    vertex 22.713335174061907 27.000000000000007 6.354671875865859
  endloop
endfacet
facet normal 0.38268343236508984 -0.0 -0.9238795325112868
  outer loop
    vertex 23.087165654153 31.999999999999996 6.509517530748035
    vertex 22.713335174061907 27.000000000000007 6.354671875865859
    vertex 22.713335174061907 31.999999999999996 6.354671875865859
  endloop
endfacet
facet normal 0.38268343236508984 -0.0 -0.9238795325112868
  outer loop
    vertex 22.713335174061907 27.000000000000007 6.354671875865859
    vertex 23.087165654153 31.999999999999996 6.509517530748035
    vertex 23.087165654153 27.000000000000007 6.509517530748035
  endloop
endfacet
facet normal 0.13052619222005102 -0.0 -0.9914448613738105
  outer loop
    vertex 23.488335174061906 31.999999999999996 6.562332499999979
    vertex 23.087165654153 27.000000000000007 6.509517530748035
    vertex 23.087165654153 31.999999999999996 6.509517530748035
  endloop
endfacet
facet normal 0.13052619222005102 -0.0 -0.9914448613738105
  outer loop
    vertex 23.087165654153 27.000000000000007 6.509517530748035
    vertex 23.488335174061906 31.999999999999996 6.562332499999979
    vertex 23.488335174061906 27.000000000000007 6.562332499999979
  endloop
endfacet
facet normal -0.13052619222005352 -0.0 -0.9914448613738102
  outer loop
    vertex 23.889504693970814 31.999999999999996 6.509517530748034
    vertex 23.488335174061906 27.000000000000007 6.562332499999979
    vertex 23.488335174061906 31.999999999999996 6.562332499999979
  endloop
endfacet
facet normal -0.13052619222005352 -0.0 -0.9914448613738102
  outer loop
    vertex 23.488335174061906 27.000000000000007 6.562332499999979
    vertex 23.889504693970814 31.999999999999996 6.509517530748034
    vertex 23.889504693970814 27.000000000000007 6.509517530748034
  endloop
endfacet
facet normal -0.3826834323650869 -0.0 -0.9238795325112882
  outer loop
    vertex 24.263335174061908 31.999999999999996 6.354671875865859
    vertex 23.889504693970814 27.000000000000007 6.509517530748034
    vertex 23.889504693970814 31.999999999999996 6.509517530748034
  endloop
endfacet
facet normal -0.3826834323650869 -0.0 -0.9238795325112882
  outer loop
    vertex 23.889504693970814 27.000000000000007 6.509517530748034
    vertex 24.263335174061908 31.999999999999996 6.354671875865859
    vertex 24.263335174061908 27.000000000000007 6.354671875865859
  endloop
endfacet
facet normal -0.6087614290087207 -0.0 -0.7933533402912353
  outer loop
    vertex 24.410969092661844 31.999999999999996 6.241388385783037
    vertex 24.263335174061908 27.000000000000007 6.354671875865859
    vertex 24.263335174061908 31.999999999999996 6.354671875865859
  endloop
endfacet
facet normal -0.6087614290087207 -0.0 -0.7933533402912353
  outer loop
    vertex 24.263335174061908 27.000000000000007 6.354671875865859
    vertex 24.410969092661844 31.999999999999996 6.241388385783037
    vertex 24.410969092661844 27.000000000000007 6.241388385783037
  endloop
endfacet
facet normal -0.6087614290087233 -0.0 -0.7933533402912333
  outer loop
    vertex 24.584350684901054 31.999999999999996 6.108348010839127
    vertex 24.410969092661844 27.000000000000007 6.241388385783037
    vertex 24.410969092661844 31.999999999999996 6.241388385783037
  endloop
endfacet
facet normal -0.6087614290087233 -0.0 -0.7933533402912333
  outer loop
    vertex 24.410969092661844 27.000000000000007 6.241388385783037
    vertex 24.584350684901054 31.999999999999996 6.108348010839127
    vertex 24.584350684901054 27.000000000000007 6.108348010839127
  endloop
endfacet
facet normal -0.7933533402912375 -0.0 -0.6087614290087177
  outer loop
    vertex 24.584350684901054 31.999999999999996 6.108348010839127
    vertex 24.830674549927785 27.000000000000007 5.7873324999999785
    vertex 24.584350684901054 27.000000000000007 6.108348010839127
  endloop
endfacet
facet normal -0.7933533402912375 -0.0 -0.6087614290087177
  outer loop
    vertex 24.830674549927785 27.000000000000007 5.7873324999999785
    vertex 24.584350684901054 31.999999999999996 6.108348010839127
    vertex 24.830674549927785 31.999999999999996 5.7873324999999785
  endloop
endfacet
facet normal -0.9238795325112868 -0.0 -0.38268343236508984
  outer loop
    vertex 24.830674549927785 31.999999999999996 5.7873324999999785
    vertex 24.985520204809962 27.000000000000007 5.4135020199088855
    vertex 24.830674549927785 27.000000000000007 5.7873324999999785
  endloop
endfacet
facet normal -0.9238795325112868 -0.0 -0.38268343236508984
  outer loop
    vertex 24.985520204809962 27.000000000000007 5.4135020199088855
    vertex 24.830674549927785 31.999999999999996 5.7873324999999785
    vertex 24.985520204809962 31.999999999999996 5.4135020199088855
  endloop
endfacet
facet normal -0.9914448613738102 -0.0 -0.130526192220054
  outer loop
    vertex 24.985520204809962 31.999999999999996 5.4135020199088855
    vertex 25.038335174061906 27.000000000000007 5.012332499999978
    vertex 24.985520204809962 27.000000000000007 5.4135020199088855
  endloop
endfacet
facet normal -0.9914448613738102 -0.0 -0.130526192220054
  outer loop
    vertex 25.038335174061906 27.000000000000007 5.012332499999978
    vertex 24.985520204809962 31.999999999999996 5.4135020199088855
    vertex 25.038335174061906 31.999999999999996 5.012332499999978
  endloop
endfacet
facet normal -0.9914448613738102 -0.0 0.13052619222005374
  outer loop
    vertex 25.038335174061906 31.999999999999996 5.012332499999978
    vertex 24.985520204809962 27.000000000000007 4.611162980091072
    vertex 25.038335174061906 27.000000000000007 5.012332499999978
  endloop
endfacet
facet normal -0.9914448613738102 -0.0 0.13052619222005374
  outer loop
    vertex 24.985520204809962 27.000000000000007 4.611162980091072
    vertex 25.038335174061906 31.999999999999996 5.012332499999978
    vertex 24.985520204809962 31.999999999999996 4.611162980091072
  endloop
endfacet
facet normal -0.9238795325112868 -0.0 0.38268343236508984
  outer loop
    vertex 24.985520204809962 31.999999999999996 4.611162980091072
    vertex 24.830674549927785 27.000000000000007 4.237332499999978
    vertex 24.985520204809962 27.000000000000007 4.611162980091072
  endloop
endfacet
facet normal -0.9238795325112868 -0.0 0.38268343236508984
  outer loop
    vertex 24.830674549927785 27.000000000000007 4.237332499999978
    vertex 24.985520204809962 31.999999999999996 4.611162980091072
    vertex 24.830674549927785 31.999999999999996 4.237332499999978
  endloop
endfacet
facet normal -0.7933533402912369 -0.0 0.6087614290087185
  outer loop
    vertex 24.830674549927785 31.999999999999996 4.237332499999978
    vertex 24.584350684901054 27.000000000000007 3.9163169891608303
    vertex 24.830674549927785 27.000000000000007 4.237332499999978
  endloop
endfacet
facet normal -0.7933533402912369 -0.0 0.6087614290087185
  outer loop
    vertex 24.584350684901054 27.000000000000007 3.9163169891608303
    vertex 24.830674549927785 31.999999999999996 4.237332499999978
    vertex 24.584350684901054 31.999999999999996 3.9163169891608303
  endloop
endfacet
endsolid nutenstein
