solid nutenstein
facet normal 0.25803731505075517 0.9661349512575339 -2.476896948980645e-18
  outer loop
    vertex 27.23250276109286 31.999999999999996 0.024664999999998664
    vertex 30.97667034812381 31.0 9.99999999999996
    vertex 30.97667034812381 31.0 0.0
  endloop
endfacet
facet normal 0.25803731505075517 0.9661349512575339 -2.476896948980645e-18
  outer loop
    vertex 30.97667034812381 31.0 9.99999999999996
    vertex 27.23250276109286 31.999999999999996 0.024664999999998664
    vertex 27.23250276109286 31.999999999999996 9.99999999999996
  endloop
endfacet
facet normal 0.0 -1.0 0.0
  outer loop
    vertex 26.976670348123815 27.0 0.0
    vertex 25.436892332576893 26.999999999999996 3.874999999999958
    vertex 23.488335174061906 27.0 0.0
  endloop
endfacet
facet normal 0.0 -1.0 0.0
  outer loop
    vertex 25.436892332576893 26.999999999999996 3.874999999999958
    vertex 26.976670348123815 27.0 0.0
    vertex 25.66166828321231 26.999999999999996 4.417657148519287
  endloop
endfacet
facet normal 0.0 -1.0 0.0
  outer loop
    vertex 25.66166828321231 26.999999999999996 4.417657148519287
    vertex 26.976670348123815 27.0 0.0
    vertex 26.976670348123815 27.0 9.99999999999996
  endloop
endfacet
facet normal 0.0 -1.0 0.0
  outer loop
    vertex 23.488335174061906 27.0 0.0
    vertex 25.436892332576893 26.999999999999996 3.874999999999958
    vertex 25.07932543173164 26.999999999999996 3.409009742330226
  endloop
endfacet
facet normal 0.0 -1.0 0.0
  outer loop
    vertex 23.488335174061906 27.0 0.0
    vertex 25.07932543173164 26.999999999999996 3.409009742330226
    vertex 24.613335174061906 26.999999999999996 3.051442841484971
  endloop
endfacet
facet normal 0.0 -1.0 0.0
  outer loop
    vertex 23.488335174061906 27.0 0.0
    vertex 24.613335174061906 26.999999999999996 3.051442841484971
    vertex 20.0 27.0 0.0
  endloop
endfacet
facet normal 0.0 -1.0 0.0
  outer loop
    vertex 20.0 27.0 0.0
    vertex 24.613335174061906 26.999999999999996 3.051442841484971
    vertex 24.070678025542577 26.999999999999996 2.826666890849554
  endloop
endfacet
facet normal 0.0 -1.0 0.0
  outer loop
    vertex 20.0 27.0 0.0
    vertex 24.070678025542577 26.999999999999996 2.826666890849554
    vertex 23.488335174061906 26.999999999999996 2.749999999999958
  endloop
endfacet
facet normal 0.0 -1.0 0.0
  outer loop
    vertex 25.436892332576893 26.999999999999996 3.874999999999958
    vertex 25.66166828321231 26.999999999999996 4.417657148519287
    vertex 25.62072603348499 26.999999999999996 4.318813813953522
  endloop
endfacet
facet normal 0.0 -1.0 0.0
  outer loop
    vertex 25.66166828321231 26.999999999999996 4.417657148519287
    vertex 26.976670348123815 27.0 9.99999999999996
    vertex 25.73833517406191 26.999999999999996 4.999999999999959
  endloop
endfacet
facet normal 0.0 -1.0 0.0
  outer loop
    vertex 25.73833517406191 26.999999999999996 4.999999999999959
    vertex 26.976670348123815 27.0 9.99999999999996
    vertex 25.66166828321231 26.999999999999996 5.582342851480631
  endloop
endfacet
facet normal 0.0 -1.0 0.0
  outer loop
    vertex 25.66166828321231 26.999999999999996 5.582342851480631
    vertex 26.976670348123815 27.0 9.99999999999996
    vertex 25.436892332576893 26.999999999999996 6.124999999999959
  endloop
endfacet
facet normal 0.0 -1.0 0.0
  outer loop
    vertex 25.436892332576893 26.999999999999996 6.124999999999959
    vertex 26.976670348123815 27.0 9.99999999999996
    vertex 25.07932543173164 26.999999999999996 6.5909902576696915
  endloop
endfacet
facet normal 0.0 -1.0 0.0
  outer loop
    vertex 25.07932543173164 26.999999999999996 6.5909902576696915
    vertex 26.976670348123815 27.0 9.99999999999996
    vertex 24.613335174061906 26.999999999999996 6.948557158514946
  endloop
endfacet
facet normal 0.0 -1.0 0.0
  outer loop
    vertex 24.613335174061906 26.999999999999996 6.948557158514946
    vertex 26.976670348123815 27.0 9.99999999999996
    vertex 24.07067802554258 26.999999999999996 7.173333109150364
  endloop
endfacet
facet normal 0.0 -1.0 0.0
  outer loop
    vertex 24.07067802554258 26.999999999999996 7.173333109150364
    vertex 26.976670348123815 27.0 9.99999999999996
    vertex 23.488335174061906 26.999999999999996 7.249999999999961
  endloop
endfacet
facet normal 0.0 -1.0 0.0
  outer loop
    vertex 20.0 27.0 0.0
    vertex 21.315002064911504 26.999999999999996 4.417657148519287
    vertex 20.0 27.0 9.99999999999996
  endloop
endfacet
facet normal 0.0 -1.0 0.0
  outer loop
    vertex 21.315002064911504 26.999999999999996 4.417657148519287
    vertex 20.0 27.0 0.0
    vertex 21.539778015546915 26.999999999999996 3.8749999999999583
  endloop
endfacet
facet normal 0.0 -1.0 0.0
  outer loop
    vertex 21.539778015546915 26.999999999999996 3.8749999999999583
    vertex 20.0 27.0 0.0
    vertex 21.89734491639217 26.999999999999996 3.409009742330227
  endloop
endfacet
facet normal 0.0 -1.0 0.0
  outer loop
    vertex 21.89734491639217 26.999999999999996 3.409009742330227
    vertex 20.0 27.0 0.0
    vertex 22.363335174061906 26.999999999999996 3.051442841484971
  endloop
endfacet
facet normal 0.0 -1.0 0.0
  outer loop
    vertex 22.363335174061906 26.999999999999996 3.051442841484971
    vertex 20.0 27.0 0.0
    vertex 22.905992322581234 26.999999999999996 2.826666890849554
  endloop
endfacet
facet normal 0.0 -1.0 0.0
  outer loop
    vertex 22.905992322581234 26.999999999999996 2.826666890849554
    vertex 20.0 27.0 0.0
    vertex 23.488335174061906 26.999999999999996 2.749999999999958
  endloop
endfacet
facet normal 0.0 -1.0 0.0
  outer loop
    vertex 20.0 27.0 9.99999999999996
    vertex 21.315002064911504 26.999999999999996 4.417657148519287
    vertex 21.238335174061906 26.999999999999996 4.999999999999959
  endloop
endfacet
facet normal 0.0 -1.0 0.0
  outer loop
    vertex 20.0 27.0 9.99999999999996
    vertex 21.238335174061906 26.999999999999996 4.999999999999959
    vertex 21.315002064911504 26.999999999999996 5.582342851480633
  endloop
endfacet
facet normal 0.0 -1.0 0.0
  outer loop
    vertex 20.0 27.0 9.99999999999996
    vertex 21.315002064911504 26.999999999999996 5.582342851480633
    vertex 21.360801114743605 26.999999999999996 5.692911538729092
  endloop
endfacet
facet normal 0.0 -1.0 0.0
  outer loop
    vertex 20.0 27.0 9.99999999999996
    vertex 21.360801114743605 26.999999999999996 5.692911538729092
    vertex 21.53977801554692 26.999999999999996 6.124999999999961
  endloop
endfacet
facet normal 0.0 -1.0 0.0
  outer loop
    vertex 20.0 27.0 9.99999999999996
    vertex 21.53977801554692 26.999999999999996 6.124999999999961
    vertex 21.89734491639217 26.999999999999996 6.590990257669693
  endloop
endfacet
facet normal 0.0 -1.0 0.0
  outer loop
    vertex 20.0 27.0 9.99999999999996
    vertex 21.89734491639217 26.999999999999996 6.590990257669693
    vertex 22.36333517406191 26.999999999999996 6.948557158514948
  endloop
endfacet
facet normal 0.0 -1.0 0.0
  outer loop
    vertex 20.0 27.0 9.99999999999996
    vertex 22.36333517406191 26.999999999999996 6.948557158514948
    vertex 22.905992322581234 26.999999999999996 7.173333109150365
  endloop
endfacet
facet normal 0.0 -1.0 0.0
  outer loop
    vertex 20.0 27.0 9.99999999999996
    vertex 22.905992322581234 26.999999999999996 7.173333109150365
    vertex 23.488335174061906 26.999999999999996 7.249999999999961
  endloop
endfacet
facet normal 0.0 -1.0 0.0
  outer loop
    vertex 20.0 27.0 9.99999999999996
    vertex 23.488335174061906 26.999999999999996 7.249999999999961
    vertex 26.976670348123815 27.0 9.99999999999996
  endloop
endfacet
facet normal -1.0 0.0 0.0
  outer loop
    vertex 20.0 29.500000000000004 9.99999999999996
    vertex 20.0 27.0 0.0
    vertex 20.0 27.0 9.99999999999996
  endloop
endfacet
facet normal -1.0 0.0 0.0
  outer loop
    vertex 20.0 27.0 0.0
    vertex 20.0 29.500000000000004 9.99999999999996
    vertex 20.0 29.500000000000004 0.0
  endloop
endfacet
facet normal 1.0 -0.0 -0.0
  outer loop
    vertex 26.976670348123815 29.500000000000004 0.0
    vertex 26.976670348123815 27.0 9.99999999999996
    vertex 26.976670348123815 27.0 0.0
  endloop
endfacet
facet normal 1.0 -0.0 -0.0
  outer loop
    vertex 26.976670348123815 27.0 9.99999999999996
    vertex 26.976670348123815 29.500000000000004 0.0
    vertex 26.976670348123815 29.500000000000004 9.99999999999996
  endloop
endfacet
facet normal 1.0 0.0 0.0
  outer loop
    vertex 30.97667034812381 31.0 0.0
    vertex 30.97667034812381 29.500000000000004 9.99999999999996
    vertex 30.97667034812381 29.500000000000004 0.0
  endloop
endfacet
facet normal 1.0 0.0 0.0
  outer loop
    vertex 30.97667034812381 29.500000000000004 9.99999999999996
    vertex 30.97667034812381 31.0 0.0
    vertex 30.97667034812381 31.0 9.99999999999996
  endloop
endfacet
facet normal -0.0 -1.0 -0.0
  outer loop
    vertex 30.97667034812381 29.500000000000004 9.99999999999996
    vertex 26.976670348123815 29.500000000000004 0.0
    vertex 30.97667034812381 29.500000000000004 0.0
  endloop
endfacet
facet normal -0.0 -1.0 -0.0
  outer loop
    vertex 26.976670348123815 29.500000000000004 0.0
    vertex 30.97667034812381 29.500000000000004 9.99999999999996
    vertex 26.976670348123815 29.500000000000004 9.99999999999996
  endloop
endfacet
facet normal -0.0 -1.0 -0.0
  outer loop
    vertex 20.0 29.500000000000004 9.99999999999996
    vertex 15.999999999999998 29.500000000000004 0.0
    vertex 20.0 29.500000000000004 0.0
  endloop
endfacet
facet normal -0.0 -1.0 -0.0
  outer loop
    vertex 15.999999999999998 29.500000000000004 0.0
    vertex 20.0 29.500000000000004 9.99999999999996
    vertex 15.999999999999998 29.500000000000004 9.99999999999996
  endloop
endfacet
facet normal -1.0 0.0 0.0
  outer loop
    vertex 15.999999999999998 31.0 9.99999999999996
    vertex 15.999999999999998 29.500000000000004 0.0
    vertex 15.999999999999998 29.500000000000004 9.99999999999996
  endloop
endfacet
facet normal -1.0 0.0 0.0
  outer loop
    vertex 15.999999999999998 29.500000000000004 0.0
    vertex 15.999999999999998 31.0 9.99999999999996
    vertex 15.999999999999998 31.0 0.0
  endloop
endfacet
facet normal -0.25803731505075517 0.9661349512575339 -2.476896948980645e-18
  outer loop
    vertex 15.999999999999998 31.0 9.99999999999996
    vertex 19.74416758703095 31.999999999999996 0.024664999999998664
    vertex 15.999999999999998 31.0 0.0
  endloop
endfacet
facet normal -0.25803731505075517 0.9661349512575339 -2.476896948980645e-18
  outer loop
    vertex 19.74416758703095 31.999999999999996 0.024664999999998664
    vertex 15.999999999999998 31.0 9.99999999999996
    vertex 19.74416758703095 31.999999999999996 9.99999999999996
  endloop
endfacet
facet normal -0.0 -0.0 1.0
  outer loop
    vertex 26.976670348123815 27.0 9.99999999999996
    vertex 20.0 29.500000000000004 9.99999999999996
    vertex 20.0 27.0 9.99999999999996
  endloop
endfacet
facet normal -0.0 -0.0 1.0
  outer loop
    vertex 20.0 29.500000000000004 9.99999999999996
    vertex 26.976670348123815 27.0 9.99999999999996
    vertex 23.488335174061906 32.0 9.99999999999996
  endloop
endfacet
facet normal -0.0 -0.0 1.0
  outer loop
    vertex 23.488335174061906 32.0 9.99999999999996
    vertex 26.976670348123815 27.0 9.99999999999996
    vertex 26.976670348123815 29.500000000000004 9.99999999999996
  endloop
endfacet
facet normal -0.0 -0.0 1.0
  outer loop
    vertex 23.488335174061906 32.0 9.99999999999996
    vertex 26.976670348123815 29.500000000000004 9.99999999999996
    vertex 27.23250276109286 31.999999999999996 9.99999999999996
  endloop
endfacet
facet normal -0.0 -0.0 1.0
  outer loop
    vertex 27.23250276109286 31.999999999999996 9.99999999999996
    vertex 26.976670348123815 29.500000000000004 9.99999999999996
    vertex 30.97667034812381 29.500000000000004 9.99999999999996
  endloop
endfacet
facet normal -0.0 -0.0 1.0
  outer loop
    vertex 27.23250276109286 31.999999999999996 9.99999999999996
    vertex 30.97667034812381 29.500000000000004 9.99999999999996
    vertex 30.97667034812381 31.0 9.99999999999996
  endloop
endfacet
facet normal -0.0 -0.0 1.0
  outer loop
    vertex 20.0 29.500000000000004 9.99999999999996
    vertex 15.999999999999998 31.0 9.99999999999996
    vertex 15.999999999999998 29.500000000000004 9.99999999999996
  endloop
endfacet
facet normal -0.0 -0.0 1.0
  outer loop
    vertex 15.999999999999998 31.0 9.99999999999996
    vertex 20.0 29.500000000000004 9.99999999999996
    vertex 19.74416758703095 31.999999999999996 9.99999999999996
  endloop
endfacet
facet normal -0.0 -0.0 1.0
  outer loop
    vertex 19.74416758703095 31.999999999999996 9.99999999999996
    vertex 20.0 29.500000000000004 9.99999999999996
    vertex 23.488335174061906 32.0 9.99999999999996
  endloop
endfacet
facet normal -0.00211100416459388 0.004686113437277811 -0.9999867919139084
  outer loop
    vertex 27.23250276109286 31.999999999999996 0.024664999999998664
    vertex 23.488335174061906 27.0 0.0
    vertex 23.488335174061906 32.0 0.024664999999998664
  endloop
endfacet
facet normal -0.00211100416459388 0.004686113437277811 -0.9999867919139084
  outer loop
    vertex 23.488335174061906 27.0 0.0
    vertex 27.23250276109286 31.999999999999996 0.024664999999998664
    vertex 26.976670348123815 29.500000000000004 0.0
  endloop
endfacet
facet normal -0.00211100416459388 0.004686113437277811 -0.9999867919139084
  outer loop
    vertex 26.976670348123815 29.500000000000004 0.0
    vertex 27.23250276109286 31.999999999999996 0.024664999999998664
    vertex 30.97667034812381 29.500000000000004 0.0
  endloop
endfacet
facet normal -0.00211100416459388 0.004686113437277811 -0.9999867919139084
  outer loop
    vertex 30.97667034812381 29.500000000000004 0.0
    vertex 27.23250276109286 31.999999999999996 0.024664999999998664
    vertex 30.97667034812381 31.0 0.0
  endloop
endfacet
facet normal -0.00211100416459388 0.004686113437277811 -0.9999867919139084
  outer loop
    vertex 26.976670348123815 27.0 0.0
    vertex 23.488335174061906 27.0 0.0
    vertex 26.976670348123815 29.500000000000004 0.0
  endloop
endfacet
facet normal 0.0021110041645938803 0.0046861134372778125 -0.9999867919139084
  outer loop
    vertex 19.74416758703095 31.999999999999996 0.024664999999998664
    vertex 15.999999999999998 29.500000000000004 0.0
    vertex 15.999999999999998 31.0 0.0
  endloop
endfacet
facet normal 0.0021110041645938803 0.0046861134372778125 -0.9999867919139084
  outer loop
    vertex 15.999999999999998 29.500000000000004 0.0
    vertex 19.74416758703095 31.999999999999996 0.024664999999998664
    vertex 20.0 29.500000000000004 0.0
  endloop
endfacet
facet normal 0.0021110041645938803 0.0046861134372778125 -0.9999867919139084
  outer loop
    vertex 20.0 29.500000000000004 0.0
    vertex 19.74416758703095 31.999999999999996 0.024664999999998664
    vertex 23.488335174061906 32.0 0.024664999999998664
  endloop
endfacet
facet normal 0.0021110041645938803 0.0046861134372778125 -0.9999867919139084
  outer loop
    vertex 20.0 29.500000000000004 0.0
    vertex 23.488335174061906 32.0 0.024664999999998664
    vertex 20.0 27.0 0.0
  endloop
endfacet
facet normal 0.0021110041645938803 0.0046861134372778125 -0.9999867919139084
  outer loop
    vertex 20.0 27.0 0.0
    vertex 23.488335174061906 32.0 0.024664999999998664
    vertex 23.488335174061906 27.0 0.0
  endloop
endfacet
facet normal 1.5712646070809724e-15 1.0 -1.4794565946460909e-16
  outer loop
    vertex 23.488335174061906 32.0 2.749999999999958
    vertex 27.23250276109286 31.999999999999996 0.024664999999998664
    vertex 23.488335174061906 32.0 0.024664999999998664
  endloop
endfacet
facet normal 1.5712646070809724e-15 1.0 -1.4794565946460909e-16
  outer loop
    vertex 27.23250276109286 31.999999999999996 0.024664999999998664
    vertex 23.488335174061906 32.0 2.749999999999958
    vertex 24.070678025542577 32.0 2.826666890849554
  endloop
endfacet
facet normal 1.5712646070809724e-15 1.0 -1.4794565946460909e-16
  outer loop
    vertex 27.23250276109286 31.999999999999996 0.024664999999998664
    vertex 24.070678025542577 32.0 2.826666890849554
    vertex 24.613335174061906 32.0 3.051442841484971
  endloop
endfacet
facet normal 1.5712646070809724e-15 1.0 -1.4794565946460909e-16
  outer loop
    vertex 27.23250276109286 31.999999999999996 0.024664999999998664
    vertex 24.613335174061906 32.0 3.051442841484971
    vertex 25.07932543173164 32.0 3.409009742330226
  endloop
endfacet
facet normal 1.5712646070809724e-15 1.0 -1.4794565946460909e-16
  outer loop
    vertex 27.23250276109286 31.999999999999996 0.024664999999998664
    vertex 25.07932543173164 32.0 3.409009742330226
    vertex 25.436892332576893 32.0 3.874999999999958
  endloop
endfacet
facet normal 1.5712646070809724e-15 1.0 -1.4794565946460909e-16
  outer loop
    vertex 27.23250276109286 31.999999999999996 0.024664999999998664
    vertex 25.436892332576893 32.0 3.874999999999958
    vertex 25.62072603348499 31.999999999999996 4.318813813953522
  endloop
endfacet
facet normal 1.7888550784525923e-15 1.0 6.221233020479223e-17
  outer loop
    vertex 27.23250276109286 31.999999999999996 0.024664999999998664
    vertex 25.66166828321231 32.0 4.417657148519287
    vertex 27.23250276109286 31.999999999999996 9.99999999999996
  endloop
endfacet
facet normal 1.7888550784525923e-15 1.0 6.221233020479223e-17
  outer loop
    vertex 25.66166828321231 32.0 4.417657148519287
    vertex 27.23250276109286 31.999999999999996 0.024664999999998664
    vertex 25.62072603348499 31.999999999999996 4.318813813953522
  endloop
endfacet
facet normal 1.7888550784525923e-15 1.0 6.221233020479223e-17
  outer loop
    vertex 27.23250276109286 31.999999999999996 9.99999999999996
    vertex 25.66166828321231 32.0 4.417657148519287
    vertex 25.73833517406191 32.0 4.999999999999959
  endloop
endfacet
facet normal 1.7888550784525923e-15 1.0 6.221233020479223e-17
  outer loop
    vertex 27.23250276109286 31.999999999999996 9.99999999999996
    vertex 25.73833517406191 32.0 4.999999999999959
    vertex 25.66166828321231 32.0 5.582342851480631
  endloop
endfacet
facet normal 1.7888550784525923e-15 1.0 6.221233020479223e-17
  outer loop
    vertex 27.23250276109286 31.999999999999996 9.99999999999996
    vertex 25.66166828321231 32.0 5.582342851480631
    vertex 25.436892332576893 32.0 6.124999999999959
  endloop
endfacet
facet normal 1.7888550784525923e-15 1.0 6.221233020479223e-17
  outer loop
    vertex 27.23250276109286 31.999999999999996 9.99999999999996
    vertex 25.436892332576893 32.0 6.124999999999959
    vertex 25.07932543173164 32.0 6.5909902576696915
  endloop
endfacet
facet normal 1.7888550784525923e-15 1.0 6.221233020479223e-17
  outer loop
    vertex 27.23250276109286 31.999999999999996 9.99999999999996
    vertex 25.07932543173164 32.0 6.5909902576696915
    vertex 24.613335174061906 32.0 6.948557158514946
  endloop
endfacet
facet normal 1.7888550784525923e-15 1.0 6.221233020479223e-17
  outer loop
    vertex 27.23250276109286 31.999999999999996 9.99999999999996
    vertex 24.613335174061906 32.0 6.948557158514946
    vertex 23.488335174061906 32.0 9.99999999999996
  endloop
endfacet
facet normal -1.7772372730876763e-15 1.0 -5.916505032046624e-17
  outer loop
    vertex 19.74416758703095 31.999999999999996 0.024664999999998664
    vertex 21.539778015546915 32.0 3.8749999999999583
    vertex 23.488335174061906 32.0 0.024664999999998664
  endloop
endfacet
facet normal -1.7772372730876763e-15 1.0 -5.916505032046624e-17
  outer loop
    vertex 21.539778015546915 32.0 3.8749999999999583
    vertex 19.74416758703095 31.999999999999996 0.024664999999998664
    vertex 21.315002064911504 32.0 4.417657148519287
  endloop
endfacet
facet normal -1.7772372730876763e-15 1.0 -5.916505032046624e-17
  outer loop
    vertex 21.315002064911504 32.0 4.417657148519287
    vertex 19.74416758703095 31.999999999999996 0.024664999999998664
    vertex 19.74416758703095 31.999999999999996 9.99999999999996
  endloop
endfacet
facet normal -1.7772372730876763e-15 1.0 -5.916505032046624e-17
  outer loop
    vertex 23.488335174061906 32.0 0.024664999999998664
    vertex 21.539778015546915 32.0 3.8749999999999583
    vertex 21.89734491639217 32.0 3.409009742330227
  endloop
endfacet
facet normal -1.7772372730876763e-15 1.0 -5.916505032046624e-17
  outer loop
    vertex 23.488335174061906 32.0 0.024664999999998664
    vertex 21.89734491639217 32.0 3.409009742330227
    vertex 22.363335174061906 32.0 3.051442841484971
  endloop
endfacet
facet normal -1.7772372730876763e-15 1.0 -5.916505032046624e-17
  outer loop
    vertex 21.315002064911504 32.0 4.417657148519287
    vertex 19.74416758703095 31.999999999999996 9.99999999999996
    vertex 21.238335174061906 32.0 4.999999999999959
  endloop
endfacet
facet normal -1.7772372730876763e-15 1.0 -5.916505032046624e-17
  outer loop
    vertex 21.238335174061906 32.0 4.999999999999959
    vertex 19.74416758703095 31.999999999999996 9.99999999999996
    vertex 21.315002064911504 32.0 5.582342851480633
  endloop
endfacet
facet normal -1.7772372730876763e-15 1.0 -5.916505032046624e-17
  outer loop
    vertex 21.315002064911504 32.0 5.582342851480633
    vertex 19.74416758703095 31.999999999999996 9.99999999999996
    vertex 21.360801114743605 31.999999999999996 5.692911538729092
  endloop
endfacet
facet normal -1.5697667365693665e-15 1.0 1.4928117984324014e-16
  outer loop
    vertex 19.74416758703095 31.999999999999996 9.99999999999996
    vertex 21.53977801554692 32.0 6.124999999999961
    vertex 21.360801114743605 31.999999999999996 5.692911538729092
  endloop
endfacet
facet normal -1.5697667365693665e-15 1.0 1.4928117984324014e-16
  outer loop
    vertex 21.53977801554692 32.0 6.124999999999961
    vertex 19.74416758703095 31.999999999999996 9.99999999999996
    vertex 21.89734491639217 32.0 6.590990257669693
  endloop
endfacet
facet normal -1.5697667365693665e-15 1.0 1.4928117984324014e-16
  outer loop
    vertex 21.89734491639217 32.0 6.590990257669693
    vertex 19.74416758703095 31.999999999999996 9.99999999999996
    vertex 22.36333517406191 32.0 6.948557158514948
  endloop
endfacet
facet normal -1.5697667365693665e-15 1.0 1.4928117984324014e-16
  outer loop
    vertex 22.36333517406191 32.0 6.948557158514948
    vertex 19.74416758703095 31.999999999999996 9.99999999999996
    vertex 22.905992322581234 32.0 7.173333109150365
  endloop
endfacet
facet normal -1.5697667365693665e-15 1.0 1.4928117984324014e-16
  outer loop
    vertex 22.905992322581234 32.0 7.173333109150365
    vertex 19.74416758703095 31.999999999999996 9.99999999999996
    vertex 23.488335174061906 32.0 7.249999999999961
  endloop
endfacet
facet normal -1.5697667365693665e-15 1.0 1.4928117984324014e-16
  outer loop
    vertex 23.488335174061906 32.0 7.249999999999961
    vertex 19.74416758703095 31.999999999999996 9.99999999999996
    vertex 23.488335174061906 32.0 9.99999999999996
  endloop
endfacet
facet normal -0.0 1.0 -0.0
  outer loop
    vertex 23.488335174061906 32.0 0.024664999999998664
    vertex 22.905992322581234 32.0 2.826666890849554
    vertex 23.488335174061906 32.0 2.749999999999958
  endloop
endfacet
facet normal -0.0 1.0 -0.0
  outer loop
    vertex 22.905992322581234 32.0 2.826666890849554
    vertex 23.488335174061906 32.0 0.024664999999998664
    vertex 22.363335174061906 32.0 3.051442841484971
  endloop
endfacet
facet normal -0.0 1.0 -0.0
  outer loop
    vertex 24.07067802554258 32.0 7.173333109150364
    vertex 23.488335174061906 32.0 9.99999999999996
    vertex 24.613335174061906 32.0 6.948557158514946
  endloop
endfacet
facet normal -0.0 1.0 -0.0
  outer loop
    vertex 23.488335174061906 32.0 9.99999999999996
    vertex 24.07067802554258 32.0 7.173333109150364
    vertex 23.488335174061906 32.0 7.249999999999961
  endloop
endfacet
facet normal -0.13052619222005202 -9.472204170190895e-19 0.9914448613738105
  outer loop
    vertex 24.070678025542577 26.999999999999996 2.826666890849554
    vertex 23.488335174061906 32.0 2.749999999999958
    vertex 23.488335174061906 26.999999999999996 2.749999999999958
  endloop
endfacet
facet normal -0.13052619222005202 -9.472204170190895e-19 0.9914448613738105
  outer loop
    vertex 23.488335174061906 32.0 2.749999999999958
    vertex 24.070678025542577 26.999999999999996 2.826666890849554
    vertex 24.070678025542577 32.0 2.826666890849554
  endloop
endfacet
facet normal 0.13052619222005138 -1.0527913122694229e-18 0.9914448613738106
  outer loop
    vertex 23.488335174061906 26.999999999999996 2.749999999999958
    vertex 22.905992322581234 32.0 2.826666890849554
    vertex 22.905992322581234 26.999999999999996 2.826666890849554
  endloop
endfacet
facet normal 0.13052619222005138 -1.0527913122694229e-18 0.9914448613738106
  outer loop
    vertex 22.905992322581234 32.0 2.826666890849554
    vertex 23.488335174061906 26.999999999999996 2.749999999999958
    vertex 23.488335174061906 32.0 2.749999999999958
  endloop
endfacet
facet normal 0.3826834323650908 -1.0866162194084999e-18 0.9238795325112865
  outer loop
    vertex 22.905992322581234 26.999999999999996 2.826666890849554
    vertex 22.363335174061906 32.0 3.051442841484971
    vertex 22.363335174061906 26.999999999999996 3.051442841484971
  endloop
endfacet
facet normal 0.3826834323650908 -1.0866162194084999e-18 0.9238795325112865
  outer loop
    vertex 22.363335174061906 32.0 3.051442841484971
    vertex 22.905992322581234 26.999999999999996 2.826666890849554
    vertex 22.905992322581234 32.0 2.826666890849554
  endloop
endfacet
facet normal 0.6087614290087211 -1.0463900269130946e-18 0.7933533402912348
  outer loop
    vertex 22.363335174061906 26.999999999999996 3.051442841484971
    vertex 21.89734491639217 32.0 3.409009742330227
    vertex 21.89734491639217 26.999999999999996 3.409009742330227
  endloop
endfacet
facet normal 0.6087614290087211 -1.0463900269130946e-18 0.7933533402912348
  outer loop
    vertex 21.89734491639217 32.0 3.409009742330227
    vertex 22.363335174061906 26.999999999999996 3.051442841484971
    vertex 22.363335174061906 32.0 3.051442841484971
  endloop
endfacet
facet normal 0.7933533402912339 -9.348540833248445e-19 0.6087614290087225
  outer loop
    vertex 21.89734491639217 32.0 3.409009742330227
    vertex 21.539778015546915 26.999999999999996 3.8749999999999583
    vertex 21.89734491639217 26.999999999999996 3.409009742330227
  endloop
endfacet
facet normal 0.7933533402912339 -9.348540833248445e-19 0.6087614290087225
  outer loop
    vertex 21.539778015546915 26.999999999999996 3.8749999999999583
    vertex 21.89734491639217 32.0 3.409009742330227
    vertex 21.539778015546915 32.0 3.8749999999999583
  endloop
endfacet
facet normal 0.9238795325112884 -7.596093788774188e-19 0.38268343236508573
  outer loop
    vertex 21.539778015546915 32.0 3.8749999999999583
    vertex 21.315002064911504 26.999999999999996 4.417657148519287
    vertex 21.539778015546915 26.999999999999996 3.8749999999999583
  endloop
endfacet
facet normal 0.9238795325112884 -7.596093788774188e-19 0.38268343236508573
  outer loop
    vertex 21.315002064911504 26.999999999999996 4.417657148519287
    vertex 21.539778015546915 32.0 3.8749999999999583
    vertex 21.315002064911504 32.0 4.417657148519287
  endloop
endfacet
facet normal 0.9914448613738102 -5.325985505733593e-19 0.13052619222005404
  outer loop
    vertex 21.315002064911504 32.0 4.417657148519287
    vertex 21.238335174061906 26.999999999999996 4.999999999999959
    vertex 21.315002064911504 26.999999999999996 4.417657148519287
  endloop
endfacet
facet normal 0.9914448613738102 -5.325985505733593e-19 0.13052619222005404
  outer loop
    vertex 21.238335174061906 26.999999999999996 4.999999999999959
    vertex 21.315002064911504 32.0 4.417657148519287
    vertex 21.238335174061906 32.0 4.999999999999959
  endloop
endfacet
facet normal 0.9914448613738102 -2.6929201120843565e-19 -0.13052619222005357
  outer loop
    vertex 21.238335174061906 32.0 4.999999999999959
    vertex 21.315002064911504 26.999999999999996 5.582342851480633
    vertex 21.238335174061906 26.999999999999996 4.999999999999959
  endloop
endfacet
facet normal 0.9914448613738102 -2.6929201120843565e-19 -0.13052619222005357
  outer loop
    vertex 21.315002064911504 26.999999999999996 5.582342851480633
    vertex 21.238335174061906 32.0 4.999999999999959
    vertex 21.315002064911504 32.0 5.582342851480633
  endloop
endfacet
facet normal 0.9238795325112832 1.2366333694256581e-20 -0.3826834323650984
  outer loop
    vertex 21.315002064911504 32.0 5.582342851480633
    vertex 21.360801114743605 26.999999999999996 5.692911538729092
    vertex 21.315002064911504 26.999999999999996 5.582342851480633
  endloop
endfacet
facet normal 0.9238795325112832 1.2366333694256581e-20 -0.3826834323650984
  outer loop
    vertex 21.360801114743605 26.999999999999996 5.692911538729092
    vertex 21.315002064911504 32.0 5.582342851480633
    vertex 21.360801114743605 31.999999999999996 5.692911538729092
  endloop
endfacet
facet normal 0.9238795325112873 1.236633369424522e-20 -0.3826834323650888
  outer loop
    vertex 21.360801114743605 31.999999999999996 5.692911538729092
    vertex 21.53977801554692 26.999999999999996 6.124999999999961
    vertex 21.360801114743605 26.999999999999996 5.692911538729092
  endloop
endfacet
facet normal 0.9238795325112873 1.236633369424522e-20 -0.3826834323650888
  outer loop
    vertex 21.53977801554692 26.999999999999996 6.124999999999961
    vertex 21.360801114743605 31.999999999999996 5.692911538729092
    vertex 21.53977801554692 32.0 6.124999999999961
  endloop
endfacet
facet normal 0.7933533402912365 2.9318193339199814e-19 -0.6087614290087189
  outer loop
    vertex 21.53977801554692 32.0 6.124999999999961
    vertex 21.89734491639217 26.999999999999996 6.590990257669693
    vertex 21.53977801554692 26.999999999999996 6.124999999999961
  endloop
endfacet
facet normal 0.7933533402912365 2.9318193339199814e-19 -0.6087614290087189
  outer loop
    vertex 21.89734491639217 26.999999999999996 6.590990257669693
    vertex 21.53977801554692 32.0 6.124999999999961
    vertex 21.89734491639217 32.0 6.590990257669693
  endloop
endfacet
facet normal 0.608761429008718 5.54017668835146e-19 -0.7933533402912372
  outer loop
    vertex 22.36333517406191 32.0 6.948557158514948
    vertex 21.89734491639217 26.999999999999996 6.590990257669693
    vertex 21.89734491639217 32.0 6.590990257669693
  endloop
endfacet
facet normal 0.608761429008718 5.54017668835146e-19 -0.7933533402912372
  outer loop
    vertex 21.89734491639217 26.999999999999996 6.590990257669693
    vertex 22.36333517406191 32.0 6.948557158514948
    vertex 22.36333517406191 26.999999999999996 6.948557158514948
  endloop
endfacet
facet normal 0.3826834323650908 7.770980157046563e-19 -0.9238795325112865
  outer loop
    vertex 22.905992322581234 32.0 7.173333109150365
    vertex 22.36333517406191 26.999999999999996 6.948557158514948
    vertex 22.36333517406191 32.0 6.948557158514948
  endloop
endfacet
facet normal 0.3826834323650908 7.770980157046563e-19 -0.9238795325112865
  outer loop
    vertex 22.36333517406191 26.999999999999996 6.948557158514948
    vertex 22.905992322581234 32.0 7.173333109150365
    vertex 22.905992322581234 26.999999999999996 7.173333109150365
  endloop
endfacet
facet normal 0.13052619222005202 9.472204170190895e-19 -0.9914448613738105
  outer loop
    vertex 23.488335174061906 32.0 7.249999999999961
    vertex 22.905992322581234 26.999999999999996 7.173333109150365
    vertex 22.905992322581234 32.0 7.173333109150365
  endloop
endfacet
facet normal 0.13052619222005202 9.472204170190895e-19 -0.9914448613738105
  outer loop
    vertex 22.905992322581234 26.999999999999996 7.173333109150365
    vertex 23.488335174061906 32.0 7.249999999999961
    vertex 23.488335174061906 26.999999999999996 7.249999999999961
  endloop
endfacet
facet normal -0.13052619222005374 1.0527913122694236e-18 -0.9914448613738103
  outer loop
    vertex 24.07067802554258 32.0 7.173333109150364
    vertex 23.488335174061906 26.999999999999996 7.249999999999961
    vertex 23.488335174061906 32.0 7.249999999999961
  endloop
endfacet
facet normal -0.13052619222005374 1.0527913122694236e-18 -0.9914448613738103
  outer loop
    vertex 23.488335174061906 26.999999999999996 7.249999999999961
    vertex 24.07067802554258 32.0 7.173333109150364
    vertex 24.07067802554258 26.999999999999996 7.173333109150364
  endloop
endfacet
facet normal -0.3826834323650908 1.0866162194084999e-18 -0.9238795325112865
  outer loop
    vertex 24.613335174061906 32.0 6.948557158514946
    vertex 24.07067802554258 26.999999999999996 7.173333109150364
    vertex 24.07067802554258 32.0 7.173333109150364
  endloop
endfacet
facet normal -0.3826834323650908 1.0866162194084999e-18 -0.9238795325112865
  outer loop
    vertex 24.07067802554258 26.999999999999996 7.173333109150364
    vertex 24.613335174061906 32.0 6.948557158514946
    vertex 24.613335174061906 26.999999999999996 6.948557158514946
  endloop
endfacet
facet normal -0.6087614290087203 1.0463900269130948e-18 -0.7933533402912354
  outer loop
    vertex 25.07932543173164 32.0 6.5909902576696915
    vertex 24.613335174061906 26.999999999999996 6.948557158514946
    vertex 24.613335174061906 32.0 6.948557158514946
  endloop
endfacet
facet normal -0.6087614290087203 1.0463900269130948e-18 -0.7933533402912354
  outer loop
    vertex 24.613335174061906 26.999999999999996 6.948557158514946
    vertex 25.07932543173164 32.0 6.5909902576696915
    vertex 25.07932543173164 26.999999999999996 6.5909902576696915
  endloop
endfacet
facet normal -0.7933533402912365 9.348540833248418e-19 -0.6087614290087189
  outer loop
    vertex 25.07932543173164 32.0 6.5909902576696915
    vertex 25.436892332576893 26.999999999999996 6.124999999999959
    vertex 25.07932543173164 26.999999999999996 6.5909902576696915
  endloop
endfacet
facet normal -0.7933533402912365 9.348540833248418e-19 -0.6087614290087189
  outer loop
    vertex 25.436892332576893 26.999999999999996 6.124999999999959
    vertex 25.07932543173164 32.0 6.5909902576696915
    vertex 25.436892332576893 32.0 6.124999999999959
  endloop
endfacet
facet normal -0.9238795325112867 7.596093788774223e-19 -0.38268343236508984
  outer loop
    vertex 25.436892332576893 32.0 6.124999999999959
    vertex 25.66166828321231 26.999999999999996 5.582342851480631
    vertex 25.436892332576893 26.999999999999996 6.124999999999959
  endloop
endfacet
facet normal -0.9238795325112867 7.596093788774223e-19 -0.38268343236508984
  outer loop
    vertex 25.66166828321231 26.999999999999996 5.582342851480631
    vertex 25.436892332576893 32.0 6.124999999999959
    vertex 25.66166828321231 32.0 5.582342851480631
  endloop
endfacet
facet normal -0.99144486137381 5.325985505733595e-19 -0.13052619222005418
  outer loop
    vertex 25.66166828321231 32.0 5.582342851480631
    vertex 25.73833517406191 26.999999999999996 4.999999999999959
    vertex 25.66166828321231 26.999999999999996 5.582342851480631
  endloop
endfacet
facet normal -0.99144486137381 5.325985505733595e-19 -0.13052619222005418
  outer loop
    vertex 25.73833517406191 26.999999999999996 4.999999999999959
    vertex 25.66166828321231 32.0 5.582342851480631
    vertex 25.73833517406191 32.0 4.999999999999959
  endloop
endfacet
facet normal -0.9914448613738102 2.6929201120843536e-19 0.1305261922200539
  outer loop
    vertex 25.73833517406191 32.0 4.999999999999959
    vertex 25.66166828321231 26.999999999999996 4.417657148519287
    vertex 25.73833517406191 26.999999999999996 4.999999999999959
  endloop
endfacet
facet normal -0.9914448613738102 2.6929201120843536e-19 0.1305261922200539
  outer loop
    vertex 25.66166828321231 26.999999999999996 4.417657148519287
    vertex 25.73833517406191 32.0 4.999999999999959
    vertex 25.66166828321231 32.0 4.417657148519287
  endloop
endfacet
facet normal -0.9238795325112845 -1.2366333694252949e-20 0.3826834323650953
  outer loop
    vertex 25.66166828321231 32.0 4.417657148519287
    vertex 25.62072603348499 26.999999999999996 4.318813813953522
    vertex 25.66166828321231 26.999999999999996 4.417657148519287
  endloop
endfacet
facet normal -0.9238795325112845 -1.2366333694252949e-20 0.3826834323650953
  outer loop
    vertex 25.62072603348499 26.999999999999996 4.318813813953522
    vertex 25.66166828321231 32.0 4.417657148519287
    vertex 25.62072603348499 31.999999999999996 4.318813813953522
  endloop
endfacet
facet normal -0.9238795325112873 -1.236633369424521e-20 0.3826834323650887
  outer loop
    vertex 25.62072603348499 31.999999999999996 4.318813813953522
    vertex 25.436892332576893 26.999999999999996 3.874999999999958
    vertex 25.62072603348499 26.999999999999996 4.318813813953522
  endloop
endfacet
facet normal -0.9238795325112873 -1.236633369424521e-20 0.3826834323650887
  outer loop
    vertex 25.436892332576893 26.999999999999996 3.874999999999958
    vertex 25.62072603348499 31.999999999999996 4.318813813953522
    vertex 25.436892332576893 32.0 3.874999999999958
  endloop
endfacet
facet normal -0.793353340291236 -2.931819333919989e-19 0.6087614290087194
  outer loop
    vertex 25.436892332576893 32.0 3.874999999999958
    vertex 25.07932543173164 26.999999999999996 3.409009742330226
    vertex 25.436892332576893 26.999999999999996 3.874999999999958
  endloop
endfacet
facet normal -0.793353340291236 -2.931819333919989e-19 0.6087614290087194
  outer loop
    vertex 25.07932543173164 26.999999999999996 3.409009742330226
    vertex 25.436892332576893 32.0 3.874999999999958
    vertex 25.07932543173164 32.0 3.409009742330226
  endloop
endfacet
facet normal -0.6087614290087208 -5.540176688351427e-19 0.793353340291235
  outer loop
    vertex 25.07932543173164 26.999999999999996 3.409009742330226
    vertex 24.613335174061906 32.0 3.051442841484971
    vertex 24.613335174061906 26.999999999999996 3.051442841484971
  endloop
endfacet
facet normal -0.6087614290087208 -5.540176688351427e-19 0.793353340291235
  outer loop
    vertex 24.613335174061906 32.0 3.051442841484971
    vertex 25.07932543173164 26.999999999999996 3.409009742330226
    vertex 25.07932543173164 32.0 3.409009742330226
  endloop
endfacet
facet normal -0.3826834323650885 -7.77098015704658e-19 0.9238795325112873
  outer loop
    vertex 24.613335174061906 26.999999999999996 3.051442841484971
    vertex 24.070678025542577 32.0 2.826666890849554
    vertex 24.070678025542577 26.999999999999996 2.826666890849554
  endloop
endfacet
facet normal -0.3826834323650885 -7.77098015704658e-19 0.9238795325112873
  outer loop
    vertex 24.070678025542577 32.0 2.826666890849554
    vertex 24.613335174061906 26.999999999999996 3.051442841484971
    vertex 24.613335174061906 32.0 3.051442841484971
  endloop
endfacet
endsolid nutenstein
