solid Taster_Mount
facet normal 0.0 0.0 -1.0
  outer loop
    vertex 18.0 3.0 1.9999999999999998
    vertex 3.0 3.0 1.9999999999999998
    vertex 3.0 18.0 1.9999999999999998
  endloop
endfacet
facet normal -0.7071067811865476 -0.7071067811865476 0.0
  outer loop
    vertex 3.0 18.0 1.9999999999999998
    vertex 18.0 3.0 0.0
    vertex 18.0 3.0 1.9999999999999998
  endloop
endfacet
facet normal -0.7071067811865476 -0.7071067811865476 0.0
  outer loop
    vertex 18.0 3.0 0.0
    vertex 3.0 18.0 1.9999999999999998
    vertex 3.0 18.0 0.0
  endloop
endfacet
facet normal -1.0 -0.0 -0.0
  outer loop
    vertex 30.0 3.0 30.0
    vertex 30.0 0.0 0.0
    vertex 30.0 0.0 30.0
  endloop
endfacet
facet normal -1.0 -0.0 -0.0
  outer loop
    vertex 30.0 0.0 0.0
    vertex 30.0 3.0 30.0
    vertex 30.0 3.0 0.0
  endloop
endfacet
facet normal 1.0 -0.0 -0.0
  outer loop
    vertex 0.0 30.0 0.0
    vertex 0.0 0.0 11.499999999999998
    vertex 0.0 0.0 0.0
  endloop
endfacet
facet normal 1.0 -0.0 -0.0
  outer loop
    vertex 0.0 0.0 11.499999999999998
    vertex 0.0 30.0 0.0
    vertex 0.0 12.999999999999998 11.499999999999998
  endloop
endfacet
facet normal 1.0 -0.0 -0.0
  outer loop
    vertex 0.0 12.999999999999998 11.499999999999998
    vertex 0.0 30.0 0.0
    vertex 0.0 17.171572875253815 12.171572875253808
  endloop
endfacet
facet normal 1.0 -0.0 -0.0
  outer loop
    vertex 0.0 12.999999999999998 11.499999999999998
    vertex 0.0 17.171572875253815 12.171572875253808
    vertex 0.0 16.53589838486225 12.999999999999996
  endloop
endfacet
facet normal 1.0 -0.0 -0.0
  outer loop
    vertex 0.0 12.999999999999998 11.499999999999998
    vertex 0.0 16.53589838486225 12.999999999999996
    vertex 0.0 12.999999999999998 18.5
  endloop
endfacet
facet normal 1.0 -0.0 -0.0
  outer loop
    vertex 0.0 12.999999999999998 18.5
    vertex 0.0 16.53589838486225 12.999999999999996
    vertex 0.0 16.136296694843733 13.964723819589912
  endloop
endfacet
facet normal 1.0 -0.0 -0.0
  outer loop
    vertex 0.0 12.999999999999998 18.5
    vertex 0.0 16.136296694843733 13.964723819589912
    vertex 0.0 16.000000000000004 14.999999999999998
  endloop
endfacet
facet normal 1.0 -0.0 -0.0
  outer loop
    vertex 0.0 17.171572875253815 12.171572875253808
    vertex 0.0 30.0 0.0
    vertex 0.0 18.000000000000007 11.535898384862245
  endloop
endfacet
facet normal 1.0 -0.0 -0.0
  outer loop
    vertex 0.0 18.000000000000007 11.535898384862245
    vertex 0.0 30.0 0.0
    vertex 0.0 18.964723819589924 11.136296694843727
  endloop
endfacet
facet normal 1.0 -0.0 -0.0
  outer loop
    vertex 0.0 18.964723819589924 11.136296694843727
    vertex 0.0 30.0 0.0
    vertex 0.0 20.000000000000004 11.0
  endloop
endfacet
facet normal 1.0 -0.0 -0.0
  outer loop
    vertex 0.0 20.000000000000004 11.0
    vertex 0.0 30.0 0.0
    vertex 0.0 21.035276180410087 11.136296694843727
  endloop
endfacet
facet normal 1.0 -0.0 -0.0
  outer loop
    vertex 0.0 21.035276180410087 11.136296694843727
    vertex 0.0 30.0 0.0
    vertex 0.0 22.000000000000004 11.535898384862247
  endloop
endfacet
facet normal 1.0 -0.0 -0.0
  outer loop
    vertex 0.0 22.000000000000004 11.535898384862247
    vertex 0.0 30.0 0.0
    vertex 0.0 22.828427124746195 12.17157287525381
  endloop
endfacet
facet normal 1.0 -0.0 -0.0
  outer loop
    vertex 0.0 22.828427124746195 12.17157287525381
    vertex 0.0 30.0 0.0
    vertex 0.0 23.464101615137757 12.999999999999998
  endloop
endfacet
facet normal 1.0 -0.0 -0.0
  outer loop
    vertex 0.0 23.464101615137757 12.999999999999998
    vertex 0.0 30.0 0.0
    vertex 0.0 23.863703305156275 13.964723819589919
  endloop
endfacet
facet normal 1.0 -0.0 -0.0
  outer loop
    vertex 0.0 23.863703305156275 13.964723819589919
    vertex 0.0 30.0 0.0
    vertex 0.0 24.0 14.999999999999998
  endloop
endfacet
facet normal 1.0 -0.0 -0.0
  outer loop
    vertex 0.0 12.999999999999998 18.5
    vertex 0.0 0.0 30.0
    vertex 0.0 0.0 18.5
  endloop
endfacet
facet normal 1.0 -0.0 -0.0
  outer loop
    vertex 0.0 0.0 30.0
    vertex 0.0 12.999999999999998 18.5
    vertex 0.0 30.0 30.0
  endloop
endfacet
facet normal 1.0 -0.0 -0.0
  outer loop
    vertex 0.0 30.0 30.0
    vertex 0.0 12.999999999999998 18.5
    vertex 0.0 17.171572875253815 17.828427124746188
  endloop
endfacet
facet normal 1.0 -0.0 -0.0
  outer loop
    vertex 0.0 17.171572875253815 17.828427124746188
    vertex 0.0 12.999999999999998 18.5
    vertex 0.0 16.53589838486225 16.999999999999996
  endloop
endfacet
facet normal 1.0 -0.0 -0.0
  outer loop
    vertex 0.0 16.53589838486225 16.999999999999996
    vertex 0.0 12.999999999999998 18.5
    vertex 0.0 16.136296694843733 16.03527618041008
  endloop
endfacet
facet normal 1.0 -0.0 -0.0
  outer loop
    vertex 0.0 16.136296694843733 16.03527618041008
    vertex 0.0 12.999999999999998 18.5
    vertex 0.0 16.000000000000004 14.999999999999998
  endloop
endfacet
facet normal 1.0 -0.0 -0.0
  outer loop
    vertex 0.0 30.0 30.0
    vertex 0.0 17.171572875253815 17.828427124746188
    vertex 0.0 18.000000000000004 18.464101615137753
  endloop
endfacet
facet normal 1.0 -0.0 -0.0
  outer loop
    vertex 0.0 30.0 30.0
    vertex 0.0 18.000000000000004 18.464101615137753
    vertex 0.0 18.96472381958992 18.863703305156267
  endloop
endfacet
facet normal 1.0 -0.0 -0.0
  outer loop
    vertex 0.0 30.0 30.0
    vertex 0.0 18.96472381958992 18.863703305156267
    vertex 0.0 20.000000000000004 18.999999999999996
  endloop
endfacet
facet normal 1.0 -0.0 -0.0
  outer loop
    vertex 0.0 30.0 30.0
    vertex 0.0 20.000000000000004 18.999999999999996
    vertex 0.0 21.035276180410087 18.863703305156267
  endloop
endfacet
facet normal 1.0 -0.0 -0.0
  outer loop
    vertex 0.0 30.0 30.0
    vertex 0.0 21.035276180410087 18.863703305156267
    vertex 0.0 22.000000000000004 18.464101615137753
  endloop
endfacet
facet normal 1.0 -0.0 -0.0
  outer loop
    vertex 0.0 30.0 30.0
    vertex 0.0 22.000000000000004 18.464101615137753
    vertex 0.0 22.82842712474619 17.828427124746188
  endloop
endfacet
facet normal 1.0 -0.0 -0.0
  outer loop
    vertex 0.0 30.0 30.0
    vertex 0.0 22.82842712474619 17.828427124746188
    vertex 0.0 23.464101615137753 16.999999999999996
  endloop
endfacet
facet normal 1.0 -0.0 -0.0
  outer loop
    vertex 0.0 30.0 30.0
    vertex 0.0 23.464101615137753 16.999999999999996
    vertex 0.0 23.863703305156275 16.03527618041008
  endloop
endfacet
facet normal 1.0 -0.0 -0.0
  outer loop
    vertex 0.0 30.0 30.0
    vertex 0.0 23.863703305156275 16.03527618041008
    vertex 0.0 24.0 14.999999999999998
  endloop
endfacet
facet normal 1.0 -0.0 -0.0
  outer loop
    vertex 0.0 30.0 30.0
    vertex 0.0 24.0 14.999999999999998
    vertex 0.0 30.0 0.0
  endloop
endfacet
facet normal 0.0 -1.0 -0.0
  outer loop
    vertex 3.0 30.0 30.0
    vertex 0.0 30.0 0.0
    vertex 3.0 30.0 0.0
  endloop
endfacet
facet normal 0.0 -1.0 -0.0
  outer loop
    vertex 0.0 30.0 0.0
    vertex 3.0 30.0 30.0
    vertex 0.0 30.0 30.0
  endloop
endfacet
facet normal 0.0 0.0 -1.0
  outer loop
    vertex 3.0 30.0 30.0
    vertex 0.0 0.0 30.0
    vertex 0.0 30.0 30.0
  endloop
endfacet
facet normal 0.0 0.0 -1.0
  outer loop
    vertex 0.0 0.0 30.0
    vertex 3.0 30.0 30.0
    vertex 3.0 3.0 30.0
  endloop
endfacet
facet normal 0.0 0.0 -1.0
  outer loop
    vertex 0.0 0.0 30.0
    vertex 3.0 3.0 30.0
    vertex 30.0 0.0 30.0
  endloop
endfacet
facet normal 0.0 0.0 -1.0
  outer loop
    vertex 3.0 3.0 30.0
    vertex 3.0 30.0 30.0
    vertex 3.0 18.0 30.0
  endloop
endfacet
facet normal 0.0 0.0 -1.0
  outer loop
    vertex 30.0 0.0 30.0
    vertex 3.0 3.0 30.0
    vertex 18.0 3.0 30.0
  endloop
endfacet
facet normal 0.0 0.0 -1.0
  outer loop
    vertex 30.0 0.0 30.0
    vertex 18.0 3.0 30.0
    vertex 30.0 3.0 30.0
  endloop
endfacet
facet normal -0.7071067811865476 -0.7071067811865476 0.0
  outer loop
    vertex 18.0 3.0 30.0
    vertex 12.577564612953141 8.422435387046859 28.0
    vertex 18.0 2.9999999999999996 28.0
  endloop
endfacet
facet normal -0.7071067811865476 -0.7071067811865476 0.0
  outer loop
    vertex 12.577564612953141 8.422435387046859 28.0
    vertex 18.0 3.0 30.0
    vertex 3.0 18.0 30.0
  endloop
endfacet
facet normal -0.7071067811865476 -0.7071067811865476 0.0
  outer loop
    vertex 12.577564612953141 8.422435387046859 28.0
    vertex 3.0 18.0 30.0
    vertex 2.9999999999999996 18.0 28.0
  endloop
endfacet
facet normal -7.208503278496666e-19 -1.0 -5.815286210837985e-18
  outer loop
    vertex 30.0 3.0 0.0
    vertex 23.199888872241964 3.0 11.997842759854953
    vertex 18.0 3.0 0.0
  endloop
endfacet
facet normal -7.208503278496666e-19 -1.0 -5.815286210837985e-18
  outer loop
    vertex 23.199888872241964 3.0 11.997842759854953
    vertex 30.0 3.0 0.0
    vertex 23.79972242567361 3.0 13.445969059716074
  endloop
endfacet
facet normal -7.208503278496666e-19 -1.0 -5.815286210837985e-18
  outer loop
    vertex 23.79972242567361 3.0 13.445969059716074
    vertex 30.0 3.0 0.0
    vertex 30.0 3.0 30.0
  endloop
endfacet
facet normal -7.208503278496666e-19 -1.0 -5.815286210837985e-18
  outer loop
    vertex 18.0 3.0 0.0
    vertex 23.199888872241964 3.0 11.997842759854953
    vertex 18.0 3.0 1.9999999999999998
  endloop
endfacet
facet normal -7.208503278496666e-19 -1.0 -5.815286210837985e-18
  outer loop
    vertex 18.0 3.0 1.9999999999999998
    vertex 23.199888872241964 3.0 11.997842759854953
    vertex 22.245691485389703 3.0 10.754308514610306
  endloop
endfacet
facet normal -7.208503278496666e-19 -1.0 -5.815286210837985e-18
  outer loop
    vertex 18.0 3.0 1.9999999999999998
    vertex 22.245691485389703 3.0 10.754308514610306
    vertex 21.002157240145035 3.0 9.800111127758028
  endloop
endfacet
facet normal -7.208503278496666e-19 -1.0 -5.815286210837985e-18
  outer loop
    vertex 18.0 3.0 1.9999999999999998
    vertex 21.002157240145035 3.0 9.800111127758028
    vertex 3.0 3.0 1.9999999999999998
  endloop
endfacet
facet normal -7.208503278496666e-19 -1.0 -5.815286210837985e-18
  outer loop
    vertex 3.0 3.0 1.9999999999999998
    vertex 21.002157240145035 3.0 9.800111127758028
    vertex 19.55403094028392 3.0 9.200277574326387
  endloop
endfacet
facet normal -7.208503278496666e-19 -1.0 -5.815286210837985e-18
  outer loop
    vertex 3.0 3.0 1.9999999999999998
    vertex 19.55403094028392 3.0 9.200277574326387
    vertex 18.000000000000004 3.0 8.99568551970992
  endloop
endfacet
facet normal -7.208503278496666e-19 -1.0 -5.815286210837985e-18
  outer loop
    vertex 23.79972242567361 3.0 13.445969059716074
    vertex 30.0 3.0 30.0
    vertex 24.004314480290077 3.0 15.0
  endloop
endfacet
facet normal -7.208503278496666e-19 -1.0 -5.815286210837985e-18
  outer loop
    vertex 24.004314480290077 3.0 15.0
    vertex 30.0 3.0 30.0
    vertex 23.79972242567361 3.0 16.554030940283912
  endloop
endfacet
facet normal -7.208503278496666e-19 -1.0 -5.815286210837985e-18
  outer loop
    vertex 23.79972242567361 3.0 16.554030940283912
    vertex 30.0 3.0 30.0
    vertex 23.199888872241964 3.0 18.00215724014504
  endloop
endfacet
facet normal -7.208503278496666e-19 -1.0 -5.815286210837985e-18
  outer loop
    vertex 23.199888872241964 3.0 18.00215724014504
    vertex 30.0 3.0 30.0
    vertex 22.245691485389695 3.0 19.245691485389692
  endloop
endfacet
facet normal -7.208503278496666e-19 -1.0 -5.815286210837985e-18
  outer loop
    vertex 22.245691485389695 3.0 19.245691485389692
    vertex 30.0 3.0 30.0
    vertex 21.002157240145042 3.0 20.199888872241964
  endloop
endfacet
facet normal -7.208503278496666e-19 -1.0 -5.815286210837985e-18
  outer loop
    vertex 21.002157240145042 3.0 20.199888872241964
    vertex 30.0 3.0 30.0
    vertex 19.554030940283912 3.0 20.79972242567361
  endloop
endfacet
facet normal -7.208503278496666e-19 -1.0 -5.815286210837985e-18
  outer loop
    vertex 19.554030940283912 3.0 20.79972242567361
    vertex 30.0 3.0 30.0
    vertex 18.0 3.0 21.004314480290077
  endloop
endfacet
facet normal -7.208503278496666e-19 -1.0 -5.815286210837985e-18
  outer loop
    vertex 18.0 3.0 21.004314480290077
    vertex 30.0 3.0 30.0
    vertex 18.0 2.9999999999999996 28.0
  endloop
endfacet
facet normal -7.208503278496666e-19 -1.0 -5.815286210837985e-18
  outer loop
    vertex 18.0 2.9999999999999996 28.0
    vertex 30.0 3.0 30.0
    vertex 18.0 3.0 30.0
  endloop
endfacet
facet normal -7.208503278496666e-19 -1.0 -5.815286210837985e-18
  outer loop
    vertex 3.0 3.0 1.9999999999999998
    vertex 12.80011112775803 3.0 11.997842759854965
    vertex 3.0 3.0 28.0
  endloop
endfacet
facet normal -7.208503278496666e-19 -1.0 -5.815286210837985e-18
  outer loop
    vertex 12.80011112775803 3.0 11.997842759854965
    vertex 3.0 3.0 1.9999999999999998
    vertex 13.754308514610303 3.0 10.754308514610306
  endloop
endfacet
facet normal -7.208503278496666e-19 -1.0 -5.815286210837985e-18
  outer loop
    vertex 13.754308514610303 3.0 10.754308514610306
    vertex 3.0 3.0 1.9999999999999998
    vertex 14.997842759854962 3.0 9.800111127758033
  endloop
endfacet
facet normal -7.208503278496666e-19 -1.0 -5.815286210837985e-18
  outer loop
    vertex 14.997842759854962 3.0 9.800111127758033
    vertex 3.0 3.0 1.9999999999999998
    vertex 16.445969059716074 3.0 9.200277574326389
  endloop
endfacet
facet normal -7.208503278496666e-19 -1.0 -5.815286210837985e-18
  outer loop
    vertex 16.445969059716074 3.0 9.200277574326389
    vertex 3.0 3.0 1.9999999999999998
    vertex 18.000000000000004 3.0 8.99568551970992
  endloop
endfacet
facet normal -7.208503278496666e-19 -1.0 -5.815286210837985e-18
  outer loop
    vertex 3.0 3.0 28.0
    vertex 12.80011112775803 3.0 11.997842759854965
    vertex 12.20027757432639 3.0 13.445969059716086
  endloop
endfacet
facet normal -7.208503278496666e-19 -1.0 -5.815286210837985e-18
  outer loop
    vertex 3.0 3.0 28.0
    vertex 12.20027757432639 3.0 13.445969059716086
    vertex 11.995685519709923 3.0 14.999999999999995
  endloop
endfacet
facet normal -7.208503278496666e-19 -1.0 -5.815286210837985e-18
  outer loop
    vertex 3.0 3.0 28.0
    vertex 11.995685519709923 3.0 14.999999999999995
    vertex 12.200277574326389 3.0 16.554030940283916
  endloop
endfacet
facet normal -7.208503278496666e-19 -1.0 -5.815286210837985e-18
  outer loop
    vertex 3.0 3.0 28.0
    vertex 12.200277574326389 3.0 16.554030940283916
    vertex 12.800111127758035 3.0 18.00215724014504
  endloop
endfacet
facet normal -7.208503278496666e-19 -1.0 -5.815286210837985e-18
  outer loop
    vertex 3.0 3.0 28.0
    vertex 12.800111127758035 3.0 18.00215724014504
    vertex 13.754308514610303 3.0 19.245691485389692
  endloop
endfacet
facet normal -7.208503278496666e-19 -1.0 -5.815286210837985e-18
  outer loop
    vertex 3.0 3.0 28.0
    vertex 13.754308514610303 3.0 19.245691485389692
    vertex 14.997842759854969 3.0 20.19988887224197
  endloop
endfacet
facet normal -7.208503278496666e-19 -1.0 -5.815286210837985e-18
  outer loop
    vertex 3.0 3.0 28.0
    vertex 14.997842759854969 3.0 20.19988887224197
    vertex 16.445969059716074 3.0 20.799722425673608
  endloop
endfacet
facet normal -7.208503278496666e-19 -1.0 -5.815286210837985e-18
  outer loop
    vertex 3.0 3.0 28.0
    vertex 16.445969059716074 3.0 20.799722425673608
    vertex 18.0 3.0 21.004314480290077
  endloop
endfacet
facet normal -7.208503278496666e-19 -1.0 -5.815286210837985e-18
  outer loop
    vertex 3.0 3.0 28.0
    vertex 18.0 3.0 21.004314480290077
    vertex 18.0 2.9999999999999996 28.0
  endloop
endfacet
facet normal 0.0 0.0 -1.0
  outer loop
    vertex 18.0 3.0 30.0
    vertex 3.0 3.0 30.0
    vertex 3.0 18.0 30.0
  endloop
endfacet
facet normal -1.0 -2.3499720687899144e-17 1.7624790515924342e-16
  outer loop
    vertex 3.0 18.0 30.0
    vertex 3.0 3.0 28.0
    vertex 3.0 3.0 30.0
  endloop
endfacet
facet normal -1.0 -2.3499720687899144e-17 1.7624790515924342e-16
  outer loop
    vertex 3.0 3.0 28.0
    vertex 3.0 18.0 30.0
    vertex 2.9999999999999996 18.0 28.0
  endloop
endfacet
facet normal 0.0 0.9914448613738104 -0.13052619222005216
  outer loop
    vertex 0.0 24.0 14.999999999999998
    vertex 3.0 23.863703305156275 13.964723819589919
    vertex 0.0 23.863703305156275 13.964723819589919
  endloop
endfacet
facet normal 0.0 0.9914448613738104 -0.13052619222005216
  outer loop
    vertex 3.0 23.863703305156275 13.964723819589919
    vertex 0.0 24.0 14.999999999999998
    vertex 3.0 24.0 14.999999999999998
  endloop
endfacet
facet normal 0.0 0.9914448613738104 0.1305261922200518
  outer loop
    vertex 0.0 23.863703305156275 16.03527618041008
    vertex 3.0 24.0 14.999999999999998
    vertex 0.0 24.0 14.999999999999998
  endloop
endfacet
facet normal 0.0 0.9914448613738104 0.1305261922200518
  outer loop
    vertex 3.0 24.0 14.999999999999998
    vertex 0.0 23.863703305156275 16.03527618041008
    vertex 3.0 23.863703305156275 16.03527618041008
  endloop
endfacet
facet normal 0.0 0.9238795325112863 0.3826834323650914
  outer loop
    vertex 0.0 23.464101615137753 16.999999999999996
    vertex 3.0 23.863703305156275 16.03527618041008
    vertex 0.0 23.863703305156275 16.03527618041008
  endloop
endfacet
facet normal 0.0 0.9238795325112863 0.3826834323650914
  outer loop
    vertex 3.0 23.863703305156275 16.03527618041008
    vertex 0.0 23.464101615137753 16.999999999999996
    vertex 3.0 23.464101615137753 16.999999999999996
  endloop
endfacet
facet normal 0.0 0.7933533402912359 0.6087614290087197
  outer loop
    vertex 0.0 22.82842712474619 17.828427124746188
    vertex 3.0 23.464101615137753 16.999999999999996
    vertex 0.0 23.464101615137753 16.999999999999996
  endloop
endfacet
facet normal 0.0 0.7933533402912359 0.6087614290087197
  outer loop
    vertex 3.0 23.464101615137753 16.999999999999996
    vertex 0.0 22.82842712474619 17.828427124746188
    vertex 3.0 22.82842712474619 17.828427124746188
  endloop
endfacet
facet normal 0.0 0.6087614290087213 0.7933533402912347
  outer loop
    vertex 3.0 22.000000000000004 18.464101615137753
    vertex 0.0 22.82842712474619 17.828427124746188
    vertex 0.0 22.000000000000004 18.464101615137753
  endloop
endfacet
facet normal 0.0 0.6087614290087213 0.7933533402912347
  outer loop
    vertex 0.0 22.82842712474619 17.828427124746188
    vertex 3.0 22.000000000000004 18.464101615137753
    vertex 3.0 22.82842712474619 17.828427124746188
  endloop
endfacet
facet normal 0.0 0.38268343236508895 0.9238795325112871
  outer loop
    vertex 3.0 21.035276180410087 18.863703305156267
    vertex 0.0 22.000000000000004 18.464101615137753
    vertex 0.0 21.035276180410087 18.863703305156267
  endloop
endfacet
facet normal 0.0 0.38268343236508895 0.9238795325112871
  outer loop
    vertex 0.0 22.000000000000004 18.464101615137753
    vertex 3.0 21.035276180410087 18.863703305156267
    vertex 3.0 22.000000000000004 18.464101615137753
  endloop
endfacet
facet normal 0.0 0.1305261922200518 0.9914448613738104
  outer loop
    vertex 3.0 20.000000000000004 18.999999999999996
    vertex 0.0 21.035276180410087 18.863703305156267
    vertex 0.0 20.000000000000004 18.999999999999996
  endloop
endfacet
facet normal 0.0 0.1305261922200518 0.9914448613738104
  outer loop
    vertex 0.0 21.035276180410087 18.863703305156267
    vertex 3.0 20.000000000000004 18.999999999999996
    vertex 3.0 21.035276180410087 18.863703305156267
  endloop
endfacet
facet normal 0.0 -0.1305261922200518 0.9914448613738104
  outer loop
    vertex 3.0 18.96472381958992 18.863703305156267
    vertex 0.0 20.000000000000004 18.999999999999996
    vertex 0.0 18.96472381958992 18.863703305156267
  endloop
endfacet
facet normal 0.0 -0.1305261922200518 0.9914448613738104
  outer loop
    vertex 0.0 20.000000000000004 18.999999999999996
    vertex 3.0 18.96472381958992 18.863703305156267
    vertex 3.0 20.000000000000004 18.999999999999996
  endloop
endfacet
facet normal 0.0 -0.38268343236508895 0.9238795325112871
  outer loop
    vertex 3.0 18.000000000000004 18.464101615137753
    vertex 0.0 18.96472381958992 18.863703305156267
    vertex 0.0 18.000000000000004 18.464101615137753
  endloop
endfacet
facet normal 0.0 -0.38268343236508895 0.9238795325112871
  outer loop
    vertex 0.0 18.96472381958992 18.863703305156267
    vertex 3.0 18.000000000000004 18.464101615137753
    vertex 3.0 18.96472381958992 18.863703305156267
  endloop
endfacet
facet normal 0.0 -0.6087614290087213 0.7933533402912347
  outer loop
    vertex 3.0 17.171572875253815 17.828427124746188
    vertex 0.0 18.000000000000004 18.464101615137753
    vertex 0.0 17.171572875253815 17.828427124746188
  endloop
endfacet
facet normal 0.0 -0.6087614290087213 0.7933533402912347
  outer loop
    vertex 0.0 18.000000000000004 18.464101615137753
    vertex 3.0 17.171572875253815 17.828427124746188
    vertex 3.0 18.000000000000004 18.464101615137753
  endloop
endfacet
facet normal 0.0 -0.7933533402912347 0.6087614290087213
  outer loop
    vertex 3.0 17.171572875253815 17.828427124746188
    vertex 0.0 16.53589838486225 16.999999999999996
    vertex 3.0 16.53589838486225 16.999999999999996
  endloop
endfacet
facet normal 0.0 -0.7933533402912347 0.6087614290087213
  outer loop
    vertex 0.0 16.53589838486225 16.999999999999996
    vertex 3.0 17.171572875253815 17.828427124746188
    vertex 0.0 17.171572875253815 17.828427124746188
  endloop
endfacet
facet normal 0.0 -0.9238795325112871 0.38268343236508895
  outer loop
    vertex 3.0 16.53589838486225 16.999999999999996
    vertex 0.0 16.136296694843733 16.03527618041008
    vertex 3.0 16.136296694843733 16.03527618041008
  endloop
endfacet
facet normal 0.0 -0.9238795325112871 0.38268343236508895
  outer loop
    vertex 0.0 16.136296694843733 16.03527618041008
    vertex 3.0 16.53589838486225 16.999999999999996
    vertex 0.0 16.53589838486225 16.999999999999996
  endloop
endfacet
facet normal 0.0 -0.9914448613738104 0.1305261922200518
  outer loop
    vertex 3.0 16.136296694843733 16.03527618041008
    vertex 0.0 16.000000000000004 14.999999999999998
    vertex 3.0 16.000000000000004 14.999999999999998
  endloop
endfacet
facet normal 0.0 -0.9914448613738104 0.1305261922200518
  outer loop
    vertex 0.0 16.000000000000004 14.999999999999998
    vertex 3.0 16.136296694843733 16.03527618041008
    vertex 0.0 16.136296694843733 16.03527618041008
  endloop
endfacet
facet normal -0.0 -0.9914448613738105 -0.13052619222005143
  outer loop
    vertex 3.0 16.000000000000004 14.999999999999998
    vertex 0.0 16.136296694843733 13.964723819589912
    vertex 3.0 16.136296694843733 13.964723819589912
  endloop
endfacet
facet normal -0.0 -0.9914448613738105 -0.13052619222005143
  outer loop
    vertex 0.0 16.136296694843733 13.964723819589912
    vertex 3.0 16.000000000000004 14.999999999999998
    vertex 0.0 16.000000000000004 14.999999999999998
  endloop
endfacet
facet normal -0.0 -0.9238795325112863 -0.3826834323650914
  outer loop
    vertex 3.0 16.136296694843733 13.964723819589912
    vertex 0.0 16.53589838486225 12.999999999999996
    vertex 3.0 16.53589838486225 12.999999999999996
  endloop
endfacet
facet normal -0.0 -0.9238795325112863 -0.3826834323650914
  outer loop
    vertex 0.0 16.53589838486225 12.999999999999996
    vertex 3.0 16.136296694843733 13.964723819589912
    vertex 0.0 16.136296694843733 13.964723819589912
  endloop
endfacet
facet normal -0.0 -0.793353340291235 -0.608761429008721
  outer loop
    vertex 3.0 16.53589838486225 12.999999999999996
    vertex 0.0 17.171572875253815 12.171572875253808
    vertex 3.0 17.171572875253815 12.171572875253808
  endloop
endfacet
facet normal -0.0 -0.793353340291235 -0.608761429008721
  outer loop
    vertex 0.0 17.171572875253815 12.171572875253808
    vertex 3.0 16.53589838486225 12.999999999999996
    vertex 0.0 16.53589838486225 12.999999999999996
  endloop
endfacet
facet normal -0.0 -0.6087614290087201 -0.7933533402912358
  outer loop
    vertex 3.0 18.000000000000007 11.535898384862245
    vertex 0.0 17.171572875253815 12.171572875253808
    vertex 0.0 18.000000000000007 11.535898384862245
  endloop
endfacet
facet normal -0.0 -0.6087614290087201 -0.7933533402912358
  outer loop
    vertex 0.0 17.171572875253815 12.171572875253808
    vertex 3.0 18.000000000000007 11.535898384862245
    vertex 3.0 17.171572875253815 12.171572875253808
  endloop
endfacet
facet normal -0.0 -0.38268343236508895 -0.9238795325112871
  outer loop
    vertex 3.0 18.964723819589924 11.136296694843727
    vertex 0.0 18.000000000000007 11.535898384862245
    vertex 0.0 18.964723819589924 11.136296694843727
  endloop
endfacet
facet normal -0.0 -0.38268343236508895 -0.9238795325112871
  outer loop
    vertex 0.0 18.000000000000007 11.535898384862245
    vertex 3.0 18.964723819589924 11.136296694843727
    vertex 3.0 18.000000000000007 11.535898384862245
  endloop
endfacet
facet normal -0.0 -0.13052619222005216 -0.9914448613738104
  outer loop
    vertex 3.0 20.000000000000004 11.0
    vertex 0.0 18.964723819589924 11.136296694843727
    vertex 0.0 20.000000000000004 11.0
  endloop
endfacet
facet normal -0.0 -0.13052619222005216 -0.9914448613738104
  outer loop
    vertex 0.0 18.964723819589924 11.136296694843727
    vertex 3.0 20.000000000000004 11.0
    vertex 3.0 18.964723819589924 11.136296694843727
  endloop
endfacet
facet normal 0.0 0.13052619222005143 -0.9914448613738105
  outer loop
    vertex 3.0 21.035276180410087 11.136296694843727
    vertex 0.0 20.000000000000004 11.0
    vertex 0.0 21.035276180410087 11.136296694843727
  endloop
endfacet
facet normal 0.0 0.13052619222005143 -0.9914448613738105
  outer loop
    vertex 0.0 20.000000000000004 11.0
    vertex 3.0 21.035276180410087 11.136296694843727
    vertex 3.0 20.000000000000004 11.0
  endloop
endfacet
facet normal 0.0 0.3826834323650914 -0.9238795325112863
  outer loop
    vertex 3.0 22.000000000000004 11.535898384862247
    vertex 0.0 21.035276180410087 11.136296694843727
    vertex 0.0 22.000000000000004 11.535898384862247
  endloop
endfacet
facet normal 0.0 0.3826834323650914 -0.9238795325112863
  outer loop
    vertex 0.0 21.035276180410087 11.136296694843727
    vertex 3.0 22.000000000000004 11.535898384862247
    vertex 3.0 21.035276180410087 11.136296694843727
  endloop
endfacet
facet normal 0.0 0.6087614290087205 -0.7933533402912354
  outer loop
    vertex 3.0 22.828427124746195 12.17157287525381
    vertex 0.0 22.000000000000004 11.535898384862247
    vertex 0.0 22.828427124746195 12.17157287525381
  endloop
endfacet
facet normal 0.0 0.6087614290087205 -0.7933533402912354
  outer loop
    vertex 0.0 22.000000000000004 11.535898384862247
    vertex 3.0 22.828427124746195 12.17157287525381
    vertex 3.0 22.000000000000004 11.535898384862247
  endloop
endfacet
facet normal 0.0 0.7933533402912356 -0.6087614290087203
  outer loop
    vertex 0.0 23.464101615137757 12.999999999999998
    vertex 3.0 22.828427124746195 12.17157287525381
    vertex 0.0 22.828427124746195 12.17157287525381
  endloop
endfacet
facet normal 0.0 0.7933533402912356 -0.6087614290087203
  outer loop
    vertex 3.0 22.828427124746195 12.17157287525381
    vertex 0.0 23.464101615137757 12.999999999999998
    vertex 3.0 23.464101615137757 12.999999999999998
  endloop
endfacet
facet normal 0.0 0.9238795325112875 -0.38268343236508806
  outer loop
    vertex 0.0 23.863703305156275 13.964723819589919
    vertex 3.0 23.464101615137757 12.999999999999998
    vertex 0.0 23.464101615137757 12.999999999999998
  endloop
endfacet
facet normal 0.0 0.9238795325112875 -0.38268343236508806
  outer loop
    vertex 3.0 23.464101615137757 12.999999999999998
    vertex 0.0 23.863703305156275 13.964723819589919
    vertex 3.0 23.863703305156275 13.964723819589919
  endloop
endfacet
facet normal -0.0 -0.0 1.0
  outer loop
    vertex 0.0 0.0 0.0
    vertex 3.0 18.0 0.0
    vertex 0.0 30.0 0.0
  endloop
endfacet
facet normal -0.0 -0.0 1.0
  outer loop
    vertex 3.0 18.0 0.0
    vertex 0.0 0.0 0.0
    vertex 18.0 3.0 0.0
  endloop
endfacet
facet normal -0.0 -0.0 1.0
  outer loop
    vertex 18.0 3.0 0.0
    vertex 0.0 0.0 0.0
    vertex 23.85463854923375 0.0 0.0
  endloop
endfacet
facet normal -0.0 -0.0 1.0
  outer loop
    vertex 18.0 3.0 0.0
    vertex 23.85463854923375 0.0 0.0
    vertex 30.0 3.0 0.0
  endloop
endfacet
facet normal -0.0 -0.0 1.0
  outer loop
    vertex 3.0 30.0 0.0
    vertex 0.0 30.0 0.0
    vertex 3.0 18.0 0.0
  endloop
endfacet
facet normal -0.0 -0.0 1.0
  outer loop
    vertex 30.0 3.0 0.0
    vertex 23.85463854923375 0.0 0.0
    vertex 30.0 0.0 0.0
  endloop
endfacet
facet normal -0.0 -0.0 1.0
  outer loop
    vertex 0.0 0.0 11.499999999999998
    vertex -2.4999999999999996 12.999999999999998 11.499999999999998
    vertex -2.4999999999999996 0.0 11.499999999999998
  endloop
endfacet
facet normal -0.0 -0.0 1.0
  outer loop
    vertex -2.4999999999999996 12.999999999999998 11.499999999999998
    vertex 0.0 0.0 11.499999999999998
    vertex 0.0 12.999999999999998 11.499999999999998
  endloop
endfacet
facet normal 0.0 0.0 -1.0
  outer loop
    vertex 0.0 12.999999999999998 18.5
    vertex -2.4999999999999996 0.0 18.5
    vertex -2.4999999999999996 12.999999999999998 18.5
  endloop
endfacet
facet normal 0.0 0.0 -1.0
  outer loop
    vertex -2.4999999999999996 0.0 18.5
    vertex 0.0 12.999999999999998 18.5
    vertex 0.0 0.0 18.5
  endloop
endfacet
facet normal 0.0 0.0 -1.0
  outer loop
    vertex -2.4999999999999996 12.999999999999998 22.5
    vertex -3.9999999999999996 0.0 22.5
    vertex -3.9999999999999996 12.999999999999998 22.5
  endloop
endfacet
facet normal 0.0 0.0 -1.0
  outer loop
    vertex -3.9999999999999996 0.0 22.5
    vertex -2.4999999999999996 12.999999999999998 22.5
    vertex -2.4999999999999996 0.0 22.5
  endloop
endfacet
facet normal -1.0 -0.0 -0.0
  outer loop
    vertex -2.4999999999999996 12.999999999999998 22.5
    vertex -2.4999999999999996 0.0 18.5
    vertex -2.4999999999999996 0.0 22.5
  endloop
endfacet
facet normal -1.0 -0.0 -0.0
  outer loop
    vertex -2.4999999999999996 0.0 18.5
    vertex -2.4999999999999996 12.999999999999998 22.5
    vertex -2.4999999999999996 12.999999999999998 18.5
  endloop
endfacet
facet normal -0.0 -0.0 1.0
  outer loop
    vertex -2.4999999999999996 0.0 7.499999999999999
    vertex -3.9999999999999996 12.999999999999998 7.499999999999999
    vertex -3.9999999999999996 0.0 7.499999999999999
  endloop
endfacet
facet normal -0.0 -0.0 1.0
  outer loop
    vertex -3.9999999999999996 12.999999999999998 7.499999999999999
    vertex -2.4999999999999996 0.0 7.499999999999999
    vertex -2.4999999999999996 12.999999999999998 7.499999999999999
  endloop
endfacet
facet normal -1.0 0.0 0.0
  outer loop
    vertex -2.4999999999999996 12.999999999999998 11.499999999999998
    vertex -2.4999999999999996 0.0 7.499999999999999
    vertex -2.4999999999999996 0.0 11.499999999999998
  endloop
endfacet
facet normal -1.0 0.0 0.0
  outer loop
    vertex -2.4999999999999996 0.0 7.499999999999999
    vertex -2.4999999999999996 12.999999999999998 11.499999999999998
    vertex -2.4999999999999996 12.999999999999998 7.499999999999999
  endloop
endfacet
facet normal 0.0 -1.0 0.0
  outer loop
    vertex 0.0 12.999999999999998 18.5
    vertex -2.4999999999999996 12.999999999999998 11.499999999999998
    vertex 0.0 12.999999999999998 11.499999999999998
  endloop
endfacet
facet normal 0.0 -1.0 0.0
  outer loop
    vertex -2.4999999999999996 12.999999999999998 11.499999999999998
    vertex 0.0 12.999999999999998 18.5
    vertex -6.0 12.999999999999998 12.500000000000007
  endloop
endfacet
facet normal 0.0 -1.0 0.0
  outer loop
    vertex -6.0 12.999999999999998 12.500000000000007
    vertex 0.0 12.999999999999998 18.5
    vertex -6.0 12.999999999999998 14.999999999999998
  endloop
endfacet
facet normal 0.0 -1.0 0.0
  outer loop
    vertex -6.0 12.999999999999998 14.999999999999998
    vertex 0.0 12.999999999999998 18.5
    vertex -6.000000000000001 12.999999999999998 17.499999999999996
  endloop
endfacet
facet normal 0.0 -1.0 0.0
  outer loop
    vertex -6.000000000000001 12.999999999999998 17.499999999999996
    vertex 0.0 12.999999999999998 18.5
    vertex -2.4999999999999996 12.999999999999998 18.5
  endloop
endfacet
facet normal 0.0 -1.0 0.0
  outer loop
    vertex -6.000000000000001 12.999999999999998 17.499999999999996
    vertex -2.4999999999999996 12.999999999999998 18.5
    vertex -3.9999999999999996 12.999999999999998 22.5
  endloop
endfacet
facet normal 0.0 -1.0 0.0
  outer loop
    vertex -3.9999999999999996 12.999999999999998 22.5
    vertex -2.4999999999999996 12.999999999999998 18.5
    vertex -2.4999999999999996 12.999999999999998 22.5
  endloop
endfacet
facet normal 0.0 -1.0 0.0
  outer loop
    vertex -2.4999999999999996 12.999999999999998 11.499999999999998
    vertex -3.9999999999999996 12.999999999999998 7.499999999999999
    vertex -2.4999999999999996 12.999999999999998 7.499999999999999
  endloop
endfacet
facet normal 0.0 -1.0 0.0
  outer loop
    vertex -3.9999999999999996 12.999999999999998 7.499999999999999
    vertex -2.4999999999999996 12.999999999999998 11.499999999999998
    vertex -6.0 12.999999999999998 12.500000000000007
  endloop
endfacet
facet normal 0.9284766908852596 -0.0 0.37139067635410333
  outer loop
    vertex -3.9999999999999996 12.999999999999998 7.499999999999999
    vertex -6.0 0.0 12.500000000000007
    vertex -3.9999999999999996 0.0 7.499999999999999
  endloop
endfacet
facet normal 0.9284766908852596 -0.0 0.37139067635410333
  outer loop
    vertex -6.0 0.0 12.500000000000007
    vertex -3.9999999999999996 12.999999999999998 7.499999999999999
    vertex -6.0 12.999999999999998 12.500000000000007
  endloop
endfacet
facet normal 0.9284766908852594 -0.0 -0.3713906763541038
  outer loop
    vertex -6.000000000000001 12.999999999999998 17.499999999999996
    vertex -3.9999999999999996 0.0 22.5
    vertex -6.000000000000001 0.0 17.499999999999996
  endloop
endfacet
facet normal 0.9284766908852594 -0.0 -0.3713906763541038
  outer loop
    vertex -3.9999999999999996 0.0 22.5
    vertex -6.000000000000001 12.999999999999998 17.499999999999996
    vertex -3.9999999999999996 12.999999999999998 22.5
  endloop
endfacet
facet normal 1.0 -4.950927775992238e-18 9.699108859481447e-17
  outer loop
    vertex -6.0 12.999999999999998 12.500000000000007
    vertex -6.0 0.0 14.999999999999998
    vertex -6.0 0.0 12.500000000000007
  endloop
endfacet
facet normal 1.0 -4.950927775992238e-18 9.699108859481447e-17
  outer loop
    vertex -6.0 0.0 14.999999999999998
    vertex -6.0 12.999999999999998 12.500000000000007
    vertex -6.0 7.63765333685647 13.647703843195304
  endloop
endfacet
facet normal 1.0 -4.950927775992238e-18 9.699108859481447e-17
  outer loop
    vertex -6.0 0.0 14.999999999999998
    vertex -6.0 7.63765333685647 13.647703843195304
    vertex -6.0 7.299999999999999 13.787564434701785
  endloop
endfacet
facet normal 1.0 -4.950927775992238e-18 9.699108859481447e-17
  outer loop
    vertex -6.0 0.0 14.999999999999998
    vertex -6.0 7.299999999999999 13.787564434701785
    vertex -6.0 7.010050506338833 14.010050506338832
  endloop
endfacet
facet normal 1.0 -4.950927775992238e-18 9.699108859481447e-17
  outer loop
    vertex -6.0 0.0 14.999999999999998
    vertex -6.0 7.010050506338833 14.010050506338832
    vertex -6.0 6.7875644347017845 14.299999999999997
  endloop
endfacet
facet normal 1.0 -4.950927775992238e-18 9.699108859481447e-17
  outer loop
    vertex -6.0 0.0 14.999999999999998
    vertex -6.0 6.7875644347017845 14.299999999999997
    vertex -6.0 6.647703843195304 14.637653336856467
  endloop
endfacet
facet normal 1.0 -4.950927775992238e-18 9.699108859481447e-17
  outer loop
    vertex -6.0 0.0 14.999999999999998
    vertex -6.0 6.647703843195304 14.637653336856467
    vertex -6.0 6.599999999999999 14.999999999999998
  endloop
endfacet
facet normal 1.0 -4.950927775992238e-18 9.699108859481447e-17
  outer loop
    vertex -6.0 7.63765333685647 13.647703843195304
    vertex -6.0 12.999999999999998 12.500000000000007
    vertex -6.0 7.999999999999999 13.599999999999998
  endloop
endfacet
facet normal 1.0 -4.950927775992238e-18 9.699108859481447e-17
  outer loop
    vertex -6.0 7.999999999999999 13.599999999999998
    vertex -6.0 12.999999999999998 12.500000000000007
    vertex -6.0 8.362346663143528 13.647703843195304
  endloop
endfacet
facet normal 1.0 -4.950927775992238e-18 9.699108859481447e-17
  outer loop
    vertex -6.0 8.362346663143528 13.647703843195304
    vertex -6.0 12.999999999999998 12.500000000000007
    vertex -6.0 8.7 13.787564434701785
  endloop
endfacet
facet normal 1.0 -4.950927775992238e-18 9.699108859481447e-17
  outer loop
    vertex -6.0 8.7 13.787564434701785
    vertex -6.0 12.999999999999998 12.500000000000007
    vertex -6.0 8.989949493661166 14.010050506338832
  endloop
endfacet
facet normal 1.0 -4.950927775992238e-18 9.699108859481447e-17
  outer loop
    vertex -6.0 8.989949493661166 14.010050506338832
    vertex -6.0 12.999999999999998 12.500000000000007
    vertex -6.0 9.212435565298215 14.299999999999999
  endloop
endfacet
facet normal 1.0 -4.950927775992238e-18 9.699108859481447e-17
  outer loop
    vertex -6.0 9.212435565298215 14.299999999999999
    vertex -6.0 12.999999999999998 12.500000000000007
    vertex -6.0 9.352296156804696 14.63765333685647
  endloop
endfacet
facet normal 1.0 -4.950927775992238e-18 9.699108859481447e-17
  outer loop
    vertex -6.0 9.352296156804696 14.63765333685647
    vertex -6.0 12.999999999999998 12.500000000000007
    vertex -6.0 9.4 14.999999999999998
  endloop
endfacet
facet normal 1.0 -4.950927775992238e-18 9.699108859481447e-17
  outer loop
    vertex -6.0 9.4 14.999999999999998
    vertex -6.0 12.999999999999998 12.500000000000007
    vertex -6.0 12.999999999999998 14.999999999999998
  endloop
endfacet
facet normal 1.0 -1.2349709755176682e-18 3.212346763506442e-16
  outer loop
    vertex -6.0 6.599999999999999 14.999999999999998
    vertex -6.000000000000001 0.0 17.499999999999996
    vertex -6.0 0.0 14.999999999999998
  endloop
endfacet
facet normal 1.0 -1.2349709755176682e-18 3.212346763506442e-16
  outer loop
    vertex -6.000000000000001 0.0 17.499999999999996
    vertex -6.0 6.599999999999999 14.999999999999998
    vertex -6.0 6.647703843195304 15.362346663143526
  endloop
endfacet
facet normal 1.0 -1.2349709755176682e-18 3.212346763506442e-16
  outer loop
    vertex -6.000000000000001 0.0 17.499999999999996
    vertex -6.0 6.647703843195304 15.362346663143526
    vertex -6.0 6.7875644347017845 15.699999999999996
  endloop
endfacet
facet normal 1.0 -1.2349709755176682e-18 3.212346763506442e-16
  outer loop
    vertex -6.000000000000001 0.0 17.499999999999996
    vertex -6.0 6.7875644347017845 15.699999999999996
    vertex -6.0 7.010050506338833 15.989949493661165
  endloop
endfacet
facet normal 1.0 -1.2349709755176682e-18 3.212346763506442e-16
  outer loop
    vertex -6.000000000000001 0.0 17.499999999999996
    vertex -6.0 7.010050506338833 15.989949493661165
    vertex -6.0 7.299999999999999 16.21243556529821
  endloop
endfacet
facet normal 1.0 -1.2349709755176682e-18 3.212346763506442e-16
  outer loop
    vertex -6.000000000000001 0.0 17.499999999999996
    vertex -6.0 7.299999999999999 16.21243556529821
    vertex -6.000000000000001 7.637653336856468 16.35229615680469
  endloop
endfacet
facet normal 1.0 -1.2349709755176682e-18 3.212346763506442e-16
  outer loop
    vertex -6.000000000000001 0.0 17.499999999999996
    vertex -6.000000000000001 7.637653336856468 16.35229615680469
    vertex -6.000000000000001 12.999999999999998 17.499999999999996
  endloop
endfacet
facet normal 1.0 -1.2349709755176682e-18 3.212346763506442e-16
  outer loop
    vertex -6.000000000000001 12.999999999999998 17.499999999999996
    vertex -6.000000000000001 7.637653336856468 16.35229615680469
    vertex -6.000000000000001 7.999999999999999 16.4
  endloop
endfacet
facet normal 1.0 -1.2349709755176682e-18 3.212346763506442e-16
  outer loop
    vertex -6.000000000000001 12.999999999999998 17.499999999999996
    vertex -6.000000000000001 7.999999999999999 16.4
    vertex -6.000000000000001 8.362346663143528 16.35229615680469
  endloop
endfacet
facet normal 1.0 -1.2349709755176682e-18 3.212346763506442e-16
  outer loop
    vertex -6.000000000000001 12.999999999999998 17.499999999999996
    vertex -6.000000000000001 8.362346663143528 16.35229615680469
    vertex -6.0 8.699999999999998 16.212435565298215
  endloop
endfacet
facet normal 1.0 -1.2349709755176682e-18 3.212346763506442e-16
  outer loop
    vertex -6.000000000000001 12.999999999999998 17.499999999999996
    vertex -6.0 8.699999999999998 16.212435565298215
    vertex -6.0 8.989949493661166 15.989949493661165
  endloop
endfacet
facet normal 1.0 -1.2349709755176682e-18 3.212346763506442e-16
  outer loop
    vertex -6.000000000000001 12.999999999999998 17.499999999999996
    vertex -6.0 8.989949493661166 15.989949493661165
    vertex -6.0 9.212435565298215 15.7
  endloop
endfacet
facet normal 1.0 -1.2349709755176682e-18 3.212346763506442e-16
  outer loop
    vertex -6.000000000000001 12.999999999999998 17.499999999999996
    vertex -6.0 9.212435565298215 15.7
    vertex -6.0 9.352296156804696 15.362346663143528
  endloop
endfacet
facet normal 1.0 -1.2349709755176682e-18 3.212346763506442e-16
  outer loop
    vertex -6.000000000000001 12.999999999999998 17.499999999999996
    vertex -6.0 9.352296156804696 15.362346663143528
    vertex -6.0 9.4 14.999999999999998
  endloop
endfacet
facet normal 1.0 -1.2349709755176682e-18 3.212346763506442e-16
  outer loop
    vertex -6.000000000000001 12.999999999999998 17.499999999999996
    vertex -6.0 9.4 14.999999999999998
    vertex -6.0 12.999999999999998 14.999999999999998
  endloop
endfacet
facet normal 3.211769204452207e-17 0.9914448613738105 -0.13052619222005138
  outer loop
    vertex -6.0 9.352296156804696 14.63765333685647
    vertex 3.0000000000000058 9.4 14.99999999999999
    vertex 3.0000000000000058 9.352296156804696 14.637653336856461
  endloop
endfacet
facet normal 3.211769204452207e-17 0.9914448613738105 -0.13052619222005138
  outer loop
    vertex 3.0000000000000058 9.4 14.99999999999999
    vertex -6.0 9.352296156804696 14.63765333685647
    vertex -6.0 9.4 14.999999999999998
  endloop
endfacet
facet normal -3.211769204452177e-17 0.9914448613738107 0.1305261922200504
  outer loop
    vertex -6.0 9.4 14.999999999999998
    vertex 3.0000000000000058 9.352296156804696 15.362346663143521
    vertex 3.0000000000000058 9.4 14.99999999999999
  endloop
endfacet
facet normal -3.211769204452177e-17 0.9914448613738107 0.1305261922200504
  outer loop
    vertex 3.0000000000000058 9.352296156804696 15.362346663143521
    vertex -6.0 9.4 14.999999999999998
    vertex -6.0 9.352296156804696 15.362346663143528
  endloop
endfacet
facet normal -9.41643084977278e-17 0.9238795325112867 0.38268343236509
  outer loop
    vertex -6.0 9.352296156804696 15.362346663143528
    vertex 3.0000000000000058 9.212435565298215 15.69999999999999
    vertex 3.0000000000000058 9.352296156804696 15.362346663143521
  endloop
endfacet
facet normal -9.41643084977278e-17 0.9238795325112867 0.38268343236509
  outer loop
    vertex 3.0000000000000058 9.212435565298215 15.69999999999999
    vertex -6.0 9.352296156804696 15.362346663143528
    vertex -6.0 9.212435565298215 15.7
  endloop
endfacet
facet normal -1.4979378294069128e-16 0.7933533402912337 0.6087614290087229
  outer loop
    vertex -6.0 9.212435565298215 15.7
    vertex 3.0000000000000058 8.989949493661166 15.989949493661156
    vertex 3.0000000000000058 9.212435565298215 15.69999999999999
  endloop
endfacet
facet normal -1.4979378294069128e-16 0.7933533402912337 0.6087614290087229
  outer loop
    vertex 3.0000000000000058 8.989949493661166 15.989949493661156
    vertex -6.0 9.212435565298215 15.7
    vertex -6.0 8.989949493661166 15.989949493661165
  endloop
endfacet
facet normal -1.9521505862217616e-16 0.6087614290087215 0.7933533402912345
  outer loop
    vertex 3.0000000000000058 8.699999999999998 16.212435565298204
    vertex -6.0 8.989949493661166 15.989949493661165
    vertex -6.0 8.699999999999998 16.212435565298215
  endloop
endfacet
facet normal -1.9521505862217616e-16 0.6087614290087215 0.7933533402912345
  outer loop
    vertex -6.0 8.989949493661166 15.989949493661165
    vertex 3.0000000000000058 8.699999999999998 16.212435565298204
    vertex 3.0000000000000058 8.989949493661166 15.989949493661156
  endloop
endfacet
facet normal -2.2733275066669907e-16 0.3826834323650834 0.9238795325112894
  outer loop
    vertex 3.0000000000000058 8.362346663143528 16.352296156804684
    vertex -6.0 8.699999999999998 16.212435565298215
    vertex -6.000000000000001 8.362346663143528 16.35229615680469
  endloop
endfacet
facet normal -2.2733275066669907e-16 0.3826834323650834 0.9238795325112894
  outer loop
    vertex -6.0 8.699999999999998 16.212435565298215
    vertex 3.0000000000000058 8.362346663143528 16.352296156804684
    vertex 3.0000000000000058 8.699999999999998 16.212435565298204
  endloop
endfacet
facet normal -2.4395809143841836e-16 0.13052619222005518 0.9914448613738099
  outer loop
    vertex 3.0000000000000058 7.999999999999999 16.399999999999988
    vertex -6.000000000000001 8.362346663143528 16.35229615680469
    vertex -6.000000000000001 7.999999999999999 16.4
  endloop
endfacet
facet normal -2.4395809143841836e-16 0.13052619222005518 0.9914448613738099
  outer loop
    vertex -6.000000000000001 8.362346663143528 16.35229615680469
    vertex 3.0000000000000058 7.999999999999999 16.399999999999988
    vertex 3.0000000000000058 8.362346663143528 16.352296156804684
  endloop
endfacet
facet normal -2.439580914384184e-16 -0.13052619222005418 0.99144486137381
  outer loop
    vertex 3.0000000000000058 7.637653336856468 16.352296156804684
    vertex -6.000000000000001 7.999999999999999 16.4
    vertex -6.000000000000001 7.637653336856468 16.35229615680469
  endloop
endfacet
facet normal -2.439580914384184e-16 -0.13052619222005418 0.99144486137381
  outer loop
    vertex -6.000000000000001 7.999999999999999 16.4
    vertex 3.0000000000000058 7.637653336856468 16.352296156804684
    vertex 3.0000000000000058 7.999999999999999 16.399999999999988
  endloop
endfacet
facet normal -2.273327506666983e-16 -0.38268343236509134 0.9238795325112861
  outer loop
    vertex -6.0 7.299999999999999 16.21243556529821
    vertex 3.0000000000000058 7.637653336856468 16.352296156804684
    vertex -6.000000000000001 7.637653336856468 16.35229615680469
  endloop
endfacet
facet normal -2.273327506666983e-16 -0.38268343236509134 0.9238795325112861
  outer loop
    vertex 3.0000000000000058 7.637653336856468 16.352296156804684
    vertex -6.0 7.299999999999999 16.21243556529821
    vertex 3.0000000000000058 7.299999999999999 16.212435565298204
  endloop
endfacet
facet normal -1.952150586221768e-16 -0.6087614290087185 0.7933533402912368
  outer loop
    vertex 3.0000000000000058 7.010050506338833 15.989949493661156
    vertex -6.0 7.299999999999999 16.21243556529821
    vertex -6.0 7.010050506338833 15.989949493661165
  endloop
endfacet
facet normal -1.952150586221768e-16 -0.6087614290087185 0.7933533402912368
  outer loop
    vertex -6.0 7.299999999999999 16.21243556529821
    vertex 3.0000000000000058 7.010050506338833 15.989949493661156
    vertex 3.0000000000000058 7.299999999999999 16.212435565298204
  endloop
endfacet
facet normal -1.4979378294069041e-16 -0.7933533402912365 0.6087614290087191
  outer loop
    vertex 3.0000000000000058 7.010050506338833 15.989949493661156
    vertex -6.0 6.7875644347017845 15.699999999999996
    vertex 3.0000000000000058 6.7875644347017845 15.699999999999989
  endloop
endfacet
facet normal -1.4979378294069041e-16 -0.7933533402912365 0.6087614290087191
  outer loop
    vertex -6.0 6.7875644347017845 15.699999999999996
    vertex 3.0000000000000058 7.010050506338833 15.989949493661156
    vertex -6.0 7.010050506338833 15.989949493661165
  endloop
endfacet
facet normal -9.416430849772785e-17 -0.9238795325112867 0.38268343236509
  outer loop
    vertex 3.0000000000000058 6.7875644347017845 15.699999999999989
    vertex -6.0 6.647703843195304 15.362346663143526
    vertex 3.0000000000000058 6.647703843195304 15.362346663143517
  endloop
endfacet
facet normal -9.416430849772785e-17 -0.9238795325112867 0.38268343236509
  outer loop
    vertex -6.0 6.647703843195304 15.362346663143526
    vertex 3.0000000000000058 6.7875644347017845 15.699999999999989
    vertex -6.0 6.7875644347017845 15.699999999999996
  endloop
endfacet
facet normal -3.211769204452207e-17 -0.9914448613738105 0.13052619222005138
  outer loop
    vertex 3.0000000000000058 6.647703843195304 15.362346663143517
    vertex -6.0 6.599999999999999 14.999999999999998
    vertex 3.0000000000000058 6.599999999999999 14.99999999999999
  endloop
endfacet
facet normal -3.211769204452207e-17 -0.9914448613738105 0.13052619222005138
  outer loop
    vertex -6.0 6.599999999999999 14.999999999999998
    vertex 3.0000000000000058 6.647703843195304 15.362346663143517
    vertex -6.0 6.647703843195304 15.362346663143526
  endloop
endfacet
facet normal 3.211769204452177e-17 -0.9914448613738107 -0.1305261922200504
  outer loop
    vertex 3.0000000000000058 6.599999999999999 14.99999999999999
    vertex -6.0 6.647703843195304 14.637653336856467
    vertex 3.0000000000000058 6.647703843195304 14.63765333685646
  endloop
endfacet
facet normal 3.211769204452177e-17 -0.9914448613738107 -0.1305261922200504
  outer loop
    vertex -6.0 6.647703843195304 14.637653336856467
    vertex 3.0000000000000058 6.599999999999999 14.99999999999999
    vertex -6.0 6.599999999999999 14.999999999999998
  endloop
endfacet
facet normal 9.41643084977278e-17 -0.9238795325112867 -0.38268343236509
  outer loop
    vertex 3.0000000000000058 6.647703843195304 14.63765333685646
    vertex -6.0 6.7875644347017845 14.299999999999997
    vertex 3.0000000000000058 6.7875644347017845 14.299999999999988
  endloop
endfacet
facet normal 9.41643084977278e-17 -0.9238795325112867 -0.38268343236509
  outer loop
    vertex -6.0 6.7875644347017845 14.299999999999997
    vertex 3.0000000000000058 6.647703843195304 14.63765333685646
    vertex -6.0 6.647703843195304 14.637653336856467
  endloop
endfacet
facet normal 1.4979378294069128e-16 -0.7933533402912337 -0.6087614290087229
  outer loop
    vertex 3.0000000000000058 6.7875644347017845 14.299999999999988
    vertex -6.0 7.010050506338833 14.010050506338832
    vertex 3.0000000000000058 7.010050506338833 14.010050506338823
  endloop
endfacet
facet normal 1.4979378294069128e-16 -0.7933533402912337 -0.6087614290087229
  outer loop
    vertex -6.0 7.010050506338833 14.010050506338832
    vertex 3.0000000000000058 6.7875644347017845 14.299999999999988
    vertex -6.0 6.7875644347017845 14.299999999999997
  endloop
endfacet
facet normal 1.9521505862217675e-16 -0.6087614290087185 -0.7933533402912368
  outer loop
    vertex 3.0000000000000058 7.299999999999999 13.787564434701777
    vertex -6.0 7.010050506338833 14.010050506338832
    vertex -6.0 7.299999999999999 13.787564434701785
  endloop
endfacet
facet normal 1.9521505862217675e-16 -0.6087614290087185 -0.7933533402912368
  outer loop
    vertex -6.0 7.010050506338833 14.010050506338832
    vertex 3.0000000000000058 7.299999999999999 13.787564434701777
    vertex 3.0000000000000058 7.010050506338833 14.010050506338823
  endloop
endfacet
facet normal 2.2733275066669843e-16 -0.38268343236509 -0.9238795325112867
  outer loop
    vertex -6.0 7.63765333685647 13.647703843195304
    vertex 3.0000000000000058 7.299999999999999 13.787564434701777
    vertex -6.0 7.299999999999999 13.787564434701785
  endloop
endfacet
facet normal 2.2733275066669843e-16 -0.38268343236509 -0.9238795325112867
  outer loop
    vertex 3.0000000000000058 7.299999999999999 13.787564434701777
    vertex -6.0 7.63765333685647 13.647703843195304
    vertex 3.0000000000000058 7.63765333685647 13.647703843195295
  endloop
endfacet
facet normal 2.4395809143841846e-16 -0.13052619222005468 -0.9914448613738102
  outer loop
    vertex 3.0000000000000058 7.999999999999999 13.599999999999989
    vertex -6.0 7.63765333685647 13.647703843195304
    vertex -6.0 7.999999999999999 13.599999999999998
  endloop
endfacet
facet normal 2.4395809143841846e-16 -0.13052619222005468 -0.9914448613738102
  outer loop
    vertex -6.0 7.63765333685647 13.647703843195304
    vertex 3.0000000000000058 7.999999999999999 13.599999999999989
    vertex 3.0000000000000058 7.63765333685647 13.647703843195295
  endloop
endfacet
facet normal 2.4395809143841846e-16 0.13052619222005468 -0.9914448613738102
  outer loop
    vertex 3.0000000000000058 8.362346663143528 13.647703843195295
    vertex -6.0 7.999999999999999 13.599999999999998
    vertex -6.0 8.362346663143528 13.647703843195304
  endloop
endfacet
facet normal 2.4395809143841846e-16 0.13052619222005468 -0.9914448613738102
  outer loop
    vertex -6.0 7.999999999999999 13.599999999999998
    vertex 3.0000000000000058 8.362346663143528 13.647703843195295
    vertex 3.0000000000000058 7.999999999999999 13.599999999999989
  endloop
endfacet
facet normal 2.2733275066669843e-16 0.38268343236509 -0.9238795325112867
  outer loop
    vertex 3.0000000000000058 8.7 13.787564434701777
    vertex -6.0 8.362346663143528 13.647703843195304
    vertex -6.0 8.7 13.787564434701785
  endloop
endfacet
facet normal 2.2733275066669843e-16 0.38268343236509 -0.9238795325112867
  outer loop
    vertex -6.0 8.362346663143528 13.647703843195304
    vertex 3.0000000000000058 8.7 13.787564434701777
    vertex 3.0000000000000058 8.362346663143528 13.647703843195295
  endloop
endfacet
facet normal 1.952150586221768e-16 0.6087614290087185 -0.7933533402912368
  outer loop
    vertex 3.0000000000000058 8.989949493661166 14.010050506338823
    vertex -6.0 8.7 13.787564434701785
    vertex -6.0 8.989949493661166 14.010050506338832
  endloop
endfacet
facet normal 1.952150586221768e-16 0.6087614290087185 -0.7933533402912368
  outer loop
    vertex -6.0 8.7 13.787564434701785
    vertex 3.0000000000000058 8.989949493661166 14.010050506338823
    vertex 3.0000000000000058 8.7 13.787564434701777
  endloop
endfacet
facet normal 1.4979378294069041e-16 0.7933533402912365 -0.6087614290087191
  outer loop
    vertex -6.0 8.989949493661166 14.010050506338832
    vertex 3.0000000000000058 9.212435565298215 14.29999999999999
    vertex 3.0000000000000058 8.989949493661166 14.010050506338823
  endloop
endfacet
facet normal 1.4979378294069041e-16 0.7933533402912365 -0.6087614290087191
  outer loop
    vertex 3.0000000000000058 9.212435565298215 14.29999999999999
    vertex -6.0 8.989949493661166 14.010050506338832
    vertex -6.0 9.212435565298215 14.299999999999999
  endloop
endfacet
facet normal 9.416430849772785e-17 0.9238795325112867 -0.38268343236509
  outer loop
    vertex -6.0 9.212435565298215 14.299999999999999
    vertex 3.0000000000000058 9.352296156804696 14.637653336856461
    vertex 3.0000000000000058 9.212435565298215 14.29999999999999
  endloop
endfacet
facet normal 9.416430849772785e-17 0.9238795325112867 -0.38268343236509
  outer loop
    vertex 3.0000000000000058 9.352296156804696 14.637653336856461
    vertex -6.0 9.212435565298215 14.299999999999999
    vertex -6.0 9.352296156804696 14.63765333685647
  endloop
endfacet
facet normal -1.0 -7.208503278496668e-19 -5.815286210837984e-18
  outer loop
    vertex 3.0 30.0 30.0
    vertex 2.9999999999999996 18.0 28.0
    vertex 3.0 18.0 30.0
  endloop
endfacet
facet normal -1.0 -7.208503278496668e-19 -5.815286210837984e-18
  outer loop
    vertex 2.9999999999999996 18.0 28.0
    vertex 3.0 30.0 30.0
    vertex 3.0 18.000000000000004 18.464101615137753
  endloop
endfacet
facet normal -1.0 -7.208503278496668e-19 -5.815286210837984e-18
  outer loop
    vertex 3.0 18.000000000000004 18.464101615137753
    vertex 3.0 30.0 30.0
    vertex 3.0 18.96472381958992 18.863703305156267
  endloop
endfacet
facet normal -1.0 -7.208503278496668e-19 -5.815286210837984e-18
  outer loop
    vertex 3.0 18.96472381958992 18.863703305156267
    vertex 3.0 30.0 30.0
    vertex 3.0 20.000000000000004 18.999999999999996
  endloop
endfacet
facet normal -1.0 -7.208503278496668e-19 -5.815286210837984e-18
  outer loop
    vertex 3.0 20.000000000000004 18.999999999999996
    vertex 3.0 30.0 30.0
    vertex 3.0 21.035276180410087 18.863703305156267
  endloop
endfacet
facet normal -1.0 -7.208503278496668e-19 -5.815286210837984e-18
  outer loop
    vertex 3.0 21.035276180410087 18.863703305156267
    vertex 3.0 30.0 30.0
    vertex 3.0 22.000000000000004 18.464101615137753
  endloop
endfacet
facet normal -1.0 -7.208503278496668e-19 -5.815286210837984e-18
  outer loop
    vertex 3.0 22.000000000000004 18.464101615137753
    vertex 3.0 30.0 30.0
    vertex 3.0 22.82842712474619 17.828427124746188
  endloop
endfacet
facet normal -1.0 -7.208503278496668e-19 -5.815286210837984e-18
  outer loop
    vertex 3.0 22.82842712474619 17.828427124746188
    vertex 3.0 30.0 30.0
    vertex 3.0 23.464101615137753 16.999999999999996
  endloop
endfacet
facet normal -1.0 -7.208503278496668e-19 -5.815286210837984e-18
  outer loop
    vertex 3.0 23.464101615137753 16.999999999999996
    vertex 3.0 30.0 30.0
    vertex 3.0 23.863703305156275 16.03527618041008
  endloop
endfacet
facet normal -1.0 -7.208503278496668e-19 -5.815286210837984e-18
  outer loop
    vertex 3.0 23.863703305156275 16.03527618041008
    vertex 3.0 30.0 30.0
    vertex 3.0 24.0 14.999999999999998
  endloop
endfacet
facet normal -1.0 -7.208503278496668e-19 -5.815286210837984e-18
  outer loop
    vertex 3.0 3.0 1.9999999999999998
    vertex 3.0000000000000058 7.010050506338833 14.010050506338823
    vertex 3.0 18.0 1.9999999999999998
  endloop
endfacet
facet normal -1.0 -7.208503278496668e-19 -5.815286210837984e-18
  outer loop
    vertex 3.0000000000000058 7.010050506338833 14.010050506338823
    vertex 3.0 3.0 1.9999999999999998
    vertex 3.0000000000000058 6.7875644347017845 14.299999999999988
  endloop
endfacet
facet normal -1.0 -7.208503278496668e-19 -5.815286210837984e-18
  outer loop
    vertex 3.0000000000000058 6.7875644347017845 14.299999999999988
    vertex 3.0 3.0 1.9999999999999998
    vertex 3.0000000000000058 6.647703843195304 14.63765333685646
  endloop
endfacet
facet normal -1.0 -7.208503278496668e-19 -5.815286210837984e-18
  outer loop
    vertex 3.0000000000000058 6.647703843195304 14.63765333685646
    vertex 3.0 3.0 1.9999999999999998
    vertex 3.0000000000000058 6.599999999999999 14.99999999999999
  endloop
endfacet
facet normal -1.0 -7.208503278496668e-19 -5.815286210837984e-18
  outer loop
    vertex 3.0 18.0 1.9999999999999998
    vertex 3.0000000000000058 7.010050506338833 14.010050506338823
    vertex 3.0000000000000058 7.299999999999999 13.787564434701777
  endloop
endfacet
facet normal -1.0 -7.208503278496668e-19 -5.815286210837984e-18
  outer loop
    vertex 3.0 18.0 1.9999999999999998
    vertex 3.0000000000000058 7.299999999999999 13.787564434701777
    vertex 3.0000000000000058 7.63765333685647 13.647703843195295
  endloop
endfacet
facet normal -1.0 -7.208503278496668e-19 -5.815286210837984e-18
  outer loop
    vertex 3.0 18.0 1.9999999999999998
    vertex 3.0000000000000058 7.63765333685647 13.647703843195295
    vertex 3.0000000000000058 7.999999999999999 13.599999999999989
  endloop
endfacet
facet normal -1.0 -7.208503278496668e-19 -5.815286210837984e-18
  outer loop
    vertex 3.0 18.0 1.9999999999999998
    vertex 3.0000000000000058 7.999999999999999 13.599999999999989
    vertex 3.0000000000000058 8.362346663143528 13.647703843195295
  endloop
endfacet
facet normal -1.0 -7.208503278496668e-19 -5.815286210837984e-18
  outer loop
    vertex 3.0 18.0 1.9999999999999998
    vertex 3.0000000000000058 8.362346663143528 13.647703843195295
    vertex 3.0000000000000058 8.7 13.787564434701777
  endloop
endfacet
facet normal -1.0 -7.208503278496668e-19 -5.815286210837984e-18
  outer loop
    vertex 3.0 18.0 1.9999999999999998
    vertex 3.0000000000000058 8.7 13.787564434701777
    vertex 3.0000000000000058 8.989949493661166 14.010050506338823
  endloop
endfacet
facet normal -1.0 -7.208503278496668e-19 -5.815286210837984e-18
  outer loop
    vertex 3.0 18.0 1.9999999999999998
    vertex 3.0000000000000058 8.989949493661166 14.010050506338823
    vertex 3.0000000000000058 9.212435565298215 14.29999999999999
  endloop
endfacet
facet normal -1.0 -7.208503278496668e-19 -5.815286210837984e-18
  outer loop
    vertex 3.0 18.0 1.9999999999999998
    vertex 3.0000000000000058 9.212435565298215 14.29999999999999
    vertex 3.0000000000000058 9.352296156804696 14.637653336856461
  endloop
endfacet
facet normal -1.0 -7.208503278496668e-19 -5.815286210837984e-18
  outer loop
    vertex 3.0 18.0 1.9999999999999998
    vertex 3.0000000000000058 9.352296156804696 14.637653336856461
    vertex 3.0000000000000058 9.4 14.99999999999999
  endloop
endfacet
facet normal -1.0 -7.208503278496668e-19 -5.815286210837984e-18
  outer loop
    vertex 3.0 18.0 1.9999999999999998
    vertex 3.0000000000000058 9.4 14.99999999999999
    vertex 3.0 16.136296694843733 13.964723819589912
  endloop
endfacet
facet normal -1.0 -7.208503278496668e-19 -5.815286210837984e-18
  outer loop
    vertex 3.0 16.136296694843733 13.964723819589912
    vertex 3.0000000000000058 9.4 14.99999999999999
    vertex 3.0 16.000000000000004 14.999999999999998
  endloop
endfacet
facet normal -1.0 -7.208503278496668e-19 -5.815286210837984e-18
  outer loop
    vertex 3.0 18.0 1.9999999999999998
    vertex 3.0 16.136296694843733 13.964723819589912
    vertex 3.0 16.53589838486225 12.999999999999996
  endloop
endfacet
facet normal -1.0 -7.208503278496668e-19 -5.815286210837984e-18
  outer loop
    vertex 3.0 18.0 1.9999999999999998
    vertex 3.0 16.53589838486225 12.999999999999996
    vertex 3.0 17.171572875253815 12.171572875253808
  endloop
endfacet
facet normal -1.0 -7.208503278496668e-19 -5.815286210837984e-18
  outer loop
    vertex 3.0 18.0 1.9999999999999998
    vertex 3.0 17.171572875253815 12.171572875253808
    vertex 3.0 18.000000000000007 11.535898384862245
  endloop
endfacet
facet normal -1.0 -7.208503278496668e-19 -5.815286210837984e-18
  outer loop
    vertex 3.0 18.0 1.9999999999999998
    vertex 3.0 18.000000000000007 11.535898384862245
    vertex 3.0 18.0 0.0
  endloop
endfacet
facet normal -1.0 -7.208503278496668e-19 -5.815286210837984e-18
  outer loop
    vertex 3.0 18.0 0.0
    vertex 3.0 18.000000000000007 11.535898384862245
    vertex 3.0 30.0 0.0
  endloop
endfacet
facet normal -1.0 -7.208503278496668e-19 -5.815286210837984e-18
  outer loop
    vertex 3.0 30.0 0.0
    vertex 3.0 18.000000000000007 11.535898384862245
    vertex 3.0 18.964723819589924 11.136296694843727
  endloop
endfacet
facet normal -1.0 -7.208503278496668e-19 -5.815286210837984e-18
  outer loop
    vertex 3.0 30.0 0.0
    vertex 3.0 18.964723819589924 11.136296694843727
    vertex 3.0 20.000000000000004 11.0
  endloop
endfacet
facet normal -1.0 -7.208503278496668e-19 -5.815286210837984e-18
  outer loop
    vertex 3.0 30.0 0.0
    vertex 3.0 20.000000000000004 11.0
    vertex 3.0 21.035276180410087 11.136296694843727
  endloop
endfacet
facet normal -1.0 -7.208503278496668e-19 -5.815286210837984e-18
  outer loop
    vertex 3.0 30.0 0.0
    vertex 3.0 21.035276180410087 11.136296694843727
    vertex 3.0 22.000000000000004 11.535898384862247
  endloop
endfacet
facet normal -1.0 -7.208503278496668e-19 -5.815286210837984e-18
  outer loop
    vertex 3.0 30.0 0.0
    vertex 3.0 22.000000000000004 11.535898384862247
    vertex 3.0 22.828427124746195 12.17157287525381
  endloop
endfacet
facet normal -1.0 -7.208503278496668e-19 -5.815286210837984e-18
  outer loop
    vertex 3.0 30.0 0.0
    vertex 3.0 22.828427124746195 12.17157287525381
    vertex 3.0 23.464101615137757 12.999999999999998
  endloop
endfacet
facet normal -1.0 -7.208503278496668e-19 -5.815286210837984e-18
  outer loop
    vertex 3.0 30.0 0.0
    vertex 3.0 23.464101615137757 12.999999999999998
    vertex 3.0 23.863703305156275 13.964723819589919
  endloop
endfacet
facet normal -1.0 -7.208503278496668e-19 -5.815286210837984e-18
  outer loop
    vertex 3.0 30.0 0.0
    vertex 3.0 23.863703305156275 13.964723819589919
    vertex 3.0 24.0 14.999999999999998
  endloop
endfacet
facet normal -1.0 -7.208503278496668e-19 -5.815286210837984e-18
  outer loop
    vertex 3.0 30.0 0.0
    vertex 3.0 24.0 14.999999999999998
    vertex 3.0 30.0 30.0
  endloop
endfacet
facet normal -1.0 -7.208503278496668e-19 -5.815286210837984e-18
  outer loop
    vertex 3.0 3.0 28.0
    vertex 3.0000000000000058 6.647703843195304 15.362346663143517
    vertex 3.0 3.0 1.9999999999999998
  endloop
endfacet
facet normal -1.0 -7.208503278496668e-19 -5.815286210837984e-18
  outer loop
    vertex 3.0000000000000058 6.647703843195304 15.362346663143517
    vertex 3.0 3.0 28.0
    vertex 3.0000000000000058 6.7875644347017845 15.699999999999989
  endloop
endfacet
facet normal -1.0 -7.208503278496668e-19 -5.815286210837984e-18
  outer loop
    vertex 3.0000000000000058 6.7875644347017845 15.699999999999989
    vertex 3.0 3.0 28.0
    vertex 3.0000000000000058 7.010050506338833 15.989949493661156
  endloop
endfacet
facet normal -1.0 -7.208503278496668e-19 -5.815286210837984e-18
  outer loop
    vertex 3.0000000000000058 7.010050506338833 15.989949493661156
    vertex 3.0 3.0 28.0
    vertex 2.9999999999999996 18.0 28.0
  endloop
endfacet
facet normal -1.0 -7.208503278496668e-19 -5.815286210837984e-18
  outer loop
    vertex 3.0 3.0 1.9999999999999998
    vertex 3.0000000000000058 6.647703843195304 15.362346663143517
    vertex 3.0000000000000058 6.599999999999999 14.99999999999999
  endloop
endfacet
facet normal -1.0 -7.208503278496668e-19 -5.815286210837984e-18
  outer loop
    vertex 3.0000000000000058 7.010050506338833 15.989949493661156
    vertex 2.9999999999999996 18.0 28.0
    vertex 3.0000000000000058 7.299999999999999 16.212435565298204
  endloop
endfacet
facet normal -1.0 -7.208503278496668e-19 -5.815286210837984e-18
  outer loop
    vertex 3.0000000000000058 7.299999999999999 16.212435565298204
    vertex 2.9999999999999996 18.0 28.0
    vertex 3.0000000000000058 7.637653336856468 16.352296156804684
  endloop
endfacet
facet normal -1.0 -7.208503278496668e-19 -5.815286210837984e-18
  outer loop
    vertex 3.0000000000000058 7.637653336856468 16.352296156804684
    vertex 2.9999999999999996 18.0 28.0
    vertex 3.0000000000000058 7.999999999999999 16.399999999999988
  endloop
endfacet
facet normal -1.0 -7.208503278496668e-19 -5.815286210837984e-18
  outer loop
    vertex 3.0000000000000058 7.999999999999999 16.399999999999988
    vertex 2.9999999999999996 18.0 28.0
    vertex 3.0000000000000058 8.362346663143528 16.352296156804684
  endloop
endfacet
facet normal -1.0 -7.208503278496668e-19 -5.815286210837984e-18
  outer loop
    vertex 3.0000000000000058 8.362346663143528 16.352296156804684
    vertex 2.9999999999999996 18.0 28.0
    vertex 3.0000000000000058 8.699999999999998 16.212435565298204
  endloop
endfacet
facet normal -1.0 -7.208503278496668e-19 -5.815286210837984e-18
  outer loop
    vertex 3.0000000000000058 8.699999999999998 16.212435565298204
    vertex 2.9999999999999996 18.0 28.0
    vertex 3.0000000000000058 8.989949493661166 15.989949493661156
  endloop
endfacet
facet normal -1.0 -7.208503278496668e-19 -5.815286210837984e-18
  outer loop
    vertex 3.0000000000000058 8.989949493661166 15.989949493661156
    vertex 2.9999999999999996 18.0 28.0
    vertex 3.0000000000000058 9.212435565298215 15.69999999999999
  endloop
endfacet
facet normal -1.0 -7.208503278496668e-19 -5.815286210837984e-18
  outer loop
    vertex 3.0000000000000058 9.212435565298215 15.69999999999999
    vertex 2.9999999999999996 18.0 28.0
    vertex 3.0000000000000058 9.352296156804696 15.362346663143521
  endloop
endfacet
facet normal -1.0 -7.208503278496668e-19 -5.815286210837984e-18
  outer loop
    vertex 3.0000000000000058 9.352296156804696 15.362346663143521
    vertex 2.9999999999999996 18.0 28.0
    vertex 3.0000000000000058 9.4 14.99999999999999
  endloop
endfacet
facet normal -1.0 -7.208503278496668e-19 -5.815286210837984e-18
  outer loop
    vertex 3.0000000000000058 9.4 14.99999999999999
    vertex 2.9999999999999996 18.0 28.0
    vertex 3.0 16.136296694843733 16.03527618041008
  endloop
endfacet
facet normal -1.0 -7.208503278496668e-19 -5.815286210837984e-18
  outer loop
    vertex 3.0000000000000058 9.4 14.99999999999999
    vertex 3.0 16.136296694843733 16.03527618041008
    vertex 3.0 16.000000000000004 14.999999999999998
  endloop
endfacet
facet normal -1.0 -7.208503278496668e-19 -5.815286210837984e-18
  outer loop
    vertex 3.0 16.136296694843733 16.03527618041008
    vertex 2.9999999999999996 18.0 28.0
    vertex 3.0 16.53589838486225 16.999999999999996
  endloop
endfacet
facet normal -1.0 -7.208503278496668e-19 -5.815286210837984e-18
  outer loop
    vertex 3.0 16.53589838486225 16.999999999999996
    vertex 2.9999999999999996 18.0 28.0
    vertex 3.0 17.171572875253815 17.828427124746188
  endloop
endfacet
facet normal -1.0 -7.208503278496668e-19 -5.815286210837984e-18
  outer loop
    vertex 3.0 17.171572875253815 17.828427124746188
    vertex 2.9999999999999996 18.0 28.0
    vertex 3.0 18.000000000000004 18.464101615137753
  endloop
endfacet
facet normal -2.3499720687899144e-17 -1.0 1.7624790515924342e-16
  outer loop
    vertex 18.0 3.0 30.0
    vertex 3.0 3.0 28.0
    vertex 18.0 2.9999999999999996 28.0
  endloop
endfacet
facet normal -2.3499720687899144e-17 -1.0 1.7624790515924342e-16
  outer loop
    vertex 3.0 3.0 28.0
    vertex 18.0 3.0 30.0
    vertex 3.0 3.0 30.0
  endloop
endfacet
facet normal -0.0 -0.0 1.0
  outer loop
    vertex 3.0 3.0 28.0
    vertex 12.577564612953141 8.422435387046859 28.0
    vertex 2.9999999999999996 18.0 28.0
  endloop
endfacet
facet normal -0.0 -0.0 1.0
  outer loop
    vertex 12.577564612953141 8.422435387046859 28.0
    vertex 3.0 3.0 28.0
    vertex 18.0 2.9999999999999996 28.0
  endloop
endfacet
facet normal -0.0 1.0 -0.0
  outer loop
    vertex 0.0 0.0 11.499999999999998
    vertex 23.85463854923375 0.0 0.0
    vertex 0.0 0.0 0.0
  endloop
endfacet
facet normal -0.0 1.0 -0.0
  outer loop
    vertex 23.85463854923375 0.0 0.0
    vertex 0.0 0.0 11.499999999999998
    vertex 30.0 0.0 0.0
  endloop
endfacet
facet normal -0.0 1.0 -0.0
  outer loop
    vertex 30.0 0.0 0.0
    vertex 0.0 0.0 11.499999999999998
    vertex 16.445969059716074 0.0 9.200277574326389
  endloop
endfacet
facet normal -0.0 1.0 -0.0
  outer loop
    vertex 30.0 0.0 0.0
    vertex 16.445969059716074 0.0 9.200277574326389
    vertex 18.000000000000004 0.0 8.99568551970992
  endloop
endfacet
facet normal -0.0 1.0 -0.0
  outer loop
    vertex 16.445969059716074 0.0 9.200277574326389
    vertex 0.0 0.0 11.499999999999998
    vertex 14.997842759854963 0.0 9.800111127758031
  endloop
endfacet
facet normal -0.0 1.0 -0.0
  outer loop
    vertex 14.997842759854963 0.0 9.800111127758031
    vertex 0.0 0.0 11.499999999999998
    vertex 13.754308514610303 0.0 10.754308514610306
  endloop
endfacet
facet normal -0.0 1.0 -0.0
  outer loop
    vertex 13.754308514610303 0.0 10.754308514610306
    vertex 0.0 0.0 11.499999999999998
    vertex 12.800111127758033 0.0 11.99784275985496
  endloop
endfacet
facet normal -0.0 1.0 -0.0
  outer loop
    vertex -6.0 0.0 12.500000000000007
    vertex -2.4999999999999996 0.0 7.499999999999999
    vertex -3.9999999999999996 0.0 7.499999999999999
  endloop
endfacet
facet normal -0.0 1.0 -0.0
  outer loop
    vertex -2.4999999999999996 0.0 7.499999999999999
    vertex -6.0 0.0 12.500000000000007
    vertex -2.4999999999999996 0.0 11.499999999999998
  endloop
endfacet
facet normal -0.0 1.0 -0.0
  outer loop
    vertex -2.4999999999999996 0.0 11.499999999999998
    vertex -6.0 0.0 12.500000000000007
    vertex 0.0 0.0 11.499999999999998
  endloop
endfacet
facet normal -0.0 1.0 -0.0
  outer loop
    vertex 0.0 0.0 11.499999999999998
    vertex -6.0 0.0 12.500000000000007
    vertex 12.800111127758033 0.0 11.99784275985496
  endloop
endfacet
facet normal -0.0 1.0 -0.0
  outer loop
    vertex 12.800111127758033 0.0 11.99784275985496
    vertex -6.0 0.0 12.500000000000007
    vertex 12.200277574326389 0.0 13.445969059716088
  endloop
endfacet
facet normal -0.0 1.0 -0.0
  outer loop
    vertex 12.200277574326389 0.0 13.445969059716088
    vertex -6.0 0.0 12.500000000000007
    vertex -6.0 0.0 14.999999999999998
  endloop
endfacet
facet normal -0.0 1.0 -0.0
  outer loop
    vertex 12.200277574326389 0.0 13.445969059716088
    vertex -6.0 0.0 14.999999999999998
    vertex 11.995685519709923 0.0 14.999999999999998
  endloop
endfacet
facet normal -0.0 1.0 -0.0
  outer loop
    vertex 11.995685519709923 0.0 14.999999999999998
    vertex -6.0 0.0 14.999999999999998
    vertex -6.000000000000001 0.0 17.499999999999996
  endloop
endfacet
facet normal -0.0 1.0 -0.0
  outer loop
    vertex 11.995685519709923 0.0 14.999999999999998
    vertex -6.000000000000001 0.0 17.499999999999996
    vertex 12.20027757432639 0.0 16.554030940283912
  endloop
endfacet
facet normal -0.0 1.0 -0.0
  outer loop
    vertex 12.20027757432639 0.0 16.554030940283912
    vertex -6.000000000000001 0.0 17.499999999999996
    vertex 12.800111127758038 0.0 18.002157240145042
  endloop
endfacet
facet normal -0.0 1.0 -0.0
  outer loop
    vertex 12.800111127758038 0.0 18.002157240145042
    vertex -6.000000000000001 0.0 17.499999999999996
    vertex -2.4999999999999996 0.0 18.5
  endloop
endfacet
facet normal -0.0 1.0 -0.0
  outer loop
    vertex -2.4999999999999996 0.0 18.5
    vertex -6.000000000000001 0.0 17.499999999999996
    vertex -3.9999999999999996 0.0 22.5
  endloop
endfacet
facet normal -0.0 1.0 -0.0
  outer loop
    vertex -2.4999999999999996 0.0 18.5
    vertex -3.9999999999999996 0.0 22.5
    vertex -2.4999999999999996 0.0 22.5
  endloop
endfacet
facet normal -0.0 1.0 -0.0
  outer loop
    vertex 12.800111127758038 0.0 18.002157240145042
    vertex 0.0 0.0 18.5
    vertex 13.754308514610306 0.0 19.245691485389692
  endloop
endfacet
facet normal -0.0 1.0 -0.0
  outer loop
    vertex 0.0 0.0 18.5
    vertex 12.800111127758038 0.0 18.002157240145042
    vertex -2.4999999999999996 0.0 18.5
  endloop
endfacet
facet normal -0.0 1.0 -0.0
  outer loop
    vertex 13.754308514610306 0.0 19.245691485389692
    vertex 0.0 0.0 18.5
    vertex 0.0 0.0 30.0
  endloop
endfacet
facet normal -0.0 1.0 -0.0
  outer loop
    vertex 13.754308514610306 0.0 19.245691485389692
    vertex 0.0 0.0 30.0
    vertex 14.997842759854969 0.0 20.19988887224197
  endloop
endfacet
facet normal -0.0 1.0 -0.0
  outer loop
    vertex 14.997842759854969 0.0 20.19988887224197
    vertex 0.0 0.0 30.0
    vertex 16.445969059716084 0.0 20.799722425673608
  endloop
endfacet
facet normal -0.0 1.0 -0.0
  outer loop
    vertex 16.445969059716084 0.0 20.799722425673608
    vertex 0.0 0.0 30.0
    vertex 18.000000000000004 0.0 21.004314480290077
  endloop
endfacet
facet normal -0.0 1.0 -0.0
  outer loop
    vertex 30.0 0.0 0.0
    vertex 23.79972242567361 0.0 13.445969059716077
    vertex 30.0 0.0 30.0
  endloop
endfacet
facet normal -0.0 1.0 -0.0
  outer loop
    vertex 23.79972242567361 0.0 13.445969059716077
    vertex 30.0 0.0 0.0
    vertex 23.19988887224196 0.0 11.997842759854944
  endloop
endfacet
facet normal -0.0 1.0 -0.0
  outer loop
    vertex 23.19988887224196 0.0 11.997842759854944
    vertex 30.0 0.0 0.0
    vertex 22.2456914853897 0.0 10.754308514610305
  endloop
endfacet
facet normal -0.0 1.0 -0.0
  outer loop
    vertex 22.2456914853897 0.0 10.754308514610305
    vertex 30.0 0.0 0.0
    vertex 21.002157240145035 0.0 9.80011112775803
  endloop
endfacet
facet normal -0.0 1.0 -0.0
  outer loop
    vertex 21.002157240145035 0.0 9.80011112775803
    vertex 30.0 0.0 0.0
    vertex 19.55403094028391 0.0 9.200277574326385
  endloop
endfacet
facet normal -0.0 1.0 -0.0
  outer loop
    vertex 19.55403094028391 0.0 9.200277574326385
    vertex 30.0 0.0 0.0
    vertex 18.000000000000004 0.0 8.99568551970992
  endloop
endfacet
facet normal -0.0 1.0 -0.0
  outer loop
    vertex 30.0 0.0 30.0
    vertex 23.79972242567361 0.0 13.445969059716077
    vertex 24.004314480290077 0.0 15.0
  endloop
endfacet
facet normal -0.0 1.0 -0.0
  outer loop
    vertex 30.0 0.0 30.0
    vertex 24.004314480290077 0.0 15.0
    vertex 23.799722425673615 0.0 16.55403094028391
  endloop
endfacet
facet normal -0.0 1.0 -0.0
  outer loop
    vertex 30.0 0.0 30.0
    vertex 23.799722425673615 0.0 16.55403094028391
    vertex 23.199888872241964 0.0 18.00215724014504
  endloop
endfacet
facet normal -0.0 1.0 -0.0
  outer loop
    vertex 30.0 0.0 30.0
    vertex 23.199888872241964 0.0 18.00215724014504
    vertex 22.245691485389695 0.0 19.245691485389692
  endloop
endfacet
facet normal -0.0 1.0 -0.0
  outer loop
    vertex 30.0 0.0 30.0
    vertex 22.245691485389695 0.0 19.245691485389692
    vertex 21.002157240145042 0.0 20.19988887224196
  endloop
endfacet
facet normal -0.0 1.0 -0.0
  outer loop
    vertex 30.0 0.0 30.0
    vertex 21.002157240145042 0.0 20.19988887224196
    vertex 19.554030940283916 0.0 20.799722425673608
  endloop
endfacet
facet normal -0.0 1.0 -0.0
  outer loop
    vertex 30.0 0.0 30.0
    vertex 19.554030940283916 0.0 20.799722425673608
    vertex 18.000000000000004 0.0 21.004314480290077
  endloop
endfacet
facet normal -0.0 1.0 -0.0
  outer loop
    vertex 30.0 0.0 30.0
    vertex 18.000000000000004 0.0 21.004314480290077
    vertex 0.0 0.0 30.0
  endloop
endfacet
facet normal 0.9914448613738105 3.4445128207681924e-16 0.13052619222005152
  outer loop
    vertex 24.004314480290077 3.0 15.0
    vertex 23.799722425673615 0.0 16.55403094028391
    vertex 24.004314480290077 0.0 15.0
  endloop
endfacet
facet normal 0.9914448613738105 3.4445128207681924e-16 0.13052619222005152
  outer loop
    vertex 23.799722425673615 0.0 16.55403094028391
    vertex 24.004314480290077 3.0 15.0
    vertex 23.79972242567361 3.0 16.554030940283912
  endloop
endfacet
facet normal 0.9914448613738105 -6.289622139452337e-17 -0.1305261922200511
  outer loop
    vertex 23.79972242567361 3.0 13.445969059716074
    vertex 24.004314480290077 0.0 15.0
    vertex 23.79972242567361 0.0 13.445969059716077
  endloop
endfacet
facet normal 0.9914448613738105 -6.289622139452337e-17 -0.1305261922200511
  outer loop
    vertex 24.004314480290077 0.0 15.0
    vertex 23.79972242567361 3.0 13.445969059716074
    vertex 24.004314480290077 3.0 15.0
  endloop
endfacet
facet normal 0.9238795325112862 8.128495137850727e-18 -0.3826834323650911
  outer loop
    vertex 23.199888872241964 3.0 11.997842759854953
    vertex 23.79972242567361 0.0 13.445969059716077
    vertex 23.19988887224196 0.0 11.997842759854944
  endloop
endfacet
facet normal 0.9238795325112862 8.128495137850727e-18 -0.3826834323650911
  outer loop
    vertex 23.79972242567361 0.0 13.445969059716077
    vertex 23.199888872241964 3.0 11.997842759854953
    vertex 23.79972242567361 3.0 13.445969059716074
  endloop
endfacet
facet normal 0.7933533402912349 5.346699380252496e-16 -0.6087614290087209
  outer loop
    vertex 22.245691485389703 3.0 10.754308514610306
    vertex 23.19988887224196 0.0 11.997842759854944
    vertex 22.2456914853897 0.0 10.754308514610305
  endloop
endfacet
facet normal 0.7933533402912349 5.346699380252496e-16 -0.6087614290087209
  outer loop
    vertex 23.19988887224196 0.0 11.997842759854944
    vertex 22.245691485389703 3.0 10.754308514610306
    vertex 23.199888872241964 3.0 11.997842759854953
  endloop
endfacet
facet normal 0.6087614290087201 -9.889991244082883e-17 -0.7933533402912357
  outer loop
    vertex 22.245691485389703 3.0 10.754308514610306
    vertex 21.002157240145035 0.0 9.80011112775803
    vertex 21.002157240145035 3.0 9.800111127758028
  endloop
endfacet
facet normal 0.6087614290087201 -9.889991244082883e-17 -0.7933533402912357
  outer loop
    vertex 21.002157240145035 0.0 9.80011112775803
    vertex 22.245691485389703 3.0 10.754308514610306
    vertex 22.2456914853897 0.0 10.754308514610305
  endloop
endfacet
facet normal 0.3826834323650887 -4.971707936993034e-16 -0.9238795325112873
  outer loop
    vertex 19.55403094028392 3.0 9.200277574326387
    vertex 21.002157240145035 0.0 9.80011112775803
    vertex 19.55403094028391 0.0 9.200277574326385
  endloop
endfacet
facet normal 0.3826834323650887 -4.971707936993034e-16 -0.9238795325112873
  outer loop
    vertex 21.002157240145035 0.0 9.80011112775803
    vertex 19.55403094028392 3.0 9.200277574326387
    vertex 21.002157240145035 3.0 9.800111127758028
  endloop
endfacet
facet normal 0.1305261922200515 2.2068774965533738e-16 -0.9914448613738105
  outer loop
    vertex 19.55403094028392 3.0 9.200277574326387
    vertex 18.000000000000004 0.0 8.99568551970992
    vertex 18.000000000000004 3.0 8.99568551970992
  endloop
endfacet
facet normal 0.1305261922200515 2.2068774965533738e-16 -0.9914448613738105
  outer loop
    vertex 18.000000000000004 0.0 8.99568551970992
    vertex 19.55403094028392 3.0 9.200277574326387
    vertex 19.55403094028391 0.0 9.200277574326385
  endloop
endfacet
facet normal -0.13052619222005163 0.0 -0.9914448613738105
  outer loop
    vertex 18.000000000000004 3.0 8.99568551970992
    vertex 16.445969059716074 0.0 9.200277574326389
    vertex 16.445969059716074 3.0 9.200277574326389
  endloop
endfacet
facet normal -0.13052619222005163 0.0 -0.9914448613738105
  outer loop
    vertex 16.445969059716074 0.0 9.200277574326389
    vertex 18.000000000000004 3.0 8.99568551970992
    vertex 18.000000000000004 0.0 8.99568551970992
  endloop
endfacet
facet normal -0.38268343236509106 3.819098556781973e-17 -0.9238795325112864
  outer loop
    vertex 16.445969059716074 3.0 9.200277574326389
    vertex 14.997842759854963 0.0 9.800111127758031
    vertex 14.997842759854962 3.0 9.800111127758033
  endloop
endfacet
facet normal -0.38268343236509106 3.819098556781973e-17 -0.9238795325112864
  outer loop
    vertex 14.997842759854963 0.0 9.800111127758031
    vertex 16.445969059716074 3.0 9.200277574326389
    vertex 16.445969059716074 0.0 9.200277574326389
  endloop
endfacet
facet normal -0.6087614290087207 -9.889991244082923e-17 -0.7933533402912354
  outer loop
    vertex 14.997842759854962 3.0 9.800111127758033
    vertex 13.754308514610303 0.0 10.754308514610306
    vertex 13.754308514610303 3.0 10.754308514610306
  endloop
endfacet
facet normal -0.6087614290087207 -9.889991244082923e-17 -0.7933533402912354
  outer loop
    vertex 13.754308514610303 0.0 10.754308514610306
    vertex 14.997842759854962 3.0 9.800111127758033
    vertex 14.997842759854963 0.0 9.800111127758031
  endloop
endfacet
facet normal -0.7933533402912353 6.532286411578165e-17 -0.6087614290087204
  outer loop
    vertex 12.80011112775803 3.0 11.997842759854965
    vertex 13.754308514610303 0.0 10.754308514610306
    vertex 12.800111127758033 0.0 11.99784275985496
  endloop
endfacet
facet normal -0.7933533402912353 6.532286411578165e-17 -0.6087614290087204
  outer loop
    vertex 13.754308514610303 0.0 10.754308514610306
    vertex 12.80011112775803 3.0 11.997842759854965
    vertex 13.754308514610303 3.0 10.754308514610306
  endloop
endfacet
facet normal -0.9238795325112878 -1.3336641299308798e-16 -0.3826834323650875
  outer loop
    vertex 12.20027757432639 3.0 13.445969059716086
    vertex 12.800111127758033 0.0 11.99784275985496
    vertex 12.200277574326389 0.0 13.445969059716088
  endloop
endfacet
facet normal -0.9238795325112878 -1.3336641299308798e-16 -0.3826834323650875
  outer loop
    vertex 12.800111127758033 0.0 11.99784275985496
    vertex 12.20027757432639 3.0 13.445969059716086
    vertex 12.80011112775803 3.0 11.997842759854965
  endloop
endfacet
facet normal -0.9914448613738105 1.113583300114509e-16 -0.13052619222005196
  outer loop
    vertex 11.995685519709923 3.0 14.999999999999995
    vertex 12.200277574326389 0.0 13.445969059716088
    vertex 11.995685519709923 0.0 14.999999999999998
  endloop
endfacet
facet normal -0.9914448613738105 1.113583300114509e-16 -0.13052619222005196
  outer loop
    vertex 12.200277574326389 0.0 13.445969059716088
    vertex 11.995685519709923 3.0 14.999999999999995
    vertex 12.20027757432639 3.0 13.445969059716086
  endloop
endfacet
facet normal -0.9914448613738105 -2.351218624329332e-16 0.13052619222005124
  outer loop
    vertex 12.200277574326389 3.0 16.554030940283916
    vertex 11.995685519709923 0.0 14.999999999999998
    vertex 12.20027757432639 0.0 16.554030940283912
  endloop
endfacet
facet normal -0.9914448613738105 -2.351218624329332e-16 0.13052619222005124
  outer loop
    vertex 11.995685519709923 0.0 14.999999999999998
    vertex 12.200277574326389 3.0 16.554030940283916
    vertex 11.995685519709923 3.0 14.999999999999995
  endloop
endfacet
facet normal -0.9238795325112867 -4.749653392095279e-16 0.38268343236509017
  outer loop
    vertex 12.800111127758035 3.0 18.00215724014504
    vertex 12.20027757432639 0.0 16.554030940283912
    vertex 12.800111127758038 0.0 18.002157240145042
  endloop
endfacet
facet normal -0.9238795325112867 -4.749653392095279e-16 0.38268343236509017
  outer loop
    vertex 12.20027757432639 0.0 16.554030940283912
    vertex 12.800111127758035 3.0 18.00215724014504
    vertex 12.200277574326389 3.0 16.554030940283916
  endloop
endfacet
facet normal -0.7933533402912352 1.1172044812215272e-16 0.6087614290087208
  outer loop
    vertex 13.754308514610303 3.0 19.245691485389692
    vertex 12.800111127758038 0.0 18.002157240145042
    vertex 13.754308514610306 0.0 19.245691485389692
  endloop
endfacet
facet normal -0.7933533402912352 1.1172044812215272e-16 0.6087614290087208
  outer loop
    vertex 12.800111127758038 0.0 18.002157240145042
    vertex 13.754308514610303 3.0 19.245691485389692
    vertex 12.800111127758035 3.0 18.00215724014504
  endloop
endfacet
facet normal -0.608761429008721 -3.0567379430922567e-16 0.7933533402912349
  outer loop
    vertex 13.754308514610306 0.0 19.245691485389692
    vertex 14.997842759854969 3.0 20.19988887224197
    vertex 13.754308514610303 3.0 19.245691485389692
  endloop
endfacet
facet normal -0.608761429008721 -3.0567379430922567e-16 0.7933533402912349
  outer loop
    vertex 14.997842759854969 3.0 20.19988887224197
    vertex 13.754308514610306 0.0 19.245691485389692
    vertex 14.997842759854969 0.0 20.19988887224197
  endloop
endfacet
facet normal -0.3826834323650889 -9.721361329088325e-16 0.9238795325112871
  outer loop
    vertex 16.445969059716084 0.0 20.799722425673608
    vertex 14.997842759854969 3.0 20.19988887224197
    vertex 14.997842759854969 0.0 20.19988887224197
  endloop
endfacet
facet normal -0.3826834323650889 -9.721361329088325e-16 0.9238795325112871
  outer loop
    vertex 14.997842759854969 3.0 20.19988887224197
    vertex 16.445969059716084 0.0 20.799722425673608
    vertex 16.445969059716074 3.0 20.799722425673608
  endloop
endfacet
facet normal -0.1305261922200512 -2.4549815447539787e-16 0.9914448613738105
  outer loop
    vertex 16.445969059716084 0.0 20.799722425673608
    vertex 18.0 3.0 21.004314480290077
    vertex 16.445969059716074 3.0 20.799722425673608
  endloop
endfacet
facet normal -0.1305261922200512 -2.4549815447539787e-16 0.9914448613738105
  outer loop
    vertex 18.0 3.0 21.004314480290077
    vertex 16.445969059716084 0.0 20.799722425673608
    vertex 18.000000000000004 0.0 21.004314480290077
  endloop
endfacet
facet normal 0.13052619222005127 -3.4445128207681953e-16 0.9914448613738105
  outer loop
    vertex 18.000000000000004 0.0 21.004314480290077
    vertex 19.554030940283912 3.0 20.79972242567361
    vertex 18.0 3.0 21.004314480290077
  endloop
endfacet
facet normal 0.13052619222005127 -3.4445128207681953e-16 0.9914448613738105
  outer loop
    vertex 19.554030940283912 3.0 20.79972242567361
    vertex 18.000000000000004 0.0 21.004314480290077
    vertex 19.554030940283916 0.0 20.799722425673608
  endloop
endfacet
facet normal 0.3826834323650905 -6.831978524328815e-16 0.9238795325112865
  outer loop
    vertex 19.554030940283916 0.0 20.799722425673608
    vertex 21.002157240145042 3.0 20.199888872241964
    vertex 19.554030940283912 3.0 20.79972242567361
  endloop
endfacet
facet normal 0.3826834323650905 -6.831978524328815e-16 0.9238795325112865
  outer loop
    vertex 21.002157240145042 3.0 20.199888872241964
    vertex 19.554030940283916 0.0 20.799722425673608
    vertex 21.002157240145042 0.0 20.19988887224196
  endloop
endfacet
facet normal 0.60876142900872 -3.6995857840067056e-16 0.7933533402912357
  outer loop
    vertex 22.245691485389695 0.0 19.245691485389692
    vertex 21.002157240145042 3.0 20.199888872241964
    vertex 21.002157240145042 0.0 20.19988887224196
  endloop
endfacet
facet normal 0.60876142900872 -3.6995857840067056e-16 0.7933533402912357
  outer loop
    vertex 21.002157240145042 3.0 20.199888872241964
    vertex 22.245691485389695 0.0 19.245691485389692
    vertex 22.245691485389695 3.0 19.245691485389692
  endloop
endfacet
facet normal 0.7933533402912363 -0.0 0.6087614290087194
  outer loop
    vertex 23.199888872241964 3.0 18.00215724014504
    vertex 22.245691485389695 0.0 19.245691485389692
    vertex 23.199888872241964 0.0 18.00215724014504
  endloop
endfacet
facet normal 0.7933533402912363 -0.0 0.6087614290087194
  outer loop
    vertex 22.245691485389695 0.0 19.245691485389692
    vertex 23.199888872241964 3.0 18.00215724014504
    vertex 22.245691485389695 3.0 19.245691485389692
  endloop
endfacet
facet normal 0.9238795325112863 8.109846807333737e-17 0.38268343236509095
  outer loop
    vertex 23.79972242567361 3.0 16.554030940283912
    vertex 23.199888872241964 0.0 18.00215724014504
    vertex 23.799722425673615 0.0 16.55403094028391
  endloop
endfacet
facet normal 0.9238795325112863 8.109846807333737e-17 0.38268343236509095
  outer loop
    vertex 23.199888872241964 0.0 18.00215724014504
    vertex 23.79972242567361 3.0 16.554030940283912
    vertex 23.199888872241964 3.0 18.00215724014504
  endloop
endfacet
endsolid Taster_Mount
